<?xml version="1.0" encoding="utf-8"?>
<!-- Generator: Adobe Illustrator 24.2.1, SVG Export Plug-In . SVG Version: 6.00 Build 0)  -->
<svg version="1.1" id="Layer_1" xmlns="http://www.w3.org/2000/svg" xmlns:xlink="http://www.w3.org/1999/xlink" x="0px" y="0px"
	 viewBox="0 0 400 400" style="enable-background:new 0 0 400 400;" xml:space="preserve">
<style type="text/css">
	.st0{opacity:0.48;}
	.st1{fill:none;}
	.st2{fill:none;stroke:#FFFFFF;stroke-width:3;}
	.st3{fill-rule:evenodd;clip-rule:evenodd;fill:#FFFFFF;}
</style>
<g id="Sarthi_Logo_final_White" transform="translate(7606 -63)">
	<g id="Group_16855" transform="translate(-7605.833 63.167)">
		<g id="Ellipse_375" transform="translate(-0.167 -0.167)" class="st0">
			<circle class="st1" cx="199.62" cy="200.38" r="200.38"/>
			<circle class="st2" cx="199.62" cy="200.38" r="196.29"/>
		</g>
		<path id="Path_19312" class="st3" d="M198.91,34.37c91.27,0.05,165.23,74.07,165.18,165.34
			c-0.04,91.27-74.07,165.23-165.34,165.18c-91.24-0.05-165.18-74.02-165.18-165.26c-0.02-91.26,73.95-165.25,165.21-165.27
			C198.82,34.37,198.87,34.37,198.91,34.37z M123.86,210.88l16.83,3.09c-13.16-66.73,60.14-103.95,104.54-55.4
			c13.33,14.58,15.33,32.58,11.91,55.16l17.74-3.16c7.5-95.22-94.54-112.71-134.45-64.07C131.19,157.82,114.78,188.89,123.86,210.88
			L123.86,210.88z M188.91,277.02c1.33,1.25-1.25,1,3.66,2.42c-0.25-5.74,0.25-1.42-1.59-2.58c-12.08-30.24-76.8-26.41-106.37-23.99
			c2.53,2.76,5.32,5.26,8.33,7.49c6.83,5.24,27.07,2,44.73,2.58c19.33,0.67,39.16,4.25,51.23,14.07L188.91,277.02z M191,166.4
			l15.74,0.34c-1.17-3.74-5-13.5-7.91-16.66L191,166.4z M212.82,237.62c12.91-8.33,10.09-19.24,9.92-28.73l-9.83-0.16L212.82,237.62
			z M184.91,237.71v-29.07l-9.81,0.25c-0.33,14.41-2.09,16.25,4,23.66L184.91,237.71z M274.21,116.6
			c-1.42,0.74-11,10.73-12.91,12.57c-8.08,7.92-3.08,14.66,4,10.83c1.25-0.67,11-10.66,12.83-12.67
			C285.71,119.43,279.71,113.93,274.21,116.6L274.21,116.6z M118.78,116.68c-8.33,4.41,3.08,12.74,4.91,14.57
			c2.59,2.51,9.16,12,14.58,9.17c7.66-4.17-2.91-12.33-5.25-14.57C130.28,123.18,123.95,113.93,118.78,116.68L118.78,116.68z
			 M283.71,202.72c5.17,2.34,15.33,2.26,22.9,1.85c10.75-0.59,9.99-10.9-0.08-10.9C287.29,193.64,282.47,191.4,283.71,202.72
			L283.71,202.72z M193.5,95.93l0.58,17.83c3,1.17,6.33,1.17,9.33,0c1.75-9.53,1.67-19.32-0.25-28.82
			C193.08,82.01,193.5,86.44,193.5,95.93L193.5,95.93z M114.04,202.8l0.25-7.41c-6.08-2.58-15.33-1.75-23.07-1.75
			c-10.09,0-10.33,9.91-1.34,10.9C97.54,205.38,108.86,205.14,114.04,202.8L114.04,202.8z M191.92,249.45H206l-0.08-40.73
			l-13.99,0.09L191.92,249.45z M176.26,200.3l43.31,0.17l-12.33-28.4l-18.91-0.26L176.26,200.3z M206.91,278.35
			c27.24-16.9,48.81-16.5,83.72-15.41c9.75,0.33,11.08,1.91,20.4-7.09c2.59-2.5,0.92-0.24,2.75-3.42
			c-21.32,0.51-44.31-1.33-65.3,0.92c-19.33,2.11-36.65,10.93-41.57,25.02L206.91,278.35z M122.78,244.61
			c25.08-0.24,44.31,2.59,62.22,13.09c-3.25-9.16-18.5-23.15-26.99-27.9c-12.83-7.09-28.74-10.09-44.65-11.49L122.78,244.61z
			 M213.66,257.2c10.16-3.85,14.66-7.42,27.49-10.09c34.74-7,33.24,10.24,43.73-28.49C257.89,218.39,223.98,233.04,213.66,257.2
			L213.66,257.2z M76.47,271.6c4.25,4.25,15.66,10.75,21.41,14.42c8.5,5.24,13,11.16,25.16,11.16c22.41,0,49.98,1.33,71.72-0.33
			C180.34,263.03,109.78,273.44,76.47,271.6L76.47,271.6z M203.09,296.85c21.07,1.82,49.64,0.33,71.63,0.33
			c8.58,0,9.08-0.33,14.66-4.34c8.5-6,26.74-16.09,31.9-21.25C287.38,273.44,217.65,263.03,203.09,296.85L203.09,296.85z"/>
	</g>
</g>
</svg>
