<svg xmlns="http://www.w3.org/2000/svg" xmlns:xlink="http://www.w3.org/1999/xlink" version="1.1" width="1000" height="1000" viewBox="0 0 1000 1000" xml:space="preserve">
<desc>Created with Fabric.js 3.5.0</desc>
<defs>
</defs>
<rect x="0" y="0" width="100%" height="100%" fill="rgba(255,255,255,0)"/>
<g transform="matrix(1.9627 0 0 2.0705 628.064 496.92)" id="181133">
<g style="" vector-effect="non-scaling-stroke">
		<g transform="matrix(25.596 0 0 24.1029 -65 0.5)">
<path style="stroke: none; stroke-width: 1; stroke-dasharray: none; stroke-linecap: butt; stroke-dashoffset: 0; stroke-linejoin: miter; stroke-miterlimit: 4; is-custom-font: none; font-file-url: none; fill: rgb(0,0,0); fill-rule: evenodd; opacity: 1;" transform=" translate(-12, -12)" d="m 4.5 3.75 c -0.41421 0 -0.75 0.33579 -0.75 0.75 v 15 c 0 0.4142 0.33579 0.75 0.75 0.75 h 15 c 0.4142 0 0.75 -0.3358 0.75 -0.75 v -15 c 0 -0.41421 -0.3358 -0.75 -0.75 -0.75 z m -2.25 0.75 c 0 -1.24264 1.00736 -2.25 2.25 -2.25 h 15 c 1.2426 0 2.25 1.00736 2.25 2.25 v 15 c 0 1.2426 -1.0074 2.25 -2.25 2.25 h -15 c -1.24264 0 -2.25 -1.0074 -2.25 -2.25 z" stroke-linecap="round"/>
</g>
		<g transform="matrix(25.596 0 0 24.1029 -154.604 0.5)">
<path style="stroke: none; stroke-width: 1; stroke-dasharray: none; stroke-linecap: butt; stroke-dashoffset: 0; stroke-linejoin: miter; stroke-miterlimit: 4; is-custom-font: none; font-file-url: none; fill: rgb(0,0,0); fill-rule: evenodd; opacity: 1;" transform=" translate(-8.5, -12)" d="m 5.75 8.5 c 0 -0.41421 0.33579 -0.75 0.75 -0.75 h 4 c 0.4142 0 0.75 0.33579 0.75 0.75 s -0.3358 0.75 -0.75 0.75 h -3.25 v 6.25 c 0 0.4142 -0.33579 0.75 -0.75 0.75 s -0.75 -0.3358 -0.75 -0.75 z" stroke-linecap="round"/>
</g>
		<g transform="matrix(25.596 0 0 24.1029 -157.924 0.5)">
<path style="stroke: none; stroke-width: 1; stroke-dasharray: none; stroke-linecap: butt; stroke-dashoffset: 0; stroke-linejoin: miter; stroke-miterlimit: 4; is-custom-font: none; font-file-url: none; fill: rgb(0,0,0); fill-rule: evenodd; opacity: 1;" transform=" translate(-8.375, -12)" d="m 5.75 12 c 0 -0.4142 0.33579 -0.75 0.75 -0.75 h 3.75 c 0.4142 0 0.75 0.3358 0.75 0.75 s -0.3358 0.75 -0.75 0.75 h -3.75 c -0.41421 0 -0.75 -0.3358 -0.75 -0.75 z" stroke-linecap="round"/>
</g>
		<g transform="matrix(25.596 0 0 24.1029 -157.924 84.8771)">
<path style="stroke: none; stroke-width: 1; stroke-dasharray: none; stroke-linecap: butt; stroke-dashoffset: 0; stroke-linejoin: miter; stroke-miterlimit: 4; is-custom-font: none; font-file-url: none; fill: rgb(0,0,0); fill-rule: evenodd; opacity: 1;" transform=" translate(-8.375, -15.5)" d="m 5.75 15.5 c 0 -0.4142 0.33579 -0.75 0.75 -0.75 h 3.75 c 0.4142 0 0.75 0.3358 0.75 0.75 s -0.3358 0.75 -0.75 0.75 h -3.75 c -0.41421 0 -0.75 -0.3358 -0.75 -0.75 z" stroke-linecap="round"/>
</g>
		<g transform="matrix(25.596 0 0 24.1029 -39.404 12.5571)">
<path style="stroke: none; stroke-width: 1; stroke-dasharray: none; stroke-linecap: butt; stroke-dashoffset: 0; stroke-linejoin: miter; stroke-miterlimit: 4; is-custom-font: none; font-file-url: none; fill: rgb(0,0,0); fill-rule: evenodd; opacity: 1;" transform=" translate(-13, -12.5)" d="m 13 8.75 c 0.4142 0 0.75 0.33579 0.75 0.75 v 6 c 0 0.4142 -0.3358 0.75 -0.75 0.75 s -0.75 -0.3358 -0.75 -0.75 v -6 c 0 -0.41421 0.3358 -0.75 0.75 -0.75 z" stroke-linecap="round"/>
</g>
		<g transform="matrix(25.596 0 0 24.1029 18.196 18.58)">
<path style="stroke: none; stroke-width: 1; stroke-dasharray: none; stroke-linecap: butt; stroke-dashoffset: 0; stroke-linejoin: miter; stroke-miterlimit: 4; is-custom-font: none; font-file-url: none; fill: rgb(0,0,0); fill-rule: evenodd; opacity: 1;" transform=" translate(-15.25, -12.75)" d="m 15.25 10.75 c -0.8284 0 -1.5 0.6716 -1.5 1.5 v 3.25 c 0 0.4142 -0.3358 0.75 -0.75 0.75 s -0.75 -0.3358 -0.75 -0.75 v -3.25 c 0 -1.6569 1.3431 -3 3 -3 s 3 1.3431 3 3 v 3.25 c 0 0.4142 -0.3358 0.75 -0.75 0.75 s -0.75 -0.3358 -0.75 -0.75 v -3.25 c 0 -0.8284 -0.6716 -1.5 -1.5 -1.5 z" stroke-linecap="round"/>
</g>
</g>
</g>
</svg>