<svg xmlns="http://www.w3.org/2000/svg" width="428.348" height="147" viewBox="0 0 428.348 147">
  <g id="Sarthi_Logo_final_White" data-name="Sarthi Logo_final_White" transform="translate(7606 -63)">
    <g id="Group_16855" data-name="Group 16855" transform="translate(-7605.833 63.167)">
      <g id="Ellipse_375" data-name="Ellipse 375" transform="translate(-0.167 -0.167)" fill="none" stroke="#fff" stroke-width="3" opacity="0.48">
        <circle cx="73.5" cy="73.5" r="73.5" stroke="none"/>
        <circle cx="73.5" cy="73.5" r="72" fill="none"/>
      </g>
      <path id="Path_19312" data-name="Path 19312" d="M4171.65,11391a60.62,60.62,0,1,1-60.65,60.622A60.611,60.611,0,0,1,4171.65,11391Zm-27.53,64.744,6.173,1.134c-4.828-24.476,22.059-38.131,38.344-20.322,4.888,5.348,5.622,11.949,4.37,20.231l6.508-1.16c2.75-34.927-34.679-41.342-49.316-23.5C4146.81,11436.281,4140.791,11447.679,4144.121,11455.744Zm23.863,24.261c.489.46-.458.368,1.344.888-.092-2.106.091-.52-.582-.947-4.431-11.091-28.17-9.687-39.016-8.8a21.518,21.518,0,0,0,3.054,2.747c2.506,1.924,9.931.732,16.408.947C4156.282,11475.085,4163.554,11476.4,4167.984,11480Zm.763-40.576,5.775.124c-.428-1.373-1.833-4.952-2.9-6.112Zm8.005,26.123c4.737-3.054,3.7-7.057,3.638-10.54l-3.606-.06Zm-10.237.032v-10.663l-3.6.091c-.122,5.286-.765,5.961,1.466,8.679Zm32.757-44.422c-.519.272-4.035,3.937-4.737,4.611-2.963,2.905-1.129,5.378,1.467,3.974.458-.247,4.033-3.909,4.705-4.648C4203.488,11422.2,4201.288,11420.182,4199.272,11421.162Zm-57.015.028c-3.056,1.617,1.13,4.673,1.8,5.343.948.919,3.361,4.4,5.347,3.364,2.811-1.53-1.069-4.523-1.925-5.346C4146.474,11423.575,4144.152,11420.182,4142.257,11421.19Zm60.5,31.56c1.895.859,5.623.828,8.4.677,3.942-.217,3.666-4-.029-4C4204.068,11449.422,4202.3,11448.6,4202.754,11452.75Zm-33.09-39.17.213,6.539a4.725,4.725,0,0,0,3.423,0,27.919,27.919,0,0,0-.093-10.571C4169.512,11408.476,4169.664,11410.1,4169.664,11413.58Zm-29.149,39.2.091-2.718c-2.229-.947-5.622-.643-8.462-.643-3.7,0-3.79,3.635-.49,4C4134.466,11453.729,4138.62,11453.638,4140.515,11452.782Zm28.569,17.11h5.165l-.031-14.94-5.133.032Zm-5.744-18.027,15.888.062-4.522-10.419-6.936-.094Zm11.243,28.63c9.992-6.2,17.905-6.051,30.708-5.652,3.575.121,4.063.7,7.484-2.6.948-.917.337-.089,1.008-1.253-7.822.188-16.255-.487-23.954.336C4182.741,11472.1,4176.386,11475.332,4174.583,11480.5Zm-30.859-12.377c9.2-.087,16.255.949,22.824,4.8-1.191-3.36-6.784-8.49-9.9-10.235-4.707-2.6-10.542-3.7-16.378-4.216Zm33.334,4.62c3.728-1.411,5.378-2.722,10.083-3.7,12.741-2.569,12.191,3.758,16.041-10.451C4193.282,11458.5,4180.846,11463.873,4177.058,11472.738Zm-50.321,5.279c1.558,1.56,5.744,3.943,7.852,5.29,3.117,1.922,4.767,4.095,9.227,4.095,8.22,0,18.333.487,26.308-.121C4164.837,11474.872,4138.957,11478.692,4126.736,11478.018Zm46.442,9.264c7.729.668,18.21.121,26.275.121,3.148,0,3.331-.121,5.379-1.592,3.116-2.2,9.808-5.9,11.7-7.793C4204.1,11478.692,4178.523,11474.872,4173.179,11487.281Z" transform="translate(-4098.516 -11378.498)" fill="#fff" fill-rule="evenodd"/>
    </g>
    <path id="Path_19401" data-name="Path 19401" d="M7977.255,13032.5c-.029-2.282-.2-7.54.578-9.273a10.731,10.731,0,0,1,2.167-2.773c.837-.462,9.908-.26,11.642-.23v10.457c-1.126-.347-.867-.606-1.82-.693-1.011,1.85-2.831,2.455-5.2,3.207a12.368,12.368,0,0,1-7.308.549Zm130.572-7.944c.173-3.351,2.571-7.569,5.229-7.944-.029,1.993-1.877,4.911-3.177,6.326C8108.925,13024.009,8108.809,13024.211,8107.827,13024.558Zm32.209-22.388c-.058-1.444,1.156-4.16,1.82-5.229,2.889-4.824,7.828-7.078,13.809-7.049,3.466.029,7.8,2.34,9.937,4.072l5.432,8.234Zm-8.811.029H8119.96c.144,3.062,10.255,14.241,13.057,15.975,1.011.635,2.629.289,3.929.52l.462,15.773c.029,3.986-1.04,5.719-2.86,8.232a44.3,44.3,0,0,1-6.1,4.969c-2.485,1.357-5.084,2.975-8,2.946-6.962,0-14.011-1.214-17.535-5.345,9.013-.086,18.488.174,23.254-9.215a20.491,20.491,0,0,0-.52-18.806c-2.311-3.987-8.262-10.891-11.7-13.952-1.849-1.646-5.056-4.275-8.666-4.275-3.5.028-7.193.866-9.273,3.438-5.546,6.933-1.733,11.468,2.976,17.274,1.069,1.3,1.878,2.138,2.976,3.38.809.953,2.715,2.514,3.148,3.64-4.218,2.369-10.082,2.108-15.253,2.108-2.108,0-2.715-.981-4.3-1.126-.289,5.835,14.068,20.511,19.123,24.958l2.2,1.965c7.02,6.27,13.375,12.162,23.833,12.307a4.1,4.1,0,0,0,1.936-.318c5.95-2.715,1.04.751,1.906,1.85.635.779,1.531,2.021,3.033,3.9,1.3,1.647,6.673,7.425,8.551,7.541,5.806.4,6.182-8.406,6.153-12.942,0-4.391-.578-10.11-.318-14.184.231-3.265-.578-10.919-.578-16.38.029-6.354.086-12.479,4.333-17.766l6.182-.028c.665,3.38.4,10.11.462,13.9.058,4.736.723,9.677.751,15.4,0,4.275.578,11.381-1.329,14.414-1.357,2.168-1.531,2.369-4.737,2.369-.029,2.484,8.435,11.671,9.966,13.2,1.271,1.271,4.911,5.229,7.568,2.368,3.64-3.928,2.917-9.793,2.917-15.715,0-5.258-.26-9.562-.665-14.617a187.042,187.042,0,0,1-.145-22.069c.2-2.167,1.271-6.9,3.236-8.06l3.091-.9,15.281-.028c.174-2.657-9.446-13.144-12.653-15.628-2.281-1.791-5.806-.174-8.694-.867-.81-.2-3.554-4.391-4.247-5.285l-6.528-7.656c-1.82-1.7-5.344-5.69-7.366-7.309-3.351-2.657-6.673-5.575-11.526-7.539-5.171-2.109-11.15-.867-15.137,1.415-6.153,3.524-8.522,12.422-4.651,20.077C8128.539,12998.154,8131,13001.447,8131.226,13002.2Zm-116.879,36.918c.145,1.936.636,8.031.145,9.706a4.7,4.7,0,0,1-2.484,2.456c-1.82.895-2.687.027-4.218-.059.116,3.119,11.439,15.455,14.213,16.61a5.529,5.529,0,0,0,5.777-1.271c2.889-2.8.347-15.8.115-20.828a127.4,127.4,0,0,1,.578-14.936,21.159,21.159,0,0,1,1.762-6.066c.751-1.676,1.271-3.986,3.611-4.217l30.852-.029c-.116,4.939-3,11.064-5.6,13.317-1.878,1.618-9.5,6.5-13.115,5.777-.231-.954-1.474-1.993-2.253-2.744l-2.571-2.8c-1.878-1.791-3.38-3.5-5.749-4.768-3.9-2.079-4.882,0-3.438,3.67,1.965,4.939,9.707,13.52,14.242,17.534.866.751,2.08,1.589,2.8,2.34,1.646,1.763,3.265,3.958,5.142,5.634,1.04.953,1.561,1.877,2.542,2.859.433.434.837.693,1.271,1.127l4.1,3.986c2.022,1.646,3.7,3.062,5.835,4.68,8.319,6.182,22.821,9.908,32.989,6.933a47.342,47.342,0,0,0,11.006-4.882c1.243-.723,2.283-1.1,3.641-1.733-.491-1.242-3.7-4.42-4.767-5.517-1.791-1.792-3.7-3.41-5.488-5.027-8.061-7.279-6.962-2.484-17.709.693a32.019,32.019,0,0,1-14.067.578,50.721,50.721,0,0,1-12.075-3.641c-.693-.317-1.127-.549-1.791-.895a4.178,4.178,0,0,1-1.647-1.214c7.916-.173,16.09-5,19.095-11.9,3.235-7.453,1.329-15.4,4.016-19.268l2.6-4.189c.347-.578-.231-.26.52-.578h10.2c-.549-1.617-3.409-5.518-4.507-7.309-1.56-2.57-3-4.766-4.68-7.309-1.3-2.021-.981-1.877-3.929-1.877l-78.516-.231c-2.08,0-4.045-.058-6.125,0-1.069.029-1.907-.231-2.628-.2-.867.058-1.792.2-2.976.2-4.016-.028-8,0-11.988,0l-9.071-.028a9.443,9.443,0,0,1-2.513-.578c-.838-.087-.78.49-2.109.606-3.033.289-17.823,0-21.29,0-5.72,0-19.354-.347-24.092.058.058,2.484,6.846,10.082,9.273,12.508a32.025,32.025,0,0,0,4.015,3.5c1.416.9,25.652.376,29.263.434-.058,5.6-4.247,11.525-7.309,15.57a21.089,21.089,0,0,1-6.008,5.315c-1.849,1.1-5.633,3.235-8.32,3.177l-6.24-6.99c-2.86-2.889-4.16-4.766-8.753-4.361-.636.895-.693.52-.722,2.253a11.768,11.768,0,0,0,.289,2.744,17.962,17.962,0,0,0,1.676,4.419c2.86,5.345,6.3,9.36,10.168,13.78,1.994,2.253,3.842,4.333,5.864,6.384,2.947,3,6.5,5.864,9.36,8.754a16.849,16.849,0,0,0,1.56,1.386c.636.521.982.982,1.646,1.5,4.593,3.553,8.7,7.164,13.75,10.485a51.34,51.34,0,0,0,16.408,7.54c12.913,3.582,18.545-.9,29.581-4.16a59.478,59.478,0,0,1,9.822-2.426c3.438-.348,7.944-.926,11.15.288a16.409,16.409,0,0,1,4.1,2.022c1.012.751,2.427,2.225,3.871,2.426-.23-3.148-5.575-8.319-7.539-10.746a35.739,35.739,0,0,0-9.735-8.377c-6.645-3.842-15.08-2.4-22.59-.4-2.311.606-4.593,1.56-6.673,2.311-11.237,3.958-16.668,5.894-29.667,1.3-6.789-2.4-11.729-5.951-17.015-10.169-1.127-.9-4.536-3.554-4.969-4.333,4.246.867,6.847,1.762,11.5.174,9.706-3.352,15.542-11.556,18.575-21,.953.347,2.282,2.254,3.062,3.12a34.132,34.132,0,0,0,3.091,3.265c3.293,2.859,4.131,3.091,8.06,4.65.26,2.08-2.08,3.553-3.437,4.391-2.455,1.531-4.131.549-6.615.231.116,2.138,3.5,6.066,4.622,7.425,1.907,2.224,3.7,4.246,5.72,6.268,2.08,2.051,4.362,3.986,8.58,3,7.713-1.791,6.933-10.832,6.7-16.668-.289-7.943-.029-16.032,0-23.977,0-4.68-.086-6.875,1.56-10.515h5.893c.145,3.149-.173,6.558-.086,9.793C8013.566,13032.819,8014.029,13036.43,8014.347,13039.117Z" transform="translate(-15375.957 -12908.751)" fill="#fff" fill-rule="evenodd"/>
    <path id="Path_19402" data-name="Path 19402" d="M11825,17097.27v-1.445h1.85a1.646,1.646,0,0,1-.723-.75,2.252,2.252,0,0,1-.26-1.07,2.732,2.732,0,0,1,1.039-2.137,3.591,3.591,0,0,1,2.455-.867,5.956,5.956,0,0,1,3.381,1.1,7.5,7.5,0,0,1,2.484,2.945l-1.329.7a5.518,5.518,0,0,0-1.878-2.312,4.572,4.572,0,0,0-2.658-.865,1.94,1.94,0,0,0-1.3.4,1.262,1.262,0,0,0-.549,1.039,1.523,1.523,0,0,0,.289.926,1.445,1.445,0,0,0,.779.52l-.289.375h1.82v1.445h-1.733v8.232h-1.646v-8.232Zm4.737,0v-1.445h14.3v1.445h-1.734v8.232h-1.646v-5.432h-2.224a1.4,1.4,0,0,1,.434.578,1.379,1.379,0,0,1,.173.693,2.9,2.9,0,0,1-1.242,2.311,4.865,4.865,0,0,1-3.033.953,5.513,5.513,0,0,1-2.917-.953,2.861,2.861,0,0,1-1.214-2.311,2.918,2.918,0,0,1,.521-1.646,4.566,4.566,0,0,1,1.5-1.357l.954,1.156a3.2,3.2,0,0,0-1.04.895,1.531,1.531,0,0,0-.4.953,1.511,1.511,0,0,0,.779,1.242,3.284,3.284,0,0,0,1.82.49,3.386,3.386,0,0,0,1.85-.49,1.511,1.511,0,0,0,.779-1.242,1.357,1.357,0,0,0-.318-.9,1,1,0,0,0-.75-.375h-1.069v-1.531h5.4v-1.27Zm13.924,0v-1.445h11.122v1.445Zm.981,4.65a3.662,3.662,0,0,1,1.33-2.8,4.71,4.71,0,0,1,3.206-1.156,3.976,3.976,0,0,1,1.444.232,3.606,3.606,0,0,1,1.185.635,3.085,3.085,0,0,1,1.126-.635,3.678,3.678,0,0,1,1.387-.232,3.17,3.17,0,0,1,.664.088v1.561a1.5,1.5,0,0,0-.664-.115,2.957,2.957,0,0,0-1.7.576,4.091,4.091,0,0,0-1.213,1.561l-1.242-.867a3.394,3.394,0,0,1,.577-.779,1.514,1.514,0,0,0-.605-.348,3.041,3.041,0,0,0-.954-.143,3.162,3.162,0,0,0-2.108.721,2.123,2.123,0,0,0-.867,1.705,2,2,0,0,0,.723,1.561,2.638,2.638,0,0,0,1.791.664,3.916,3.916,0,0,0,1.906-.578l.607,1.445a5.3,5.3,0,0,1-2.514.664,3.768,3.768,0,0,1-2.859-1.1A3.443,3.443,0,0,1,11844.643,17101.92Zm9.765-4.65v-1.445h10.082v1.445h-1.82v2.57a9.28,9.28,0,0,0-2.6-.375,6.421,6.421,0,0,0-1.791.23c-.491.174-.722.346-.722.578a.443.443,0,0,0,.2.346,1.3,1.3,0,0,0,.578.232,5.391,5.391,0,0,1,1.906-.375,3.938,3.938,0,0,1,2.34.691,2.152,2.152,0,0,1,.954,1.734,2.016,2.016,0,0,1-.954,1.676,3.938,3.938,0,0,1-2.34.691v-1.559a2.99,2.99,0,0,0,1.186-.23c.316-.174.462-.348.462-.578a.723.723,0,0,0-.462-.637,2.581,2.581,0,0,0-1.186-.26,4.042,4.042,0,0,0-2.166.578,1.721,1.721,0,0,0-.924,1.416c0,.549.375,1.039,1.1,1.443a5.39,5.39,0,0,0,2.6.578h2.108v1.531h-2.108a6.515,6.515,0,0,1-3.756-1.041,2.91,2.91,0,0,1-1.213-3.957,1.789,1.789,0,0,1,.9-.895,1.643,1.643,0,0,1-.866-1.387,1.968,1.968,0,0,1,1.213-1.676,5.843,5.843,0,0,1,2.946-.693,2.188,2.188,0,0,1,.347.115,1.929,1.929,0,0,0,.606.174v-.924Zm9.706,0v-1.445h5.113v1.445h-1.732v8.232h-1.646v-8.232Zm8.782,0v-1.445h11.237v1.445h-1.733v8.232h-1.646v-2.715a2.474,2.474,0,0,1-1.069.635,5.148,5.148,0,0,1-1.531.23,4.772,4.772,0,0,1-2.945-.924,2.8,2.8,0,0,1-1.214-2.252v-3.207Zm2.744,0v3.207a1.378,1.378,0,0,0,.722,1.154,3.57,3.57,0,0,0,3.611,0,1.388,1.388,0,0,0,.78-1.154v-3.207Zm8.118,0v-1.445h1.732a1.232,1.232,0,0,1-.635-.635,1.933,1.933,0,0,1-.231-1.012,2.853,2.853,0,0,1,1.185-2.254,4.529,4.529,0,0,1,2.859-.924,11.038,11.038,0,0,1,4.65,1.012,10.406,10.406,0,0,1,3.756,2.859l-1.068.867a10.526,10.526,0,0,0-3.381-2.369,9.9,9.9,0,0,0-3.957-.809,2.947,2.947,0,0,0-1.7.463,1.4,1.4,0,0,0-.693,1.154,1.159,1.159,0,0,0,.289.809,1.57,1.57,0,0,0,.751.463l-.289.375h1.85v1.445h-1.734v8.232h-1.646v-8.232Zm4.736,0v-1.445h10.486v1.445h-2.918a2.015,2.015,0,0,1,.752.809,2.177,2.177,0,0,1,.289,1.125,3.078,3.078,0,0,1-1.156,2.457,4.011,4.011,0,0,1-2.8,1.039h-.866a2.73,2.73,0,0,0,.953,1.039,2.632,2.632,0,0,0,1.357.406,3.488,3.488,0,0,0,1.589-.406,4.049,4.049,0,0,0,1.329-1.039l.953,1.156a5.623,5.623,0,0,1-1.733,1.357,4.992,4.992,0,0,1-2.138.463,5.607,5.607,0,0,1-2.138-.52,4.05,4.05,0,0,1-1.618-1.418,7.242,7.242,0,0,0-.549-.75c-.173-.2-.289-.289-.4-.289a.463.463,0,0,0-.26.088,1.1,1.1,0,0,0-.23.287l-.376-1.934h4.131a2.411,2.411,0,0,0,1.647-.551,1.806,1.806,0,0,0,.692-1.387,1.76,1.76,0,0,0-.664-1.355,2.307,2.307,0,0,0-1.56-.578Zm10.111,0v-1.445h11.209v1.445h-1.734v8.232h-1.646v-3.006a2.486,2.486,0,0,1-1.213.84,4.569,4.569,0,0,1-1.676.316,3.843,3.843,0,0,1-2.715-1.039,3.34,3.34,0,0,1-1.156-2.543v-2.8Zm2.715,2.8a1.948,1.948,0,0,0,.665,1.445,2.2,2.2,0,0,0,1.56.605,5.444,5.444,0,0,0,1.069-.115,1.288,1.288,0,0,0,.665-.287l-3.959-3.092Zm.2-2.8,4.621,3.494a1.118,1.118,0,0,0,.231-.4,1.274,1.274,0,0,0,.058-.461v-2.629Zm7.914,0v-1.445h11.845v1.445h-2.456v2.715a10.033,10.033,0,0,0-3.582-.375,4.619,4.619,0,0,0-2.4.605,1.82,1.82,0,0,0-.982,1.5c0,.461.289.836.866,1.154a4.059,4.059,0,0,0,2.051.49,2.435,2.435,0,0,1,1.011-1.992,3.757,3.757,0,0,1,2.456-.809,2.417,2.417,0,0,1,1.646.605,1.885,1.885,0,0,1,.665,1.416,2.008,2.008,0,0,1-1.214,1.705,5.58,5.58,0,0,1-2.946.723,3.8,3.8,0,0,0,.434.836,2.479,2.479,0,0,0,.75.7l-1.184.865a5.485,5.485,0,0,1-1.156-1.154,2.55,2.55,0,0,1-.462-1.242,6.2,6.2,0,0,1-3.148-.984,2.81,2.81,0,0,1-1.3-2.309,3.116,3.116,0,0,1,1.444-2.572,5.578,5.578,0,0,1,3.466-1.1,9.929,9.929,0,0,1,1.936.2v-.98Zm6.876,6.182a6.857,6.857,0,0,0,1.849-.232c.52-.172.752-.375.752-.635a.5.5,0,0,0-.174-.346.941.941,0,0,0-.491-.117,2.165,2.165,0,0,0-1.358.406A1.072,1.072,0,0,0,11916.313,17103.451Zm8.638-6.182v-1.445h12.682v1.445h-1.733v8.232h-1.646v-2.139a3.4,3.4,0,0,1-1.387.838,5.06,5.06,0,0,1-1.907.318,3.8,3.8,0,0,1-2.657-.895,2.7,2.7,0,0,1-1.1-2.2,2.454,2.454,0,0,1,.231-1.01,2.162,2.162,0,0,1,.722-.723h-2.716v-1.561h7.944v1.561h-2.513a2.448,2.448,0,0,0-1.445.605,1.4,1.4,0,0,0-.605,1.127,1.346,1.346,0,0,0,.635,1.1,2.585,2.585,0,0,0,1.5.461,4.271,4.271,0,0,0,1.936-.461,3.465,3.465,0,0,0,1.358-1.3v-3.957Zm8.781-5.027a1.038,1.038,0,0,1,.4-.867,1.265,1.265,0,0,1,.925-.375,1.283,1.283,0,0,1,.953.375,1.038,1.038,0,0,1,.4.867,1.381,1.381,0,0,1-1.357,1.357,1.189,1.189,0,0,1-.925-.4A1.207,1.207,0,0,1,11933.732,17092.242Zm3.611,5.027v-1.445h11.844v1.445h-2.57v2.6a10.232,10.232,0,0,0-2.8-.289,5.807,5.807,0,0,0-2.859.635c-.81.434-1.214.926-1.214,1.531a1.585,1.585,0,0,0,.866,1.328,3.793,3.793,0,0,0,2.052.551v-.289a2.759,2.759,0,0,1,1.011-2.168,3.532,3.532,0,0,1,2.455-.895,2.424,2.424,0,0,1,1.646.605,1.958,1.958,0,0,1,.665,1.473,2.269,2.269,0,0,1-1.126,1.879,4.637,4.637,0,0,1-2.716.781,2.42,2.42,0,0,0,.52.895,5.168,5.168,0,0,0,1.011.895l-1.242.953a5.807,5.807,0,0,1-1.3-1.184,2.653,2.653,0,0,1-.637-1.184l-3.379,2.656-1.156-1.068,2.976-2.137a4.383,4.383,0,0,1-2.282-1.127,2.65,2.65,0,0,1-.895-1.965,3.11,3.11,0,0,1,1.646-2.629,6.994,6.994,0,0,1,3.957-1.1,6.555,6.555,0,0,1,1.156.23v-.98Zm6.934,6.066v.289a4.088,4.088,0,0,0,1.79-.377c.491-.26.722-.549.722-.9a.469.469,0,0,0-.172-.375.8.8,0,0,0-.492-.172,2.094,2.094,0,0,0-1.3.461A1.355,1.355,0,0,0,11944.277,17103.336Zm4.535-6.066v-1.445h11.236v1.445h-1.732v8.232h-1.646v-2.715a2.485,2.485,0,0,1-1.069.635,5.148,5.148,0,0,1-1.531.23,4.773,4.773,0,0,1-2.946-.924,2.8,2.8,0,0,1-1.213-2.252v-3.207Zm2.744,0v3.207a1.375,1.375,0,0,0,.723,1.154,3.245,3.245,0,0,0,1.79.49,3.284,3.284,0,0,0,1.82-.49,1.39,1.39,0,0,0,.78-1.154v-3.207Zm2.946,10.139a2.069,2.069,0,0,1,.866-1.676,3.176,3.176,0,0,1,2.109-.721,6.017,6.017,0,0,1,3.438,1.443,20.738,20.738,0,0,1,3.813,4.045l-1.242.779a15.4,15.4,0,0,0-3.091-3.467,4.9,4.9,0,0,0-2.917-1.27,1.9,1.9,0,0,0-1.012.258.734.734,0,0,0-.434.607,1.016,1.016,0,0,0,.434.838,1.87,1.87,0,0,0,1.879.172,2.96,2.96,0,0,0,.779-.52l.953,1.156a2.765,2.765,0,0,1-1.068.809,3.846,3.846,0,0,1-1.416.26,3.243,3.243,0,0,1-2.2-.779A2.5,2.5,0,0,1,11954.5,17107.408Zm5.257-10.139v-1.445h10.516v1.445h-2.946a1.9,1.9,0,0,1,.78.809,2.186,2.186,0,0,1,.288,1.125,3.077,3.077,0,0,1-1.155,2.457,4.067,4.067,0,0,1-2.8,1.039h-.865a2.338,2.338,0,0,0,.953,1.039,2.479,2.479,0,0,0,1.357.406,3.466,3.466,0,0,0,1.56-.406,3.537,3.537,0,0,0,1.329-1.039l.982,1.156a5.634,5.634,0,0,1-1.733,1.357,4.992,4.992,0,0,1-2.138.463,5.853,5.853,0,0,1-2.167-.52,3.963,3.963,0,0,1-1.589-1.418,6.308,6.308,0,0,0-.578-.75c-.145-.2-.288-.289-.4-.289a.453.453,0,0,0-.23.088.717.717,0,0,0-.23.287l-.405-1.934h4.159a2.508,2.508,0,0,0,1.646-.551,1.869,1.869,0,0,0,.665-1.387,1.674,1.674,0,0,0-.665-1.355,2.2,2.2,0,0,0-1.559-.578Z" transform="translate(-19168.152 -16907.279)" fill="#fff"/>
  </g>
</svg>
