<svg xmlns="http://www.w3.org/2000/svg" width="58" height="58" viewBox="0 0 58 58">
  <g id="Group_16755" data-name="Group 16755" transform="translate(0 0)">
    <g id="Ellipse_375" data-name="Ellipse 375" transform="translate(0.001 0)" fill="none" stroke="#fff" stroke-width="2" opacity="0.48">
      <circle cx="29" cy="29" r="29" stroke="none"/>
      <circle cx="29" cy="29" r="28" fill="none"/>
    </g>
    <path id="Path_19312" data-name="Path 19312" d="M4135.075,11391a24.063,24.063,0,1,1-24.075,24.064A24.06,24.06,0,0,1,4135.075,11391Zm-10.928,25.7,2.45.449c-1.916-9.715,8.756-15.137,15.221-8.066,1.94,2.123,2.231,4.742,1.734,8.029l2.583-.459c1.091-13.863-13.766-16.41-19.576-9.328C4125.215,11408.975,4122.825,11413.5,4124.147,11416.7Zm9.473,9.629c.194.184-.183.146.533.354-.036-.838.036-.207-.23-.377-1.759-4.4-11.183-3.844-15.488-3.492a8.6,8.6,0,0,0,1.213,1.092c1,.764,3.942.291,6.514.375C4128.975,11424.379,4131.861,11424.9,4133.62,11426.33Zm.3-16.105,2.292.049a9.077,9.077,0,0,0-1.152-2.426Zm3.178,10.369c1.88-1.213,1.467-2.8,1.443-4.184l-1.431-.025Zm-4.063.014v-4.234l-1.431.037c-.049,2.1-.3,2.365.582,3.445Zm13-17.635c-.206.109-1.6,1.564-1.88,1.83-1.176,1.154-.448,2.135.582,1.578.182-.1,1.6-1.553,1.868-1.844C4147.713,11403.383,4146.84,11402.584,4146.039,11402.973Zm-22.632.012c-1.213.643.449,1.855.716,2.121.376.363,1.334,1.748,2.123,1.336,1.116-.607-.424-1.8-.764-2.123C4125.081,11403.93,4124.16,11402.584,4123.407,11402.984Zm24.015,12.527a8.77,8.77,0,0,0,3.335.268c1.565-.084,1.456-1.588-.011-1.588C4147.943,11414.191,4147.24,11413.863,4147.422,11415.512Zm-13.135-15.547.084,2.594a1.876,1.876,0,0,0,1.359,0,11.078,11.078,0,0,0-.037-4.2C4134.226,11397.938,4134.287,11398.582,4134.287,11399.965Zm-11.571,15.561.037-1.08a9.7,9.7,0,0,0-3.36-.254c-1.467,0-1.5,1.441-.194,1.588A8.581,8.581,0,0,0,4122.716,11415.525Zm11.341,6.791h2.05l-.013-5.932-2.037.014Zm-2.28-7.156,6.307.025-1.795-4.137-2.753-.037Zm4.463,11.365c3.966-2.463,7.107-2.4,12.189-2.244,1.419.049,1.613.279,2.971-1.031.376-.363.134-.035.4-.5-3.1.074-6.452-.193-9.508.135C4139.478,11423.191,4136.955,11424.477,4136.239,11426.525Zm-12.249-4.912c3.65-.035,6.452.375,9.06,1.9-.473-1.334-2.692-3.371-3.93-4.064a16.633,16.633,0,0,0-6.5-1.672Zm13.231,1.832a20.657,20.657,0,0,1,4-1.469c5.058-1.02,4.839,1.492,6.367-4.148C4143.662,11417.793,4138.726,11419.928,4137.222,11423.445Zm-19.976,2.1a24.587,24.587,0,0,0,3.117,2.1c1.237.764,1.893,1.627,3.663,1.627,3.263,0,7.277.193,10.443-.049C4132.371,11424.293,4122.1,11425.811,4117.246,11425.543Zm18.436,3.676c3.068.266,7.229.049,10.43.049a2.529,2.529,0,0,0,2.135-.633c1.237-.873,3.894-2.34,4.645-3.092C4147.955,11425.811,4137.8,11424.293,4135.682,11429.219Z" transform="translate(-4106.069 -11386.063)" fill="#fff" fill-rule="evenodd"/>
  </g>
</svg>
