<svg xmlns="http://www.w3.org/2000/svg" width="160" height="160" viewBox="0 0 160 160">
  <g id="M" transform="translate(7474 -2496)">
    <g id="Group_16808" data-name="Group 16808" transform="translate(36.412 183.118)">
      <path id="path3145" d="M-228.719-144.758h-30.158a2.25,2.25,0,0,1-2.25-2.25v-24.284a2.25,2.25,0,0,1,2.25-2.25h30.158a2.25,2.25,0,0,1,2.25,2.25v24.284a2.25,2.25,0,0,1-2.25,2.25m-32.409,30.569v-12.874a2.25,2.25,0,0,1,2.25-2.25h30.158a2.25,2.25,0,0,1,2.25,2.25V-105.2a2.251,2.251,0,0,0,.561,1.487l11.531,13.1a2.25,2.25,0,0,0,3.939-1.487v-79.194a2.25,2.25,0,0,1,2.25-2.25h15.766a2.25,2.25,0,0,0,2.25-2.25v-10.944a2.25,2.25,0,0,0-2.25-2.25H-296.35a2.25,2.25,0,0,0-2.25,2.25v10.944a2.25,2.25,0,0,0,2.25,2.25h17.235a2.25,2.25,0,0,1,2.25,2.25v24.284a2.25,2.25,0,0,1-2.25,2.25h-9.615a2.251,2.251,0,0,0-1.9,3.456,116.023,116.023,0,0,0,11.112,14.849,116.042,116.042,0,0,0,14.735,14.021,2.251,2.251,0,0,0,3.657-1.757" transform="translate(-7186.026 2532.297)" fill="#6e61b6"/>
      <path id="path3149" d="M-38.928,0h-9.644a2.25,2.25,0,0,0-2.25,2.25V26.534a2.25,2.25,0,0,0,2.25,2.25h9.644a2.25,2.25,0,0,1-2.25-2.25V2.25A2.25,2.25,0,0,1-38.928,0" transform="translate(-7405.975 2358.755)" fill="#6354b1"/>
      <path id="path3153" d="M0-7.366V2.152C2.057,4.032,4.066,5.735,5.987,7.266A2.251,2.251,0,0,0,9.644,5.509V-7.366a2.251,2.251,0,0,1,2.25-2.25H2.25A2.251,2.251,0,0,0,0-7.366" transform="translate(-7456.798 2412.6)" fill="#6354b1"/>
      <path id="path3157" d="M0-7.366v74.2l5.7,6.48a2.25,2.25,0,0,0,3.939-1.487V-7.366a2.251,2.251,0,0,1,2.25-2.25H2.25A2.251,2.251,0,0,0,0-7.366" transform="translate(-7406.107 2368.371)" fill="#6354b1"/>
      <path id="path3161" d="M-31.563,0h-9.644a2.25,2.25,0,0,1,2.25,2.25V13.194a2.25,2.25,0,0,1-2.25,2.25h9.644a2.25,2.25,0,0,0,2.25-2.25V2.25A2.25,2.25,0,0,0-31.563,0" transform="translate(-7346.884 2343.311)" fill="#6354b1"/>
    </g>
    <path id="Subtraction_1" data-name="Subtraction 1" d="M150,160H10A10.011,10.011,0,0,1,0,150V10A10.011,10.011,0,0,1,10,0H150a10.011,10.011,0,0,1,10,10V150A10.011,10.011,0,0,1,150,160ZM11,9a2,2,0,0,0-2,2V149a2,2,0,0,0,2,2H149a2,2,0,0,0,2-2V11a2,2,0,0,0-2-2Z" transform="translate(-7474 2496)" fill="#6e61b6"/>
  </g>
</svg>
