<svg xmlns="http://www.w3.org/2000/svg" width="291.505" height="331.879" viewBox="0 0 291.505 331.879">
  <g id="Chandrapur_Dist" data-name="Chandrapur Dist" transform="translate(-429.994 -416.72)">
    <path id="_104_Warora" data-name="104 Warora" d="M2106.388,824.324l-.6-.023-.952-.5-.663-.413-.391-.362-.1-.381.023-.368.1-.454.527-1.149.275-.506.046-.317-.2-.4-.16-.424-.15-.465-.171-.617-.149-.6-.035-.4.15-.357.368-.432.331-.38.4-.413.221-.465.368-.787.044-.6-.11-.38-.4-.475-.46-.421-1.172-.5-1.641-.754-.893-.331-.816-.289-.323-.4-.162-.515.081-.477.138-.385-.172-.532-.435-.475-.378-.331-.47-.2-.6-.237-.711-.357-.725-.5-.552-.532-.092-.368-.171-2.057.111-.731v-.52l-.184-.408-.689-.4-.344-.034-.678-.034-.607.045-.847.17-1.333.708-.758.295-.62.221-.974.07-.987.056-1.079-.056-2.065-.346-1.459-.511-1.226-.248-1.31-.11-.953.074-.975.125-1.458.4-1.157.347-.781.1-2.594.11-1.136.13-.758-.074-.689-.143-.366-.331-.4-.516-.208-.578-.331-1.1-.047-.369.047-.4.252-.372.414-.391.308-.323.39-.407.541-.682.16-.237.023-.552-.047-.427-.091-.278-.093-.246-.321-.252-.506-.442-1.021-.706-.712-1.1-.562-.906-1.617-2.03.22-.507.38-.994.307-.558.574-.623,1.011-.722,1.719-.831,1.539-.413.76-.284.641-.314.493-.523.221-.48.11-.42.071-.331-.116-1.325-.127-.945-.207-.487-.389-.518-.562-.507-.723-.968-.441-.662-.377-.418-.071-.424.094-.544.781-1.156.309-.638.229-.455.012-.518-.161-.406-.331-.278-.461-.455-.229-.361-.183-.973-.1-.894.045-.68-.24-1.516-.442-1.678.011-.8.046-1.229.068-.4.15-.3.241-.13.276.1.331-.617.322-.209.414-.036h.425l.4-.042.539-.163.6.005.748.048.994-.111,1.251-.486.472-.428.562-.429.221-.552.172-.271.092-.241-.034-.257-.563-.24-.442-.193-.441-.12-.368-.1-.138-.278-.194-.239-.193-.263-.254-.288-1.147-.392-.242-.2-.172-.325.11-.213.288-.137.149-.017.321-.011.221-.062.208-.13.1-.294.047-.371.081-.341.149-.23.262-.167.321-.11.47.11.345.221.195.172.208.331.24.365.357.382.275.182.379.084.162.157v.178l-.025.34.046.278.1.214.149.189.252.078.252.1.263-.032.322-.141,1-.428.253-.194.413-.137.538-.042.655-.136.713-.13.47-.147.607-.194.414-.126.653-.209.332-.2.756-.38.884-.442.441-.459.311-.346.388-.241.441-.168.8.08.391.371.505.413.414.221.552.221.651.158.471-.047h.367l.552-.057h.529l.435.074.493.151.39.07.322-.037.344-.017.654.048.609.214.837.167.71.011.793.209.253-.014.3-.08.323-.276.221-.065.092-.03.412.1.308.172.4.094.288-.022.262-.188.173-.293.221-.679.208-.351.425-.354.585-.428.3-.456.1-.382.135-.6.184-.508.5-.4.287-.319.1-.252.207-.622-.275-1.166v-.613l.057-.2.264-.178.574.063.63.015.586.172.47.057.585.038.654-.172.183-.147.414-.283.23-.161.11-.2.056-.355.081-.188.264-.068.275.151.309.319.31.462.53.518.16.182.161.246.3.476.1.3.149.5.137.231.242.161.241.078.229-.088.22-.272.126-.209.193-.277.208-.221.367-.137.287-.283.229-.2.137-.346.034-.387.15-1.073.183-.365.3-.365.849-.915.08-.435.047-.642.081-.231.4-.136.274-.12.208-.084.32-.125.161-.351.173-.366.366-.511.15-.12.276-.027.436.089.459.131.663.163.483.094.344.125.208.235.111.245.251.378.6.11.309-.089.127-.221.287-.1h.39l.264.053.056.188.035.331.16.151.4.063.057.168-.032.36-.06.356-.056.35.056.246.082.094.23.01.344.084.229.209.206.3.426-.067.286-.094.491-.241.655-.161,1-.074.793.11.686.171.816.246.975.273.6.271,1.446.313.689.084.8-.068.506.016.618.053.574.194.552.273.1.308.092.4.161.407.208.1.355.246.31.173.518.073.366.025.644.042.345.052.221.178.441.483.24.221.368-.032.851-.543,1.686-.873.7-.141.056-.235-.012-.442-.1-.424.093-.413.265-.414.344-.715.584-.586.425-.8-.023-.743.079-.7.184-.706.057-.261.184-.11.332-.073.643-.036.993-.01.285.036.346.067.331.146.221.268.321.3.39.23.275.2.242.815.5.872.264.515v.374l.081.261-.15.432-.138.278-.057.231.126.369.458.494.827,1.5,1.412,1.026.827.492.091.465-.012.692-.023.736.17.656.184.613.23.552.046.509.221.591.413.565.608.566,1.252.4,1.124.362.929.238.966.193.835.2.817.181.424-.078.111-.552-.137-.8.012-.783.057-.782.573.067.345.125.4-.532.23.532.044.566.643.522.976.374.528-.1.723-.374-.033-.42-.265-.363-.11-.384.23-.453.388-.227.3-.273.058-.431-.1-.953.2-1.435.172-.51-.057-.511-.252-.271.413-.7.242-.919-.2-.669-.183-.442-.012-.454.253-.543.311-.544,1.065-1.585.7-1.111.493-.906.687-.783,1.056-.94.3-.578-.194-.431-.07-.362.425-.273.528.09.15.465-.011.662.138,1.03.162.669.263.477.344-.068.263-.442.127-.566.24-.532.552-.11.423-.011.668-.137.756-.17.379-.136.322-.318.173-.374.184-.453.528-.9.413-.431.62-.068.378.148.136.331-.091.532-.309.432-.276.576V741.1l.414.691.435.488.034.994-.858.6-.724.624-.631.552-.183.612.355.635.07.679-.081.692.081,2.086-.425.794-.011,1.076.07,1.485-.2,2.777.092,1.632.139.941.654.442,1.325.646.229.341.357,1.813.458,1.6.631,1.563.332,1.348.494,1.632.391,1.575.367,1.711.275,1.2-.3.635-.366.646-.265.577-.263.51-.736.827-2.468.713-1.309.488-.861.181h-1.02l-1.057-.081-.85-.033-1.228-.137-1.766-.11-.86.1-.993.2-.436.2-1.173.691.255-2.492-1.021.284-.862-.306-.585-.477-.62-.295-.676-.045-1.675,1.224-1.093.045-.676.023-.365.284-.221.442.183.34.221.295.057.476.057.317.173.4.448.552.068.521-.161.362h-.6l-.607-.034-.734-.08-.941-.136h-.713l-.585.261-.252.239-.85,1.836-.47.782-.368.442-.034.532.276.3.677.662-.011,1.3-1.2.124-.941-.044-.482.044-.722-.135-.633-.237-.47.158-.47.339-.491.883-.265.351-.529,1.394v.4l.323.373.046.532-.357.454-.38.568-.32.431-.392.418-.872.692-.516.465-1.033.4-.662.193-.321.544.276.476-.138.465-.781.11-.515-.331-.412-.271-.552-.552-.379-.589-.481-.331-.61-.1-.586-.25-.572-.713-.251-.509-.6-.669-.54-.011-.441.17-.368.249-.663.182-.837-.1-.414.3-.138.476-.173.453-.642.975-.3.476-.275.552-.4.521-.389.442-.331.261-1.229.08-.344.94-.183.5.275.221.528-.011.518.124.286.271.11.662-.125.552-.229.635-.425.374-1.425-.17-.905.181-.63.158-.633.532-.263.453-.436,3.117-.38.93-.389.465-.552.429-.127.385-.08.782-.069.521-.173.488-.355.182-1.044.091-.024.454.011.68-.275.464-.641.306-.712.331-.609.092-.655-.182-.425.148-.54.431-.4.521-.343.228-.265.011-.662-.1-.722.9-.884-.351-.468-.34-.736-.057-.61.181-.722.26-.471.238-.286.7-.161.76-.536,2.005-.111.838.01,1.462.518.363.354.716.033.656-.229.552-.456.9-.392.67-.287,1.462-.413.374-.517.11-.575.42-.16.76-.111.509-.2.442-.847.045-.69.056-.734-.169-.221-.374-.254-.748-.148-.782.01-.521-.2-.5-.561-.331-.678.023-1.642-.11-.962-.251-.663-.044-.62-.137-.562.023-.253.158-.149.341-.034.351-.035.669" transform="translate(-1635.428 -259.388)" fill="#5a58a3" stroke="#fff" stroke-linecap="square" stroke-linejoin="bevel" stroke-width="1" fill-rule="evenodd"/>
    <path id="_97_Chimur" data-name="97 Chimur" d="M2174.245,782.739l.736-.827.263-.51.265-.577.366-.646.3-.635-.276-1.2-.366-1.71-.391-1.576-.495-1.632-.332-1.348-.63-1.564-.461-1.6-.353-1.813-.232-.341-1.317-.646-.655-.442-.137-.94-.094-1.632.2-2.777-.069-1.485.011-1.077.425-.793-.081-2.086.081-.691-.07-.68-.355-.635.185-.612.631-.552.722-.624.861-.6-.035-.994-.436-.487-.416-.691v-1.382l.278-.578.308-.432.093-.532-.137-.331-.379-.148-.619.068-.414.431-.529.9-.183.454-.172.374-.322.318-.38.135-.759.17-.662.136-.424.012-.552.11-.239.533-.127.566-.265.442-.344.069-.265-.476-.16-.669-.138-1.03.011-.663-.149-.465-.527-.091-.425.273.069.363.2.429-.3.578-1.057.94-.689.783-.493.906-.7,1.111-1.067,1.585-.312.544-.251.544.009.453.184.442.2.669-.242.917-.413.7.251.272.059.511-.173.509-.195,1.435.1.953-.057.431-.3.272-.391.227-.228.453.11.385.263.362.034.42-.723.374-.526.1-.978-.374-.644-.522-.045-.566-.23-.532-.4.532-.344-.125-.574-.068-.058.782-.011.782.137.8-.11.552-.425.079-.816-.181-.835-.2-.964-.193-.931-.237-1.125-.363-1.25-.4-.606-.567-.414-.565-.221-.59-.046-.51-.23-.552-.184-.613-.171-.656.023-.736.012-.692-.092-.465-.825-.492-1.414-1.026-.827-1.5-.458-.494-.127-.368.057-.232.14-.278.15-.432-.082-.261v-.374l-.265-.516-.5-.872-.24-.815.16-.159.125-.45.048-1.386.208-.293.25-.136.735-.791.228-.518.161-.862.253-1.25.194-1.244.287-1.129.127-.617.1-.449.663-.256.183-.026.32-.063.172-.01.441.147.321.162.276.188.221.048.243-.048.17-.2.163-.288.056-.252.033-.3.035-.821.069-.806.1-.532.1-.247.23-.13.137-.182.275-.552.607-1.093.458-.842.608-.552.631-.48.368-.413.7-.331.449-.125.561.036.459.094.265-.063.161-.283.321-.078.39-.094.208-.11.11-.288.023-.256.162-.266.447-.331.275-.376.01-.863.023-.718.069-.78.16-.281.242-.331.4-.4.221-.43.127-.533.023-.413v-.476l.024-.679-.173-.627-.149-1.589.713-.419.242-.051.4.026.126.023h.184l.206.05.11.015.1-.034.127-.039.15-.036.194-.012.137.012.068-.063.11-.088.5-.178.2-.043.182-.046.22-.014.208-.01.194-.062.207-.088.515-.063.311-.04.241-.088.413-.138.654-.308.149-.17.229-.082.2.057.4.191.526.313.138.023.221.011.3-.074.162-.029h.205l.287.041.138.094.3.237.253.11.1.043h.125l.162-.035.16-.034.162-.084.137-.1.11-.1.14-.063.148-.017.345.029.194-.031.23-.046.229-.066.137-.11.093-.066.149-.1.126-.035.15.026.082.118.079.136.127.145.11.159.11.007.206-.07.162-.057.149-.047.221-.01.208.031.24.057.321-.027.183-.042.265-.131.827-.552.6-.29.4-.13.46-.039.265.016.274.067.149.264.045.269.111.206.136.133.149.12.2.063.4.088.494.11.772.1.23.086.111.135.1.221.161.1.4.1.587.162.5.2.826.045.506-.016.208-.076.033-.183-.022-.359.331-.491.563-.74.38-.415.355-.264.331-.168.126-.21.045-.34.046-.722.093-.509.089-.227.095-.317.009-.9.023-.8.183-.742.013-.656.111-.293.093-.262.173-.276.389-.719.159-.191.208-.277.137-.331.2-.413.172-.188.126-.155.035-.221.093-.442.194-.5.1-.141.1-.138.138-.1.208-.077.275-.035.138-.18.4-.423.125-.188.092-.156v-.153l.046-.241-.023-.79-.022-.221-.035-.207-.206-.036-.221.04-.221.084-.172.045-.195-.063-.139-.172-.1-.221.068-.168.162-.311.16-.321.242-.2.391-.168.285-.323.772-.654.287-.259.264-.2.195-.269.195-.518.11-.267.081-.293.149-.409.036-.256-.036-.269-.194-.17-.184-.136-.331-.194-.322-.178-.356-.162-.173-.063-.111-.117-.092-.213-.15-.354-.148-.235.01-.331.094-.36.16-.511.091-.2.067-.168.184-.052.208-.029h.287l.392-.039.552.12.068.11.068.3h.185l.39-.126.858-.12.277-.081.221-.11.287-.093.663.011.229-.1.161-.2.046-.065.058-.117.082-.2-.057-.068.009-.11.025-.053.1-.081.092-.073.056.005h.1l.045-.073-.022-.117.057-.089.1-.081.081-.079.221-.011.413.055.4.005.277-.07.221-.1.137.074.174.417.31.057.377.053.816.11.229.11.192.2.15.346.125.23.046.419-.092.5-.229.6-.011.684.081.35.067.2.127.283.331.147.357.057.54.157.54.3.288.4.045.088.11.057.221.067.1.011.171-.079.161-.031.111.194.265.01.172-.07.172-.088.139-.094.206-.078.2-.13.288-.152.251.058.332.077.184-.046.252-.031.208-.022.205.007.2.11.193.073.149.063.058-.183.1-.084.286.063.425.345.068-.235.184-.11.221.01.242.067.185-.027.161-.126.092-.241.034-.209.193-.026.323-.146.469-.042.342.01.264.131.3.245.264.294.252.141.253.052.184-.146.137-.319.552-.308.414-.067.365-.178.171-.389.414-.293.552-.172.713-.267.2-.067.379-.1.561-.376.7-.442.575-.429.655-.528.712-.309.413-.231.331-.25.332-.45.434-.507.494-1.292.093-.627.229-.235.472-.168.653-.231.345-.182.264-.308.239-.2.184-.331.173-.423.287-.481.586-.826.148-.331.127-.393.023-.423.147-.247.345-.067.253-.036.391.163.221.237.092.169.08.24.068.1.11.018.148.019.276.033.436.071.323.136.344.1.171.118.288.2.139.2.137.032.068-.094v-.38l.068-.193.244-.194.032-.176-.011-.143-.069-.119-.068-.176-.111-.193.013-.133.08-.152.221-.081.07.059.08.035.1-.035.136.041.322.067.308.062.288.062.22.025.16.031.033-.185.3.057.036-.179.449-.074-.014-.145.046-.364.184.021v-.277l.024-.019v-.3l.378.053.346.092.552.142.221.051.436.083.221.017-.068.1.047.1.091.052.092.005.277-.044.081.044.034.064-.011.127.3.11.161.117-.069.205-.068.158.034.06v.071l.1-.061.16-.148.046.045h.069l-.046.171.034.062.059-.025.046-.009.137.085.034-.016h.08l.025.067h-.139v.068l.068.019.1-.05.014.023.021.152.111.125.136.095.035.021h.078l.068.1.332-.091.059-.04.252-.1h.437l.239-.04.209-.088.148-.036.184.032.092.11.264.033.057-.128.185.054.022-.05.091-.007.23.056.194.044.069.028.034.091.423-.022v-.152l-.046-.034.024-.083.09.02.16.07.11-.031.148-.086.139.019.035.095.034.168.608.071.413.06.127-.041.126.034h.149l.458-.3.424-.181h.722l.023.447.035.331.011.283.059.015v.324l-.045.244.045.246v.088l.021.2-.021.2.11.11.046.071.012.124.1.013.206-.065.046-.11.1-.086.368-.009.287.056.229.009.331.039.251.019.47.174.207.055.7.2.263.056.355.247.622.365v.1l.16.035.311.21.274.163-.022.053-.127.673-.274.824.058,1.459-.379,1.782.263.761.357.457.468.221.441.24.39.238.609.761.883.852.54.339.663.344.748.451.388.3.669.331.251.324.138.586-.022.465-.15.409-.722-.11-.9-.221-1.043-.416-.356-.513-.456-.641-.312-.24.011.415.11.442-.276.31-.458.367-.413.275-.31.365-.138.9-.126,1.676-.481.189-.655.11-.688.176-.527-.07-.495-.465-.231.267-.057.442.082.824.137.394.229.831.243.677-.505.261-.792.316-1.193.339-.975.883-1.251,1.473-1.744,1.839-.747.458-.507.211-.927,1.591-.332.826-.381,1.4-1.044,1.1-.506.494-.136.487.17.261.576.275.538.359.955.6.872.81.586.825-.6.394-.793.458-1.044,1.248-2.293,1.627-.322.352-.253.621-.345.944.332.817.633.6.735.552.6.641.574.9.506.516.377.324.276.415-.11.3-.4.247-.331.071-.495.057-.25.041-.221.346v.352l.221.4.321.339.126.655-.253.81-.517,1.092-.264.839.722.331,1.067.064,1.7.021.378.211.091,1.733.023,1.26.287,1.016.2.936.424.528.988,1.036.9,1.944.458.472-.034.486-.149.522-.323.423-.376.19-.6.014-.3.883-.1.431.1.528-.012.8-.242,1.121-.183.19-.505.422-.3.4-.69.852-.229,1.3.126.479.1.57-.181.7-.11.4-.563.994-.552,1.373-.252.732-.379.382-.332.38-.206-.281-.058-.424-.346-.254-.63-.1-.527.156-.221.442-.709.12-3.626-.077-2.208.085-.066,2.049.138.442.3.38-.221.459-.355.3.469.388.576.331.111.41.344.867.285.662.15.606.481.577-.023.494-.079.359.045.818.126.8.185,1.014v.741l.208.789.251.552.2.494.221.367.266.442.208.338.206.507.07.442-.059.466-.356.415-.377.134-.31-.1-.39-.38-.057-1.113-.1-.535-.184-.458-.38-.415-.755-.479-.745-.381-1.481-1.1-.8-.428-1.193-.479-.6-.288-.493-.283-.414.072-.358.288-.01.415.207.283v.373l-.39.457.332.773.4.683.435.494.495.508.574.458-.035.43.125.388.2.317.046.366-.139.373-.583-.11-.713-.1-.442.11-.505.241-.354.471-.436.754-.827,1.4-.221.711-.024.528.011.552-.022.874-.342.873-.151.9-.1.824-.045.442-.276.246-.3-.035-.39-.3-.311-.276-.435-.176-.424.126-.414.164-.493.2-.441.189-.4.016-.345-.346-.441-.606.355-.465.137-.367-.056-.436-.746-.007-1.791.013-1.755.221-2.96.022-1.032.162-.85.253-4.143.07-2.343-.11-1.087-.007-.772.346-.576.169-.792-.071-.663-.11-.644.169-.773.169-1.39-.034-.662-.442-.442-.543-.642-.05-.437.24-.918-.07-1.275-.283-1.526-.148h-1.39l-1.777.042-.663-.008-1.846.063-1.667-.013-.985.007-.713.043-1.148-.049-.711-.1-.424-.253-.322-.552-.031-.711.221-.662.252-.635.221-.973-.033-1.113-.32-.74-.442-1.26-.528-.763" transform="translate(-1624.282 -266.601)" fill="#5a58a3" stroke="#fff" stroke-linecap="square" stroke-linejoin="bevel" stroke-width="1" fill-rule="evenodd"/>
    <path id="_100_Nagbhid" data-name="100 Nagbhid" d="M2258.243,705.076l.151.269.32.258.355.184.3.24.619.529.425.416.151.151.584.078.425-.042.221-.111.424-.773.368-.033.286-.087-.068-.242v-.43l-.047-.464-.6-.346V704.4l.184-.259-.024-.254-.171-.649-.16-.368-.221-.247-.195-.121-.1-.285.057-.214-.266-.629-.124-.139-.2-.367-.16-.144-.07-.192-.089-.471.125-.639.127-.609.3-.074.6-.16.441-.187.276-.188.908-1.062.458-.376.471-.351.46-.293.354-.357-.058-.331.08-.166.461.024.492-.016.839.3.562-.053.331.141,1.09.209.494.146.4-.066.356.075.367-.11.426.093.195.012.3-.269.238-.12.369-.127.85-.159.413-.054.413-.04.221-.123.369-.087.354.043.515-.13-.093.321-.055.2.722.237.815.221.07.021.1.2-.22.419L2277,697l.459.7.905.753-.023,2,.034.417.173.408.38.512.8.418.955.491.5.48,1.147.367.883.189.839-.094.561.021.642.523-.057.449-.331.111-.388.136-.264.606.012,1.3.331.4.618.409.458.45.38.442.442.71.171.838-.069.575-.483.544-.482.241-.773.021h-1.387l-1.23.252-.825.331.127.617.4.869.552,1.338v1.016l-.506,1.181-.894,1.276-.081,1.286-.01,1.6-1.012,1.454-1.011,1.934-.24,1.192-.162.513-.3.449.331.281,2.1-.189.1.858-.069.3-.253.293.046.47.585.481.629.419.529.46.632.42.757.168.126.512-.792,1.181-.332.459-.207.67.552.69.171.331.253.47.11.607-.265.931-1.628,1.5-.4.533-.23.689-.057.638-.173.449-.367-.062-.448-.315-.6-.491-.773-.147-1.02-.021-.976-.053-1.08-.125-.63-.47-.447-.662-.414-.283-.46.3-.441.627-.9,1.474-.505,1.046-.274.627-.242.785.266.3.848.158.757-.1.758-.3.792-.189.916.11.483.388.39.291.837.565.563.523-.781,1.3-.527.607-.255.773-.057.984.264.46.679-.2.663-.157.321.46-.376,1.674-.139,1.047-.11.711.24.837.941.157.048.883.149.252.319.262.663.408.459.606.138.889-.023.491.138.627.38.221.4.252.468.45.207.417-.15.68-.873,1.307-2.549,2.97-1.2,1.229-.735.221-.517.4-.552.5-.629.11-.252-.418-.171-.926-.483-.386-1.044-.2-.644-.127-.631.11-.455.522-.381.552-.344.356-.724.116-.148.136.058.314.276.157.689.325.149.564-.081.576-.264.491-.654.931-.908.973-.469.669-.322.618-.069.722.2.722-.539,1.444-.149.628.242.46.4.523.493.209.63.188.587.1.045.471-.838.156-.331.1-.158.331.044.638.528.46-.08.6-.366.01-.573-.031-.679.146-.4.178-.62.732-.792,1.162-1.158,1.088-.195.451.069.512.441.847.068.574-.184.492-.609.271-.287-.126-.068-.442-.471-.084-.689-.11h-.962l-.713-.273-.056-1.223-.242-.491-.758-1.225-.358-.639-.377-.836-.242-.648-.389-.331-1.446-.442-1.125-.293-.963.638-1.721.367-.62.01-.812-.178-.138-.325.045-.5-.32-.617-.471.1-.506.2h-.722l-.172-.346-.126-.576-.229-.442-.552-.49-.585-.46-1.424-1.413-1.021.116-1.1-.011-.3.47.111.669.2.68.251.386.21.48.295.5.186.648-.276.357-.861-.137-.448-.365-.655-.357-2.4-.407-1.767-.711-1.092-.283-.229-.46-.884-.576-.688-.481-.552-.47-.689-.607-.713-.533-.871-.188h-.94l-.369-.146-.184-.3-.229-.616-.323-.533-.574-.315-.584-.331-.53-.543-.618-.522-.562-.711-.539-.565-.563-.094-.23.628.15.313.276.221.068.523-.458.617-.356.357-.7.376-.194.02-.434-.221-.563-.178-.461.221-.459.46-.458.449-.631.449-.7.073-.815-.429-.745-.178-.793-.189-.309-.732.067-1.716.331-.662.424-.449.588-.324.674-.23,1.07-.388,1.077-.692.331-.38.378-.382.253-.732.552-1.373.563-.994.11-.4.183-.7-.1-.571-.125-.478.229-1.3.688-.852.3-.4.5-.423.184-.19.241-1.121.013-.8-.1-.526.1-.432.3-.883.6-.014.381-.19.319-.423.15-.522.035-.486-.461-.471-.893-1.944-.987-1.037-.425-.528-.195-.936-.287-1.016-.023-1.26-.093-1.733-.379-.211-1.7-.021-1.069-.064-.72-.331.262-.839.516-1.091.254-.81-.127-.655-.321-.339-.221-.4v-.352l.221-.346.253-.041.492-.057.331-.071.4-.247.111-.3-.276-.415-.379-.324-.5-.516-.577-.9-.595-.642-.734-.552-.632-.6-.331-.817.344-.945.252-.619.321-.352,2.293-1.626,1.046-1.248.793-.457.594-.394-.582-.825-.873-.81-.952-.606-.541-.359-.574-.275-.171-.26.137-.486.506-.494,1.044-1.1.381-1.4.331-.825.931-1.592.5-.211.747-.458,1.745-1.839,1.249-1.473.975-.883,1.193-.339.793-.317.5-.261-.24-.678-.231-.831-.137-.394-.08-.824.058-.442.229-.268.492.465.528.07.689-.176.656-.11.48-.19.127-1.676.135-.9.312-.366.414-.276.459-.367.274-.31-.111-.442-.01-.415.31.24.459.64.355.515,1.045.416.9.221.724.11.149-.409.022-.465-.137-.586-.254-.324-.663-.331-.39-.295-.748-.451-.663-.346-.539-.339-.883-.852-.61-.761-.39-.239-.435-.24-.468-.221-.357-.458-.264-.761.379-1.782-.056-1.459.275-.824.125-.673.424.072.057-.032.435.011h.23l.149-.062.253-.012.723.045.413.03.311-.065.322-.2.3-.165.243-.178.194-.087.127-.076.137-.031.3-.126.06-.151.149-.119.078-.168.185.212.23.261.39.286.436.254.16.48.111.479.352.567.2.261.023.137-.023.131-.11.2.091.572.242.442.252.353.137.734.441.081.631.1.321.1.231-.078.4-.079h.551l.263.023.232.085.4.221.365-.014.474.042.321.068.321-.016.632.073.905.168.773.429.494.2.331.341.552.278.7.23.633-.023.331.407.056.519-.091.315.011.442.127.135.021.11v.235l-.171.773.171.189.184.164.574.458.4.277.846.343.2.038.608-.24.23.055.221.036.286.055.392-.054.221.041.15.036.31.164.1.1" transform="translate(-1612.867 -265.847)" fill="#44428f" stroke="#fff" stroke-linecap="square" stroke-linejoin="bevel" stroke-width="1" fill-rule="evenodd"/>
    <path id="_95_Brahmapuri" data-name="95 Brahmapuri" d="M2263.676,778.266l-.046-.471-.585-.1-.631-.189-.495-.209-.4-.523-.24-.46.149-.627.538-1.444-.2-.722.07-.722.321-.617.471-.669.906-.973.654-.93.266-.491.081-.576-.15-.564-.689-.325-.275-.157-.056-.313.149-.136.723-.11.344-.356.377-.552.459-.522.633-.11.643.127,1.046.2.481.386.171.926.254.418.63-.11.552-.5.517-.4.735-.221,1.2-1.229,2.547-2.971.873-1.306.15-.681-.208-.417-.471-.449-.4-.251-.378-.221-.138-.627.023-.491-.139-.889-.458-.606-.662-.408-.323-.262-.149-.252-.046-.883-.942-.158-.238-.837.111-.712.135-1.047.379-1.673-.321-.46-.662.156-.677.2-.264-.46.056-.984.253-.773.529-.607.779-1.3-.56-.523-.837-.564-.392-.293-.482-.388-.92-.11-.791.19-.756.3-.757.1-.85-.157-.264-.3.242-.785.274-.627.506-1.046.9-1.475.448-.628.459-.3.412.283.442.662.633.47,1.078.125.977.052,1.019.021.773.147.6.491.447.315.368.062.172-.449.056-.638.23-.69.4-.533,1.631-1.5.263-.931-.111-.607-.253-.471-.172-.331-.552-.69.207-.67.331-.459.794-1.182-.127-.511-.757-.168-.633-.419-.528-.46-.631-.418-.585-.481-.046-.47.254-.293.069-.3-.1-.857-2.1.188-.331-.283.3-.449.16-.512.241-1.192,1.011-1.934,1.008-1.454.011-1.6.081-1.286.895-1.275.506-1.182V716.1l-.552-1.338-.4-.869-.127-.617.826-.331,1.23-.251h1.386l.773-.021.481-.242.484-.544.069-.574-.172-.838-.441-.71-.379-.442-.458-.45-.621-.409-.332-.4-.01-1.3.264-.606.391-.137.331-.11.057-.449-.641-.523-.563-.021-.837.095-.883-.189-1.149-.367-.5-.481-.954-.492-.8-.417-.38-.513-.173-.408-.033-.417.021-2-.907-.753-.458-.7-.448-.442.221-.42-.1-.2-.069-.02-.815-.221-.722-.237.056-.2.093-.321.24-.636.081-.173.287-.442.138-.539.023-.463.081-.568v-.344l.068-.252.312-.255.149-.249-.058-.143.092-.061.08-.077.16-.036.137-.029.069-.263-.011-.274.069-.173.012-.345.092-.491-.184.084-.172-.08-.264-.046-.137.018-.11-.052-.229-.187-.024-.052-.011-.149.046-.2-.023-.062-.137-.039-.31.131.011-.057-.023-.1.046-.317.126-.464-.093-.025.08-.346.036-.152.079-.359.07-.2.057-.148.111-.24.221-.552.024-.139.1-.362.126-.442.022-.163.1-.521.057-.275.092-.095.138-.519.47.053.919.179,1.389.48.033.019.392.159,1.656,1.111.6.448,1.045.733,1.056.719.127.761.493,1.114.562,1.695,1.616,1.656.656.409.355.036,3.236,1.312,1.4.565.229.11.276.2.126.28,1.708.994.828.489.127-.242.056.03,1.4.523,1.09.021,1.148-.146,1.388-.346,1.837-.6.357-.214,1.605-.267,1.666-.346.441-.093,1.6.01.448.178.471.319.274.231.458.381,1.022.979,1.113.7.38.417.552.116.425.183.414.11.205.059.644.1,1.079.277,1.124.379,1.493.767.662.691.343,1.465.332,2.175.585,2.659.356,2.364.033,2.532-.161,4.017-.171,4.56-1.423,4.958-.872,1.423-.838,1.716-.046,1.339.482,1.234,1.448,1.087,2.065.712.93.648.791.984.414,1.15-.082,1.674-.64,4.5L2317,745.06v1.9l-.356,2.133-.437,1.758-.563,4.08-.321,2.175-.288,2.008.161,2.448,1.033,1.255,1.877,1.317,1.355,1.546.941,2.175.469,2.049-.5,1.758-.4,1.1-.483,1.965.208,1.546.938,1.8,1.7,2.176.586,1.214.035.321.171,1.562-.207,1.656-1.446,1.673-1.687,1.527-2.136,2.318-.754,1.569-.356,2.656-.173,1.377-1.686-.75-1.445-.883-1.5-.126-1.169.586-1.274.773-1.136.419-.838.084-.585-.1-.838-.566-.252-.648-.356-1.149-.724-.586-.251.753-.221.711-.492.586-1.01.23-1.545-1.024-.608-.272-1.779-.858-2.146-.816-5.887-1.339-2.008-.377-1.5-.147-1.113.23-1.458.67-1.376.543-1.214.356-1.527.168-1.877-.147-2.4-.23-2.1-.442-1.458-1.57-2.327-2.871-1.656-2.709-2.1-2.76-1.755-2.416-1.069-1.182" transform="translate(-1606.794 -267.082)" fill="#44428f" stroke="#fff" stroke-linecap="square" stroke-linejoin="bevel" stroke-width="1" fill-rule="evenodd"/>
    <path id="_103_Sindewahi" data-name="103 Sindewahi" d="M2206.488,781.731l.448.606.342.346.4-.016.441-.189.494-.2.414-.163.424-.126.441.176.311.275.388.3.3.035.276-.247.046-.442.1-.824.148-.9.346-.873.022-.874-.012-.552.025-.528.221-.711.827-1.4.441-.754.354-.471.5-.24.441-.11.712.1.585.11.138-.372-.044-.368-.195-.317-.126-.387.034-.43-.575-.458-.495-.507-.436-.494-.4-.682-.331-.773.39-.457v-.373l-.208-.282.012-.415.355-.288.414-.071.493.283.6.288,1.193.479.8.429,1.482,1.1.746.381.757.478.378.415.185.458.1.535.057,1.113.39.38.311.1.378-.133.356-.415.057-.466-.069-.442-.206-.507-.207-.339-.262-.442-.221-.366-.194-.494-.253-.552-.207-.789v-.741l-.184-1.015-.126-.8-.046-.817.078-.359.024-.494-.482-.576-.149-.606-.286-.662-.345-.867-.11-.409-.574-.331-.472-.386.357-.3.221-.459-.3-.38-.137-.442.069-2.05,2.2-.085,3.626.078.713-.12.221-.442.528-.157.633.1.343.254.056.423.208.282-1.077.693-1.068.386-.677.231-.585.324-.425.449-.331.662-.069,1.716.309.732.791.189.747.178.813.429.7-.073.629-.451.458-.451.46-.46.459-.221.563.178.435.221.195-.021.7-.375.357-.355.459-.617-.068-.523-.276-.221-.149-.314.231-.627.561.094.542.564.562.712.622.521.525.543.585.331.574.315.323.533.23.616.183.3.368.146h.94l.873.188.712.534.688.607.552.47.688.481.883.576.23.46,1.09.283,1.766.711,2.4.407.655.356.441.366.862.137.275-.356-.183-.648-.3-.5-.208-.48-.251-.388-.2-.68-.1-.669.3-.47,1.1.01,1.023-.11,1.422,1.412.585.46.552.491.226.442.127.576.172.344h.724l.506-.2.469-.1.322.617-.046.5.137.323.815.178.621-.01,1.721-.367.963-.638,1.126.293,1.444.442.393.331.239.648.378.836.356.638.759,1.224.24.491.057,1.223.713.271h.963l.69.11.469.084.07.442.286.126.609-.272.184-.492-.069-.574-.442-.848-.068-.512.193-.449,1.159-1.087.793-1.161.617-.732.4-.178.676-.146.574.031.367-.01.081-.6-.526-.46-.046-.638.161-.331.331-.1.839-.156,1.066,1.181,1.756,2.416,2.1,2.76L2280,776.7l2.33,2.87,1.456,1.569,2.1.442,2.4.23,1.869.147,1.528-.167,1.215-.357,1.377-.543,1.458-.67,1.113-.23,1.5.147,2.007.375,5.887,1.339,2.146.815,1.779.858.609.272,1.546,1.026-.2.481-.138.669-.606.365-.518.073-.344.283-.608.386-.47.1-.773.073-.837-.24-.735.11-.252.868.081.816.148.764.275.773.345.806.426.376.517.111.492.166.442.418.125.6-.264.367-.2.323.126.3.139.648-.414.23-.8-.209-.732-.063-.872.4-1.315.109-1.056-.189-2.342-1.286-.938-.552-.725.189-.773.21-.572-.01-.827.585-.538.094-.148-.4-.111-.492.136-1.024-.15-.252-.4.387-.494.209-.15-.331.221-.711-.081-.627-.689-.564-.733.042-.344.47-.663,1.307-.322.607-.46.564,1.24.883-.011.26-.207.4v.251l.376.607.111.46.093.606-.242.389-.413.283-.356.449-.441-.032-.414-.272-.274.481-.092.858.552.67.5.5-.205.953-.287,1.151-.631.442-.5.168-.263.47-.367,1.318-1.366,1.15-.331.388-.183.585-.08.649-.38.974-.435.461-.953.544-.793-.11-.62-.386-1.409-1.319-.633.2-.493.331-.493.157-.309-.01-.794-.662-.584-.7-.39-.785v-.523l.424-.331.7-.094.655.084.6.231.284-.189-.091-1.507.046-2.876.138-1.089-.377.168-.392.409-.391.4-.322-.168-.32-.47-.483-.513-1.263-.386-.828-.084-1.111.331-1.676,1.779-.012.3.4.419.022.428-.435.272-.562.576-.162.784-.151.3-.389.021-.319-.127-.736-.543-.7-.177-1.08.052-1.4.074h-.8l-.642.094-.656.313-.3.449-.07.586-.263.3-.518.178-.2.47.186.883v.543l.275.649.39.282.468.074.425-.377.529-.345.263.324-.136.523-.035.784-.057.742-.391.764-.6.417-1.7.649-.872.241-.7.043-.584.146-.264.67-.139.711-.7.48-1.493-.4-.366-.2-.689-.23-.483.011-1.1,1.057-.459.867-.436-.147-.275-.816-.46-.189-.183.942-.654.773-.332-.021-.482-.585-.379-.483-1.353.754-1.961.669-.8.209-.919-.125-.839-.126-1.112.041-.23.46-.563.377-.9.419-.229.564.392.669.378.482.356.209.815-.02.861-.376.735.168-.277,1.025-.309,1.046-.425,1.214-.836,1.673-.621,1.214-1.032,1.276-.311-.178-.606-.681-.562-.544-.529.231-1.147.628-1.546-.273-1.545-.606-1.148-.481-2.18-.481-1.044.19-1.71.857-1.619.442-1.628.041-1.091-.442-1.813-.732-1.344-.481-1.089.1-.815,1.338-.747.9-.654.648-.792-1.36-1.194-2.175-1.046-1.819-.552-1.276-1.686-2.28-2.208-2.908-1.676-2.01-.712-.921.148-1.987.506-.752.516-.837.471-.732-1.194.041h-1.877l-2.584.02.39-.552.442-.427.541-.461.518-.442.663-.5.963-1.924-.434-1.38-.148-1.1-.815-.419-2.08.662-1.007.188-.994.262-.932.3-1.077.11-1.114-.241-1.252-.46-.894-.662.185-.534.356-.449.011-.576-.241-.386-2.067-.392-1.7.068-1.285-.189-.541-.168-.62-.068-.49.08-.392.313-.516.137-.552-.466.045-2.087.023-1.282.253-.994.39-1.167.7-1.365.537-.6.906-.915.6-.935.2-.442v-.35l-.171-.351.08-.507.275-.4.61-.994.517-.618.354-.685.274-.419.679-.4.918-.3.275-.3.368-.331.5-.423.4-.241.7-.162.494-.12.7-.135.482-.007" transform="translate(-1616.313 -256.338)" fill="#44428f" stroke="#fff" stroke-linecap="square" stroke-linejoin="bevel" stroke-width="1" fill-rule="evenodd"/>
    <path id="_99_Mul" data-name="99 Mul" d="M2283.108,875.393l-1.068.745-.31.271-.31.251-.357.21-.723-.094-.586-.02-.552.293.309.3.092.816-.858,1.453-.482.67-.539.941-.564,1.1-.126,1.193.285,1.171.4.858.663.9.332.9-.138.816-1.263.251-1.067.272-.963.21-1.757.4-.873.69-.253.962-.733.586-.758.1-1.022-.293-.71-.523-.482-1.1-.1-2.03.276-3.724.081-1.777.48-1.9.08-2.134-.442-.711-2.237-.5-1.545-.063-2.3-.21-3.522-.46-1.33.209-.482-.043-.862-.293-.676-.168-.941.492-.758.722-.3.522-.309.806-.369.565-.057.662.2.46.069.346-.426.094-.662-.094-.6-.365-.8-.5-.687.064-.663.051-.424-.47.148-.563.366-.544.425-1.527-.242-.785-.528-1.139-.25-.93-.427-.617-.655-.513-1.343-.136h-.482l-.584-.157-.654-.325-.655-.031-.826.125-.663-.23-.367.511.011.663.012.773-.3.868-.427.031-.655-.135-.861-.011-.871-.032-1.285-.146-1.343-.283-1.5-.262-.655-.315-.8.209-.736.273-1.353.188L2230.6,874l-1.367-.449-.836-.272-.942-.281-.367-.137-.322-.221,1.195-1.9.607-.4.772-.294,1.468-.314,2.685.094.965-.711.493-.178.367-.314.331-1.224.264-.574.585-.544.47-.366.481-.7.61-1.058.494-.5-.586-.346-.609-.346-1.227-.753-1.113-.471-.816.052-1.079.231-.171.387.412.407.7.356.287.376-.6,1.046-.563.293-.686.262-.838.074-1.034.053-1.306-.127-.883-.344-.643-.388-.86-.442-.746-.221-.62-.355-.644-.6-.264-.68.872-.921.782-.89.993-1.057.442-.11.506.021.517.147.286.292.441-.011.4-.407.713-.313.849-.324.562-.11.919-.178.47-.229.655-.963.47-.407.39-.095.574.178.609.188.434.221.442-.2.355-.795.355-.742.345-.91-.345-.408-.6-.3-.391.136-.434.11-.575-.073-.712-.126-.468-.221-.6-.785-.253-.732-.093-.883-.161-1.349.332-2.929.814-.3,1.448-.158.423-.585.943-1.766.436-.3.471-.26.586-.377.677-.376.7-.209.759-.147.654-.292-.273,1.747-.874.732.827,1.308,1.3.407,1.411.575.863.994.457,2.114,1.377-.033.068-2.238,1.884-1.181.564-1.338,1.616.209.772-.983-.31-.764-3,.02-1.205-.816-1.928.523-3.247-1.893.07-.331-.183-.331-.541-.8-1.858-.2-1.114-.261-1.009-.146-.952-.294-.552-.662.242-.491.7-.178.712.345.976-.147.01-.47v-.669l-.193-.722-.242-1.538.264-.67.1-.71-.332-.355-.264-.346-.563-.942-.23-.952.5-.753.425-.627.516-.806.138-.607-.184-.648-.413-1.057-.793-.449-.836-.052-.552.01-.3-.331-.331-.7-.079-.638.424-.331.7.156.583.053.746-.063.621-.221,1.389.084,1.021.377.5.057.643.168.442.084.779.094.746-.068.149-.173.057-.434-.137-.621-.253-.686-.379-.565-.319-.533-.356-.455.011-.319.366-.366.309.178,1.035-1.275.618-1.214.84-1.673.425-1.214.307-1.046.276-1.026-.732-.167-.862.376-.815.021-.354-.209-.38-.483-.391-.669.23-.564.9-.42.563-.377.23-.459,1.114-.042.836.125.919.125.8-.209,1.963-.669,1.355-.754.378.483.482.585.331.021.655-.773.183-.942.46.188.275.816.441.147.459-.868,1.1-1.056.483-.01.689.23.367.2,1.49.4.7-.481.138-.711.263-.67.585-.146.7-.043.87-.241,1.7-.649.6-.418.389-.764.057-.743.033-.784.141-.523-.265-.325-.527.346-.427.376-.47-.074-.391-.282-.275-.648V800.7l-.184-.883.2-.47.517-.178.264-.3.069-.585.3-.449.655-.314.639-.094h.8l1.4-.073.3,1.015.231.638.079.681-.16.47-.3.442-.221.293-.287.533-.035.6.093.648.32.638.242.883.618.147.655.2.035.481-.058.543-.355.167-.434-.01-.461-.344-.355-.177-.125.208-.264.662h-.414l-.3-.283-.149-.367-.529.189-.368.331-.309.47-.241.679.262,1.435-.1,1.015.01.7.528.46.8.418.654.314.781.251.4-.021.434-.565.069-.481.2-.816.378-.386.563-.042.3.491-.183.648-.035.648.184.732.172.617.5.754.46.209,1.182.221,1.125.188,1.114.42.377.617.11.7-.125.669-.449.575-.379.1-.471-.25-.552-.084-1.39.491-.814.3-.757.156-2.65.662-.414.627-.69.711-.022.566.344,1.025-.16.931-.47.742-.448.376.011.586.287.533.023.753v.331l.049.974.677.669.46.575.309.482.068.552-.1,1.035-.07,1.454.323.5.709-.355.61-.964.608-.543.736-.544.46.011.539.785.746.9.447.679.47.806.655,1.423.184.836.194.523.711.021.676.084.392.523.263.407.173.67v.662l.137.367.619.146.528.146.617.816-.552,1.078-.171.932,1.545,1.412L2283,843.9l.69-1.435.241-.252,1.147.681,1.008.585,1.366,1.078,1.354,1.779.8,1.516-.585,1.465-.276.848-.1.512.461,1.132-.436.188-2.147,1.39-3.225,2.343-1.09,1.129-.552,2.113-.848,1.093-1.2,3.651-.4,3.754.552,2.016.633,1.141,2,2.709.724,2.079" transform="translate(-1612.1 -250.378)" fill="#908edc" stroke="#fff" stroke-linecap="square" stroke-linejoin="bevel" stroke-width="1" fill-rule="evenodd"/>
    <path id="_101_Pombhurna" data-name="101 Pombhurna" d="M2215.49,903.052l.285-.838.458-.188,1.035-.272.184-.795.919-1.656.63-.773.94-.607,1.068-.753.839-.442.86-.418.1-.732-.483-.732-1.377-.942-.608-1.13.966-.063.69-.753-.323-3.159.5-2.176.3-1.965.23-2.259.16-2.386.331-1.894.011-.753-.111-.869v-.8l.111-.566.127-.722-.184-.251-.552-.325-.458-.272-.441-.251-.071-.262.161-.146.942.094.629-.01.679.062.563.2.379.146.242-.262.1-.451-.24-.522-.711-.2-.441-.25-.137-.65-.185-.638-.285-.442v-.451l.459-.378.517-.292.32-.324.127-.627.01-.47-.252-.284-.391-.386-.207-.491.138-.346.442-.252.358.031.743-.324.61-.419.609-.345.493-.344.3-.367.251-.314.277-.552.321.221.365.137.941.283.839.273,1.365.449,1.286.231,1.354-.188.732-.274.806-.209.653.315,1.5.262,1.341.282,1.287.147.871.032.862.011.653.136.426-.032.3-.868-.011-.773-.011-.662.367-.512.663.23.827-.125.654.031.653.325.587.157h.479l1.343.136.656.513.424.617.253.93.526,1.139.241.784-.424,1.528-.367.543-.148.564.424.472.663-.051.69-.063.8.5.6.367.662.094.424-.094-.068-.346-.2-.46.057-.662.369-.566.308-.8.3-.522.757-.721.943-.493.675.168.86.293.485.042,1.332-.209,3.522.46,2.3.209,1.545.063,2.241.5.435.711-.079,2.134-.483,1.9-.081,1.777-.276,3.724.1,2.029.483,1.1.709.523,1.022.292.76-.1.734-.586.253-.962.869-.69,1.756-.4.962-.21,1.069-.273,1.264-.25.137-.816-.331-.9-.663-.9-.4-.858-.286-1.171.126-1.192.563-1.1.54-.941.482-.67.86-1.454-.092-.816-.308-.3.552-.293.585.02.725.094.355-.21.311-.25.308-.273,1.067-.745.8,2.282,2.208,4.12.964,1.815-.1,3.633-.9,1-2.409,1.748-.441,1.877-1.685,2.906-1.08.342-1.08.371-3.337,3.8-1.791.713-1.856,1.577-.473,1.935-.355,3.2,1.215,5.846-1.215.676-1.112.628-.747.23h-.734l-1.7.021-2.614-.732-1.883-.46-.492-1.089-.38-1.151.034-1.214.221-1.151-.356-.753-1.324-.481-.274-.021-.918.315-.529.313-.893.418-.92.4-1.192.48-.689.943.39,1.1.688.883-.16.565-1.215.23-1.114-.564-.595-.564-.528-.712-.792-.442-1.047.02-.779.331-.643.442-.61-.168.127-.417.036-.733-.46-.442-.861.041-1.182-.209.6-.586.276-1.067.481-.71.413-1.109-.24-1.61-1.546-.942-.424.4-.689.962-.381.816-.263,2.49.31.983.563.314.149.586-.046.626.126.649.126.669.071,1.068.137,1.192.173,1.527.207,1.233-.542.795-.942,1.131-1.137.627-1.525-.231-1.3-.021-.391.314-.047,1.171-.607-.063-.482-.4-.584-.4-.861-.691-.495-.23-1.067-.315-.5-.313-.883-.858-.713.209-.458.587-.838.376-.124-1-1.1-.753-2.237-.022-1.446.984-.814-.1-.584-.252-.736-.627-.654-.732-1.08-.376-1.411-.313-1.274-.11-1.877-.21-.837-.417-1.525-.691-1.528-.252-1.32-.417-.308-.564" transform="translate(-1613.433 -240.884)" fill="#908edc" stroke="#fff" stroke-linecap="square" stroke-linejoin="bevel" stroke-width="1" fill-rule="evenodd"/>
    <path id="_98_Gondpipri" data-name="98 Gondpipri" d="M2215.059,907.049l.9-.158.423-.084.826-.125h.816l.633.168.976.229.539-.052,1.08.178.746.262.988-.1.221-.649.071-.857.046-2.113-.905.021-.965.02-1.115-.136-.7.041-.873.346-.494-.3-.392-.368-.62-.166-.6.24-.63.242-.264-.064-.529-.314-.161-.315.023-.512.127-.513.16-.4.308-.586.379-.47.426-.773.905-.721.31.564,1.324.418,1.527.251,1.526.691.838.417,1.877.211,1.276.1,1.408.314,1.08.376.654.732.733.627.586.251.815.11,1.448-.984,2.236.022,1.1.753.124,1,.839-.376.459-.586.713-.208.883.859.5.313,1.068.315.493.229.863.691.584.4.483.4.607.063.045-1.172.392-.314,1.3.021,1.525.23,1.136-.627.942-1.131.539-.795-.208-1.233-.171-1.528-.138-1.192-.067-1.068-.127-.669-.127-.649.047-.627-.149-.586-.563-.313-.309-.984.264-2.49.379-.816.689-.962.423-.4,1.546.943.241,1.61-.414,1.109-.481.711-.275,1.067-.6.586,1.184.21.86-.042.461.442-.034.733-.126.418.607.167.643-.442.782-.331,1.044-.021.791.442.529.711.6.564,1.113.565,1.215-.23.161-.564-.687-.883-.391-1.1.688-.942,1.195-.48.919-.4.894-.418.527-.314.92-.314.275.021,1.325.481.357.753-.221,1.152-.034,1.214.376,1.151.493,1.088,1.885.46,2.614.732,1.7-.021H2273l.747-.231,1.112-.627,1.214-.676.663,3.155,2.319,6.377,2.147,2.755,2.879,2.61,2.053,3.217-.228,7.041.561,14.1,1.734,8.833,4.527,7.66h-.3l-.022-.018-.3-.158-.288-.169-.251-.147-.332-.155-.3-.166-.034-.02-.1-.11-.253-.15-.458-.179-.506-.124-.081-.041-.1-.071-.036-.021-.424-.242-.435-.543-.654-.671-.4-.442-.127-.155-.081-.11-.082-.049h-.01l-.277-.256-.321-.227-.137-.076-.023-.032-.035-.033-.221-.256-.173-.21-.24-.268-.287-.245-.23-.212-.1-.066-.079-.088-.149-.122-.323-.191-.4-.252-2.068-.83-.309-.008-.355-.024-.436-.2-.874-.342-1.136-.242-.744-.245-.758-.079-.425-.06-.058.078-.356-.076-.482-.091-.506.07-.812.3-.883.564-.883.65-1.377,1.247-.441.442v-.039l-.23.276-.436.459-.608.632-.442.386h-.01l-.138.171-.38.283h0l-.148.086-.442.279-.654.29-.391.136-.4.088-.414.085-.321.015-.712-.015-.342.072-.484.021-.149.028v.044h0v-.042l-.309-.029-.4-.054-.126-.032-.1.013.022-.035-.093-.022-.367-.045-.47.008-.424.045-.3.123-.241.139-.425.133-.757.269-.4.158h0l-.851.157v.011l-.3.011-.378-.119-1.4-.023-1.939.083-.849.168-.585.11-1.057.2-1.325.14-2.308.448-.11.022-.942.4h0l-.149.041-1.138.8-1.2,1.264.011.01h0l-1.195,1.214-.413.835-.207.994-.11.954-.058.375h0l.013.025v.2l-.264.813-.495.946-.4,1.253-.286.994-.057.688.046.994-.1.295h0l-.1.487-.46,2.019-.642,1.354-.552.368-.552.277-.561.085-.724-.1-1.836-.6-1.284-.733-.977-.785-1.47-.861-.835-.356h0l-.344-.11-.827-.316-.781-.418-.641-.085-.127-.008-.071-.055-.309-.294-.2-.19-.264-.524-.275-.552-.2-.808-.425-2.147.047-.592-.253-1.641-.2-.448-.1-.132-.057-.06-.221-.267-.253-.257-.125-.023-.345-.024-.723.211h-.023l-.759.375-.275.11-.207.056h0l-.149.053-.585.244-.137.077.045-.033-.436.331-.9.778-1.035.858-.953.866-1.031.8-.5.146-1.058-.094-.906-.262-1.009-.343-1.023-.513-.987-1.507-1.019-1.935-.083-.857.311-1.182.574-.773,2.031-.847,1.285-.6.39-.722-.023-2.532.355-2.3-1.4-3.965-1.343-4.624-1.069-3.566-.709-2.594-.517-.711-.609-.564-.712-.534-.9-.49-.814-.681-.205-1.1-.068-1.245.033-.375-.631-.409-.331-.094-.7-.314-.744-.313-.849-.221-.8-.031-.517-.315-.471-.522-.47-.533-.724-.669-.309-.722.321-.543-.012-.7-.011-.617,3.983.293.951.021.975.084.883.376.527.221.528.189.965.386.7.513.631.208.4-.365.2-1.831-.221-3.212-.827-4.085.894-3.661.953-2.877.221-.816.034-.826-.011-.4V907.7l.1-.331.39-.318" transform="translate(-1615.325 -236.849)" fill="#908edc" stroke="#fff" stroke-linecap="square" stroke-linejoin="bevel" stroke-width="1" fill-rule="evenodd"/>
    <path id="_102_Rajura" data-name="102 Rajura" d="M2224.87,909.429l-.391.319-.1.331v.481l.011.4-.035.826-.221.816-.954,2.877-.9,3.66.827,4.085.221,3.213-.2,1.831-.4.367-.63-.209-.7-.513-.965-.387-.527-.189-.528-.221-.883-.376-.975-.084-.954-.021-3.981-.293.011.617.011.7-.32.543.309.722.724.67.471.533.471.522.517.315.8.031.848.221.748.314.7.315.332.094.631.407-.036.376.07,1.244.2,1.1.817.68.893.491.712.533.609.564.515.712.712,2.595,1.068,3.566,1.341,4.623,1.4,3.965-.355,2.3.021,2.532-.389.722-1.284.6-2.033.847-.573.773-.311,1.182.08.857,1.021,1.934.988,1.507,1.022.513,1.008.344.907.262,1.058.094.5-.146,1.033-.795.953-.865.229.491.111.331.137.57.023.1.081.565-.023.18-.012.084-.01.073-.023.171-.035.314-.069.365-.022.054-.023.29-.023.234-.149.9-.057.621v.178l-.047.287-.091.165-.023.11-.138.023-.5.054-.368.2-.11.084-.208.1-.3.11-.47.351-.441.286-.171.093-.368.234-.494.331-.494.283-.184.15-.058.126-.16.194-.161.261-.07.076-.273.282-.071.053-.307.2-.391.179-.344-.042-.195-.036-.138-.038-.5.054-.506.022-.441.039-.756.066-.86.355-1.241.5-.619.254-.872-2.339-2.181-1.62-.138-.084-.252-.4-.184-.221-.746-.237-.183-.089-.505-.535-.506-.584-.391-.317-.149-.151-.171-.1-.506-.137-.32-.11-.07-.021-.539-.74-.332-.338-.736-.69-.241-.286-.332-.331-1.656-.151-.425-.031-.287-.018-.32.012.057.787.01.306.071.637.011.11-.035.11-.4.02-.1.124-.493-.233-.836-.4-.162-.11-.091-.06-.931-.382-.687-.188h-.1l-.414-.172-.457-.363-.15-.031-.032.037v-.021l-.012-.089-.093-.071-.089-.06-.093-.148-.081-.263-.1-.208-.046-.159-.023-.156.023-.008.046-.019h.058l-.16-.244-.253-.3-.032.053-.185-.189-.276-.4-.137-.209-.057-.095.068-.031-.081-.11-.056.007-.332-.368-.354-.442-.207-.307-.185-.242-.263-.05h-.468l-.023-.038-.08-.1-.081-.152-.138-.043-.184-.392-.1-.341-.091-.148-.1-.148h-.185l-.092-.018-.815-.1h-.953l-.562-.267-.377-.191-.012-.027-.137-.05-.127-.176-.137-.541-.127-.48-.044-.358-.012-.27-.012-.184-.044-.123-.023-.023-.069-.283-.058-.1-.081-.138-.012-.024-.023-.142-.126-.221-.321-.011h-.181l-.163-.3-.11-.34v-.1l-.059-.221-.436-.032-.711.075-.643-.083-.331-.221-.253.045-.31.039-.345.068-.322.188-.414.056-1.444.063-.656.075-.319-.129-.173-.017-1.2.331-.3-.1-1.239-.442-.287-.063v-.022l-.229-.052-.241-.015-.356.046-.5.056-.872.068-.012.158.022,2.208-1.1.307-.415-.5-.11-.129-.184-.243-.171-.291-.1-.662.1-1.065-.138-.4-.034-.234-.091-.53-.045-.279-.127-.823-.069-.46-.287-1.9-.011-.1-.034-.209-1.137.058-.735.062h-.217l-1.365.068-1.907.11-.721-.179-.173-.057-.161-.036-.286-.11-.994-.331-.663-.221-.045-.029-.3-.235.045-.078v-.138l-.2-1.058.139-.839-.161-.242-.1-.126-.654-.669.552-.78.413-.5.343-.794-.068-.543-.87-.4.057-.5,1.656-1.546.663-.5-.264-.795-.8-.4-1.2-.1-1.136.251-1.481-.418-.779-2.092.172-1.319.5-.962.138-.773-5.221-2.028-1.113-.461-1.342-.418-1.859-.376-1.112-.795-1.424-.732-.713.941-1.249,1.068-1.545,1.947-.874,1.317-.756.816-.4,1.15-.1,1.527-.126.376-.994.355-1.572.418-.412.921-.656-.042-.773-.21-.355-.564-.506-.65-.585-.71-.755-.482-1.573-.752-1.02-.46-1.861.041-1.295.543.1-.627.181-1.233.758-1.59.3-2.155-.022-.564-.254-.795-.552-.733-1.019-.522.045-1.486-.441-1.656.068-1.947-.459-2.655.689-.294,1.273-.669,1.988-.838,1.262.376.816.252,1.022.042,1.088.251,1.021.272,1.471.42,1.091.292,1.456.147,1.469-.043.861-.041,1.546.377,1.5.5,1.171-.147.772-.1,1.411.021.263.606.943-.126.355-.753.231-.816.32-1.381v-1.506l.39-1.067v-.922l-.355-.46-1.08.4.356.669-.4.442-.712.228-.758.19-1.25-.4-.276-.921-.206-1.214.206-.773.908-.564,2.213-1.152,1.126-.607.986-.5.379-.4-.276-.754-.962-1-.735-1-.793-.544-.229-.627.563-.816.573-1.987-.11-.272-.9-.544-.252-.523-.1-1.13.126-1,.185-.712.483-1.15.377-.883.2-1.087-.607-.11-.093-.46-.391-.941h-2.569l-.276-.8-.1-.984.184-.816.276-1.317v-.376l-.586-.67-.758-.837-1.02-.459-.436.041-1.091.188-.759.063-.4-.063.069-1.214-.883-3.871.069-.921.642-.753.7-.753.331-.4,1.08-.5.506-.544.778-3.139-1.055-2.767-.229-.946.506-.031,1.26-.357,1.252-.486,1.02-.172,1.343-.042,1.838.125,1.514-.072,1.468-.064,1.147.32,1.253.994,1.537,1.187.837.984,1.092,1.255,2.73,1.195.953.16,2.077-.158.608-.156.607-.084.711.031,1.124.4.781.386.712.47.746.7,1.366,1.068.773.638,1.147.753,1.7.442.563.283.678.512.469.794.057.711-.045.523-.207.544-.309.357-.539.512-.322.564.023,1,.86,1.152,1.789,1.37,2.7,1.139,3.306,1.486.953.23,1.872.418.974.21,1.459-.21,1.628-.345,1.5-.2.953.178.744.512.736.543.964.566.9.449,1.251.575,1.754.952,2.056.7.905.607.6.627.608.669.516.7.9.669,1.742.6.965.628.69.574.663.859.883.628.7.428,1.525.46,1.02.964.576.491.735.883" transform="translate(-1624.894 -238.902)" fill="#3e3bb3" stroke="#fff" stroke-linecap="square" stroke-linejoin="bevel" stroke-width="1" fill-rule="evenodd"/>
    <path id="_381_Jivati" data-name="381 Jivati" d="M2162.9,979.538l-.171.01-.221-.082-.231.067h-.08l-.493-.021-.207-.038h-.251l-.161.036-.266.073-.424.082-.505.081-.264.183-.331.127-.368.16-.331.076-.872.128-.207.071-.2.062-.149.018-1.056-.026-.9-.134-.871-.123-.161-.044-.286-.18-.1-.044-.127-.077-.08-.037-.081-.044-.206-.389-1.288-1.527-1.272-1.316-.9-2.965-.414-.405-4.165-2.933-1.366-.269-.574-1.315-1.534-.847-2.193-.641-1.833-2.326-1.975-.573-.917-1.922-1.215-.607-2.76-.134-2.857-.3-1.366-.442-.6-.944-4.647-2.225-1.618.169-3.557,1.425-3.213-.245-3.178.442-.126-1.922-4-3.068-.286.674-.792.372-.607,1.822-6.484.133-1.836-.607.2-.359.11-.786-.963-1.885.057.01.126.018.162.014.137.017.252.033.081.018.274.061.069.02.311.089.3.053.138.01.092.019.059.007.263.018.035-.016.1-.081.137-.11.11-.063.206-.128.138-.074.081-.051.221-.121.185-.1.276-.158.057-.038.035-.009.022.093.206-.11.047-.036V953.2l.047-.01.056-.007.17-.1.059-.11.047.014.11-.1.045-.049.11-.1.127-.121.11-.11.07-.066.046-.031.194-.169.162-.145.034-.014.183-.067.208-.085.081-.02.023-.013.126-.038.068-.019.138-.036.355-.111.092-.071.07-.045.253-.088.091-.1.11-.119.059-.072.055-.045.208-.144.034-.028.253-.309.035-.087.1-.241.092-.214.091-.162.138-.14.332-.371-.011-.1-.081-.521-.033-.279-.023-.252-.024-.086-.034-.26-.046-.267-.07-.061-.16-.152-.195-.2-.253-.247-.287-.262-.034-.028-.182-.122-.11-.05-.221-.073-.368-.134-.11-.049-.541-.242-.033-.013-.368-.231-.058-.032-.378-.326-.036-.048-.16-.155-.194.087-.242.118-.092.041-.2.092-.071.029-.308-1.132-.529-2.06.47-.074.15-.02.172-.035.286-.09-.012-.1-.035-.229-.046-.229-.011-.007-.024-.179-.042-.169-.013-.068.013-.132.009-.2.033-.285-.011-.028v-.045l.024-.221.011-.1.032-.162.014-.127.126-.275h.011l.091-.054.035-.134.044-.171.058-.175.069-.121.07-.11.068-.11.047-.072.081-.231.092-.2.079-.194.012-.029.08-.208.034-.087.185-.356.11-.269.161-.578.127-.383.1-.172.069-.64-.011-.628-.11-.383-.126-.412-.506-.707-.161-.58-.321-.911-.426-1.263-.171-.165.827-1.887.344-.6.424-.543.633-.67.3-.742.309-.48.859-.147,1.927.178.977-.094h1.894l1.641.084,1.147.974.11.459.023.868.331.5.2.752.2.847,1.055.638.8.262.919.127.747.221.745-.147.1-.585.1-1.924-.045-.868.161-.974.343-1.1,1.516-.9.909.576.572.262.538.167.645.052.663-.125.883-.418,1.3-.732.954-.552-.185-2.019-.045-.2-.906-.48-1.228-.325-.241-.442.023-.733.309-.532.377-.429.208-.8.23-.732.288-.816.573-.262.655-.073,1.169.2.873.511,1.813.742.929,1.067.482.859.264.69.368.785.653,1.128.689.331.744.408.781.147,1.068.073.826-.231.7-.638.607-1.6-.011-.341-.023-.354-.1-.414-.252-.391.036-.378.332-.47,1.584.1.221.209.045.309.046.319.16.2.2.157.287.01.413-.11.391-.23.413-.409.126-1.051.1-.34.221-.376.345-.442.563-.367.468-.12.46,2.656-.068,1.946.448,1.656-.046,1.486,1.021.522.552.732.253.8.022.564-.3,2.155-.756,1.591-.185,1.234-.1.627,1.3-.544,1.858-.041,1.022.46,1.572.752.757.482.586.71.5.65.357.564.773.209.654.043.413-.922,1.573-.417.994-.357.126-.376.1-1.527.4-1.151.759-.816.872-1.317,1.546-1.945,1.252-1.068.709-.941,1.423.732,1.114.795,1.858.377,1.345.418,1.112.46,5.222,2.028-.137.773-.506.962-.172,1.319.78,2.091,1.48.419,1.137-.251,1.2.1.8.4.265.795-.663.5L2176,937.837l-.059.5.873.4.07.543-.346.794-.413.5-.552.778-.151-.148-.078-.144-.071-.169-.149-.634-.056-.165-.173-.275-.046-.131-.034-.122-.069-.314-.16-.263-1.088-.432-.264-.181-.172-.072-.805-.482-.447-.187-.126-.083-.391-.156-1.779,1.956-.733.794-.344.377-.047.492-.068.782-.081,1.292.068,1.039.277,1.009.275.442.53.246.413.662-.918,3.024-.012.076.126.463.32-.221.221-.162.662-.262.773-.289.539-.221.367-.291-.033.235v.089l-.045.423-.092.815-.126.495-.137.186-.1.136-.111.136-.081.2-.022.079-.046.721-.033.38-.012.062-.033.319-.31.442-.332.522-.331.244-.321.677-.057-.052-.046-.045-.9,1.059-.023.169-.137.128.011,1.426.331.431.171.192-.022.156-.047.162-.011.077-.127.7.311,1.691-.117.167-.274.406-.276.39-.344.5.034.221.011.273-.125.428-.093.39-.285.656-.518.969-2.708-.241-2.078,2.75-1.134,1.124-.265,1.464-.378,1.158-.413.493.138.728.286.65.253.7.745.668.081.1-.034.331.046.012.081.074.057.017.263.1.138.018.436.046.15.03.091.142.253.339.252.318.441.587.221.288.034.038.111.137.254.259.032.035.184.11.11.364.022.11-.022.3-.013.095v.029l.024.075-.127.135-.16.042-.441.11-.575.238-.344.119-.034.024-.125.2-.1-.026" transform="translate(-1630.947 -232.472)" fill="#3e3bb3" stroke="#fff" stroke-linecap="square" stroke-linejoin="bevel" stroke-width="1" fill-rule="evenodd"/>
    <path id="_105_Korpana" data-name="105 Korpana" d="M2162.039,874.94l.23.946,1.054,2.767-.78,3.139-.505.543-1.078.5-.331.4-.7.753-.644.753-.069.921.883,3.871-.068,1.214.4.063.759-.063,1.089-.189.441-.041,1.021.46.758.837.586.67v.377l-.275,1.317-.185.817.1.983.275.8h2.571l.389.941.093.46.607.11-.194,1.088-.378.883-.483,1.151-.182.712-.126,1,.1,1.13.252.523.9.544.111.273-.573,1.987-.562.816.228.628.793.543.736,1,.963,1,.276.754-.38.4-.986.5-1.124.607-2.216,1.15-.906.565-.208.773.208,1.214.276.921,1.25.4.759-.19.709-.23.4-.442-.356-.669,1.078-.4.356.46v.922l-.39,1.067v1.506l-.321,1.381-.23.816-.356.752-.94.126-.264-.607-1.411-.021-.773.1-1.169.147-1.5-.5-1.545-.377-.857.041-1.471.043-1.456-.147-1.092-.292-1.47-.418-1.019-.272-1.09-.25-1.022-.042-.813-.252-1.263-.376-1.987.837-1.274.67-.687.293-.47.12-.562.366-.344.442-.22.376-.1.34-.125,1.051-.413.409-.391.23-.414.116-.286-.01-.2-.158-.161-.2-.045-.318-.047-.308-.221-.21-1.583-.1-.331.47-.034.378.25.391.1.414.023.354.012.341-.608,1.6-.7.638-.824.231-1.068-.073-.782-.146-.746-.408-.687-.331-.653-1.129-.368-.785-.264-.69-.482-.858-.931-1.068-1.813-.742-.872-.511-1.171-.2-.655.073-.574.262-.287.816-.229.732-.208.795-.377.429-.311.532-.023.733.24.442,1.227.325.908.48.047.2.184,2.019-.954.552-1.3.732-.884.42-.662.125-.643-.052-.54-.167-.574-.262-.9-.576-1.518.9-.344,1.1-.16.973.046.869-.1,1.924-.1.585-.747.147-.744-.221-.917-.126-.806-.262-1.053-.638-.2-.847-.2-.752-.332-.5-.022-.868-.111-.46-1.149-.973-1.638-.084h-1.9l-.976.094-1.929-.178-.859.147-.311.481-.3.742-.631.669-.425.544-.345.6-.826,1.886-.24-.176-1.319-.488-.184-.072-.221-.405-.2-.166-.183.541-.149-.039h-.322l-.62-.009h-.034l-.1.017-.344-.061-.355-.05-.3-.051-.332-.043-.068-.017-.1-.063-.344-.065h-.117l-.413-.021-.459-.017h0l-.035-.007-.24-.052-.023-.007-.034-.007h-.023l-.379-.032-.3.039-.011-.092-.057-.252-.011-.064v-.11l-.057-.012-.034-.008-.2-.021-.345-.052v-.018l-.011-.288-.012-.178-.023-.319-.012-.16-.195-.1-.138-.073-.08-.046-.092-.007-.127-.009-.125-.012-.162-.022h-.057l-.242.023-.11-.1-.081-.085-.057-.045-.23-.147-.138-.081-.138-.081-.092-.04-.127-.007-.069-.008-.139-.013-.148-.014-.125.013-.149-.018-.3-.021-.264-.026-.195-.016-.172-.02h-.082l-.252.019-.287.013h-.366l-.023.023-.036.067-.024.048-.058.087-.033.082-.058.121-.034.057-.252.211-.15.118-.034.051-.056.07-.08.138-.057.033-.092.014-.149.018-.092.013-.069.014-.058.021-.058.026-.069.026-.287.065-.16.03-.082.016-.034-.007-.046-.055-.149-.137-.046-.021-.034.01-.08.043-.079.045-.128.057-.379.191-.08.036-.3.16-.241.127-.2.1.022.053.045.146.047.173.111.331.1.331v.065l-.025.171-.023.221-.035.289-.035.214-.732-.3-.85-.376-.459-.119-.681-.173-.7-.3-.607-.072-.662.008-.7.1-.357.266-.448.1v-.014l-.368-.02-.322-.01-.441-.005-.494.007-.494-.009.046-1.187.1-.236.057-.136.081-.279.149-.571.024-.081.11-.467v-.033l.024-.041.111-.421.023-.043.033-.035.138-.16.023-.034.011-.046v-.856l.046-.243.069-.243.022-.067.023-.054.035-.2v-.062l-.058-.1-.111-.056-.068-.049V930.4l-.022-.541-.047-.324-.011-.078-.057-.189-.1-.331.127-.307.264-.682.917.1-.068-.552-.01-.036v-.042l-.116-.657-.458-.746-.138-.6h0l-.08-.529-.08-.709-.459-.606-.138-.392-.08-.611-.036-.24-.033-.1-.208-.547-.183-.713-.252-.552-.254-.645-.011-.052.23-.728.161-.318.195-.423.057-.221-.034-.412-.138-.273-.013-.044-.01-.033-.035-.221-.012-.07-.01-.034-.036-.176-.022-.049v-.047l-.034-.147v-.054l-.012-.042-.022-.063-.024-.161-.023-.082-.021-.188v-.022h-.035l-.436.008h-.023l-.056.018-.127.046-.1-.376-.023-.146-.08-.331-.1-.181-.044-.258-.058-.283-.056-.1-.057-.1-.056-.442-.057-.487-.014-.056-.056-.435-.1-.245-.194-.451-.263-.367-.081-.11-.171-.47-.127-.359-.011-.022-.081-.372v-.489l.149-.163-.069-.255-.024-.194.906-.213.619-.4.448-.221.331-.283,1.308-1.133.8-.136.631-.012.679.125.825.25.552.193.538.126.529.089.9.248.619.374.128.34v.725l-.128.612-.207.894-.172.907.047.816.31.454.6.17.561-.046.344.148.781.827.781.544.655.316.607.4.746.181h.663l.837-.137.691-.317.662-.646,1.136-1.089,1.229-.488.916-.2,1.021-.033,1.23.09,1.157.159,1.079-.034.389-.158.471-.351.425-.613.252-1.28-.194-1.2-.586-.509-.16-.126-.528-.4-.609-.42-.54-.5-.344-.612-.31-1.247.207-1.371.883-1.076.679-1.032.47-.839.506-.576.754-.725.976-.794,1.286-.883.483-.284.365-.158.92-.149,1.228-.147.873.034,1.158.079,1.24.226,1.146.011,1.08-.193,1.908.034,1.512.09.529.181.47.431.587.635.572.318.507.067.457-.012.86-.272.711-.635.368-.612.357-.873.414-.952.125-.737.346-.669,1.181-.635.494-.181.825-.045.366.012.746.431.759.442,1.135.408.838.034.917-.045,1.069-.047,1.708-1.473,1.515-1.247,1.055-1.914.242-1.609.241-.521.127-.374.207-.272.253.294.426.407.631-.034.536-.124.529-.272.61-.07.441-.2.528-.307.62-.4.434-.5.965-1.791.39-.624.38-.487.413-.351.656-.263,1.42-.429.518-.192.357-.331.377-.52.208-.591.388-.951.254-.578.376-.317.323-.295.263-.385.332-.351.288-.409.356-.589.712-2.023.092-.25-.011-.2-.139-.17,1.733-.11,1.021.057.482-.1.471-.137.585-.684.442-.638.3-.46.391-.514.6-.277.815.095.654.276.793.5,1.274.957,1.135,1,.552.313.848.346.31.021" transform="translate(-1633.949 -239.272)" fill="#3e3bb3" stroke="#fff" stroke-linecap="square" stroke-linejoin="bevel" stroke-width="1" fill-rule="evenodd"/>
    <path id="_96_Chandrapur" data-name="96 Chandrapur" d="M2257.188,819.664l-.368.365-.011.319.355.455.323.534.379.566.253.684.138.623-.059.434-.149.173-.746.067-.78-.094-.435-.084-.644-.168-.5-.057-1.02-.376-1.39-.084-.618.221-.747.063-.586-.053-.7-.156-.424.331.081.637.332.7.3.331.552-.01.839.052.79.449.413,1.057.184.648-.138.607-.517.8-.424.627-.5.753.229.951.561.943.265.344.332.356-.1.71-.265.67.242,1.538.2.722v.669l-.012.472-.974.147-.712-.346-.7.178-.242.491.552.662.953.293,1.01.147,1.113.261,1.857.2.54.806.184.331-.069.331,3.248,1.892,1.929-.522,1.2.816,2.995-.021.31.764-.772.984-1.618-.209-.564,1.339-1.877,1.182-.069,2.238-1.378.032-.459-2.113-.86-.994-1.411-.575-1.3-.407-.824-1.308.87-.732.274-1.746-.652.293-.758.147-.7.209-.677.376-.585.376-.47.262-.436.3-.941,1.766-.426.585-1.446.157-.814.3-.331,2.928.161,1.349.092.883.253.732.6.785.47.221.713.126.573.073.442-.116.39-.135.6.3.345.408-.345.911-.355.742-.356.795-.441.2-.435-.221-.608-.188-.577-.178-.389.094-.469.407-.655.963-.471.23-.919.178-.562.11-.848.322-.712.315-.4.407-.436.01-.287-.293-.517-.147-.5-.021-.441.11-.994,1.057-.783.89-.87.921.264.68.641.6.621.356.747.221.861.442.642.388.883.344,1.31.126,1.032-.052.837-.073.689-.263.563-.293.6-1.046-.288-.377-.7-.357-.414-.408.173-.386,1.078-.231.814-.052,1.114.47,1.229.753.606.346.585.344-.494.5-.606,1.058-.481.7-.47.366-.587.544-.263.574-.332,1.224-.368.314-.491.178-.965.712-2.685-.094-1.47.314-.772.294-.607.4-1.194,1.9-.918-.627-.9-.262-1.078-.209-.586.021-2.752.074-1.766-.084-1.159-.1-.816-.178-.941-.272-.986-.178-1.545-.628-3.593.209-1.261-.094-1.332-.3-.331.209.081.576.16.544-.045.857-.111.4-.116,1.047-.757.147-.441.167-.262.4.089.523.474.281.171,1.266-.035.712-.264.407-.586.094-.525-.46-.5-.648-.312-.544-.311-.552-.493-.638-.6-.147-.6.021-.573.064-1.036.178.357,1.275-.138.859-.354.648-.231.491.11.7.332.585.276.451,1.214,2.249.71,1.831.563,3.086.173.922.058.48-.312.357-.757-.021-.6.331-.391.6.276.442-.011.7-.046.983-.252,2.615-.644.262-.552.544-.2.6-.195.762-.07.253-.86.239-.676.21-.781.209h-.457l-.622-.3-.585.575-.424,1.276-.472-.442-.586-.386-.687-.031-.679.041-.973-.158-.792-.073-2.569-.021-.082-.511.208-.806.288-.241.377-.262.276-.331v-.221l-.368-.147-.376.022-.505.168-.3-.063-.287-.281-.414-.293-.413.125-.3.367-.3.552-.3.428-.86-.189-.413-.325-.208-.331.012-.512.126-.428-.168-.447h-.791l-.689.031-.391-.136-.32-.543-1.545-1.893-.723-.7-.07-.826.622-.7.563-.512.11-.46.111-.785-.046-.648-.482-1.276-1.125-1.325-1.457-2.175-1.5-2.751-.883-.91-1.215-.231-.724.1-.586.136-.572.533-.825.847-.713,1.13-1.4.482-1.456.188-.736-.063-.918-.648-.652-.48-.23-.295-.034-1.317-.985-.084-.84.272-1.009.42-.584.25-.518.4-.25.585.275.42.034.4-.1.4-.31.062h-.78l-.978.272-.354.482-.09,2.049-.208.816.1.732.907,1.235-.23,1.089-.607.459-.221.669-.24.729-2.732-1.193-1.089-1.255-.839-.984-1.536-1.188-1.252-.994-1.148-.319-1.467.062-1.516.073-1.836-.125-1.344.042-1.021.172-1.252.487-1.263.356-.5.032-.31-.021-.85-.346-.552-.314-1.136-1-1.272-.957-.793-.5-.656-.277-.815-.094-.6.277-.39.513-.3.46-.441.638-.586.685-.469.137-.483.1-1.02-.057-1.733.11-.425-.1-1.066-.153-.994-.192-1.331-.347-.838-.263-.994-.428-.756-.241-1.3-.309-.918-.187-.587-.13-.16-.168-.415-.331-.607-.8-.354-.688-.585-.762-.242-.188-.171-.085-.31-.023-.345.057-.389.241-.231.085-.183.005-.229-.023-.378-.292-.471-1.281-.241-1.063.046-1.961.276-1.6.046-.5-.024-.662-.205-.773.205-.561.23-.351.629-.436,1.325-.827.38-.25.355-.243.31-.283.662-1.23.447-.679.149-.493.012-.465-.221-.606-.505-.5-1.008-.528-.85-.277-.907-.232-.848-.085.022-.351.023-.4.034-.351.308-.4,1.171-.906.472-.311.424-.221.379-.055.575.022.366.125.563.21.4-.012.221-.141.185-.294.067-.261,1.012.135.355.7.441.063.644-.293.4-.157.527.063.6.188.724.331-.011.442.067.732.183.722.149.742.265.4.631.073.676-.094.994-.157,2.018-.481,1.195-.293.756.271.528.022.368-.471v-.544l-.183-.606-.441-1.767-.161-.689-.8-.586-1.6-1.38-.323-.732-.583-.283-.792-.283-.689-.178-.287-.378.046-.407.127-.442.126-.491-.344-.565-.663-.91-1.673-1.286-.071-.345.563-.543.32-.428-.023-.543-.25-.389-.368-.442-.241-.231.356-.221.527.031,1.252.1,2.237-.031.815-.271.573-.241.311-.6,1.136-1.4.309-.847.046-.68.425-.221.653,1.349.758.442.62.451.595.272.748-.01,1.091-.858.264-.158.574-.031,1.112.041.826-.052.529-.378.426-.448.205-.084.541.24.319,1.59.149.711.656.355,3.936.272.871-.11,1.012-.564.205-.617.068-.523.185-.388.3.147.653.2.127-.021.221-.271.058-.5.207-.543-.081-.522-.138-.262-.091-.46.6-.053.516-.063.458.68.081.763.011.838.137.753.507.533.6.23.929.346.621.2.893.377.38.331.091.575.1.355h.331l.425-.552.505-.512.618-.442.482-.764.4-.365.07-.606-.012-.711-.585-1.4.242-.367.287-.417-.069-.4-.481-.511.506-1.392.137-1.1-.08-.607-.47-.552-.654-.46-.735-.617-.906-.6-1.181-.512-.111-5.826,1.367-.67,1.893-.732,1.184-.544,2.237.084.448-.367.7-.627.994-.627.758-.522.11-.785.331-.638.229-.984.068-1.141,1.288-.2.631-.11.528-.043.858.126.7.189.563.041.86-.062.6-.366.561-.722.575-.68-.355-.848.241-.48.344-.355.632-.43.012-1.057-.07-.386-.343-.209-.987-.136-.347-.387.242-.283h.942l.608-.084.678-.1.63-.524-.172-.931-.481-.921-.39-.711-.414-.094-1.033-.418-.643-.367-.87-.272-.221-.648.2-.7.221-.806.3-.7.622-.532.441-.481.448-.523.425.011.17.449.163.47.723-.073,1.354-.534.677-.262,1.324-.167,2.192.5-.239,1.674-.311.481-.414.386-.413.47-.22.523-.151.679.116.565.688.5.735.449.773.345.621-.48.538-.094.368.229.23,1.047.356,1.465.331.795.331,1.37.311,1.766-.518,1.255-.883.575-.034.6.229.544v.442l-.16.816.265.491,1.353.848,2.708,1.453.943.331.986-.062,1.056-.2.8-.552.378-.544.848-.826,1.574-.442,2.156.012,1.171-.053.656-.638.835-.773.9-1.2-.071-.931-.242-2-.081-1.59.9-1.161.1-.377.287-.084.495.084.391.293.434.2.517.3.552-.242.321-.459.332-.649.1-.847-.149-.91.574-.883,1.606-.889.584-.407.093-.7-.149-.638-.414-.984-.441-.837-.1-.691.563-1.852.54-.627.288-.638-.023-.513-.24-.43-.253-.5.011-.46.205-.512.254-.491.537-.313.736-.01,1.1-.429,2.582-.021h1.883l1.192-.041-.469.732-.517.837-.506.753-.149,1.987.71.942,1.675,2.008,2.208,2.908,1.685,2.28.552,1.276,1.046,1.821,1.191,2.176.792,1.359.655-.648.747-.9.813-1.34,1.091-.1,1.345.48,1.812.732,1.091.442,1.629-.041,1.619-.442,1.708-.857,1.044-.189,2.181.481,1.148.48,1.545.607,1.545.273,1.148-.628.526-.231.564.544.607.68" transform="translate(-1626.52 -249.806)" fill="#908edc" stroke="#fff" stroke-linecap="square" stroke-linejoin="bevel" stroke-width="1" fill-rule="evenodd"/>
    <path id="_94_Bhadravati" data-name="94 Bhadravati" d="M2224.349,805.982l-1.1.43-.736.01-.536.315-.255.491-.205.513-.012.459.252.5.24.43.022.513-.285.638-.541.627-.562,1.851.1.69.441.837.412.984.15.638-.094.7-.584.407-1.607.89-.574.883.148.91-.1.847-.332.648-.321.46-.552.242-.518-.3-.441-.2-.388-.293-.494-.084-.288.084-.1.377-.895,1.161.081,1.591.242,2,.071.931-.9,1.2-.838.773-.656.637-1.168.053-2.159-.012-1.571.442-.85.826-.379.544-.8.552-1.058.2-.986.062-.942-.331-2.708-1.454-1.354-.848-.263-.491.161-.816v-.442l-.23-.544.036-.6.883-.575.517-1.255-.312-1.766-.331-1.37-.331-.8-.355-1.464-.23-1.046-.368-.23-.54.094-.619.48-.773-.344-.734-.45-.689-.5-.111-.566.149-.679.221-.523.414-.47.413-.386.31-.482.239-1.673-2.19-.5-1.32.168-.677.262-1.356.533-.723.074-.161-.471-.171-.449-.423-.011-.449.523-.441.482-.621.532-.3.7-.221.8-.2.7.221.649.873.271.643.367,1.031.418.414.094.391.71.481.922.173.931-.631.523-.679.1-.606.084h-.942l-.242.283.347.386.985.137.344.209.069.386-.013,1.057-.628.429-.344.355-.24.481.354.847-.575.68-.563.722-.6.365-.86.062-.561-.041-.7-.188-.862-.126-.529.042-.632.11-1.283.2-.069,1.141-.229.984-.332.638-.11.785-.757.522-.993.628-.7.627-.447.365-2.237-.084-1.182.544-1.893.732-1.367.67.111,5.826,1.184.512.906.6.734.617.655.46.471.552.08.607-.137,1.1-.506,1.392.483.511.068.4-.286.417-.242.366.585,1.4.011.711-.068.605-.4.366-.482.764-.62.442-.506.511-.422.552h-.331l-.1-.356-.092-.575-.378-.331-.9-.376-.619-.2-.929-.345-.6-.23-.506-.533-.138-.753-.011-.838-.08-.763-.459-.681-.518.063-.6.053.093.46.136.262.08.522-.207.543-.057.5-.221.272-.126.021-.654-.2-.3-.147-.184.387-.067.522-.208.618-1.01.564-.87.11-3.936-.272-.656-.355-.149-.711-.322-1.591-.54-.24-.207.084-.425.448-.526.378-.826.052-1.113-.042-.574.031-.265.157-1.089.857-.747.011-.6-.272-.619-.45-.756-.442-.655-1.35-.425.221-.046.68-.31.847-1.137,1.4-.307.6-.576.241-.815.271-2.236.031-1.253-.1-.528-.031-.357.221.241.231.369.442.254.389.022.543-.322.428-.563.543.069.346,1.676,1.286.662.91.343.565-.127.491-.125.442-.045.407.286.377.688.178.793.283.586.283.32.732,1.6,1.381.8.586.161.689.436,1.767.182.606v.543l-.366.471-.527-.022-.76-.272-1.192.294-2.022.48-.983.158-.678.094-.63-.074-.265-.4-.149-.742-.184-.722-.068-.732.011-.442-.722-.331-.6-.188-.527-.063-.4.158-.644.292-.441-.063-.357-.7-1.008-.135.045-.177-.3-1.229-.367-.8-.311-1.412-.08-.594-.1-.52-.3-.421-.919-.561-.791-.544-.689-.34-.814-.029-.541-.028-.481-.3-1.3-1.1-.32-.448-.38-.509-.127-.481.047-.935.151-.725-.059-.758-.149-.71-.516-1.467-.448-.713-.745-.883-.3-.418-.057-.307V848l.045-.465.161-.623-.058-1.061-.287-.418-.32-.351-.459-.331-.46-.221-.506.039-.517.584-.39.163-.813.211-1.631-.221-.529-.187-.366-.192-.424-.295-.184-.317-.057-.731.239-.781.331-.374.274-.584.15-.628-.034-.635-.057-.442-.4-.442-.425-.221-.86-.272-.4-.136-.435-.255-.62-.476-.468-.538-.908-1.18-1.114-1.343-.528-.725-.356-.413-.411-.432-.288-.165-.654-.552-.8-.465-.516-.521-1.056-.793-.391-.481-.632-.669-.656-.317-.733-.357-1.147-.283-.436-.011-.484.1-.5.261-.482.307-.552.3-.619.142-.734-.011-.722-.181-.264-.278-.413-.284-.253-.4-.138-.347.057-.331.059-.413.09-.59.151-1.766.11-.492.412-.374.367-.056.449.022.414.018.344-.051.276-.148.25-.374.184-.481-.423-.98-.494-.963-.655-.986-.861-.617-.586-.351-.459-.171-.284-.01.034-.669.032-.351.148-.341.253-.158.563-.023.617.137.668.045.964.249,1.64.11.677-.023.563.331.195.5-.011.521.151.782.247.749.221.374.735.17.689-.056.85-.045.193-.442.116-.509.16-.76.572-.42.518-.11.413-.375.287-1.462.391-.669.457-.9.231-.552-.035-.656-.354-.715-.517-.363-.011-1.462.111-.838.541-2.005.16-.761.287-.7.468-.239.725-.26.607-.182.737.057.471.34.883.351.722-.9.662.1.265-.012.345-.227.4-.521.541-.43.423-.148.655.183.609-.092.712-.331.643-.306.275-.464-.01-.68.023-.454,1.042-.089.355-.181.174-.488.068-.521.081-.782.127-.385.552-.431.388-.465.381-.93.435-3.117.263-.454.633-.532.631-.158.906-.181,1.423.17.424-.374.228-.635.126-.552-.111-.662-.286-.272-.518-.124-.528.012-.275-.221.182-.5.344-.94,1.228-.08.331-.262.39-.442.4-.521.275-.552.3-.477.644-.975.171-.453.138-.476.413-.3.838.1.663-.181.366-.251.441-.17.54.012.6.669.253.509.573.713.587.251.607.1.482.331.379.589.552.552.413.272.517.331.78-.11.138-.465-.276-.477.322-.543.663-.193,1.032-.4.519-.465.87-.692.39-.418.322-.431.38-.566.357-.454-.046-.532-.323-.374v-.4l.528-1.394.265-.351.493-.883.47-.34.47-.159.633.237.723.136.482-.045.942.045,1.192-.124.012-1.3-.677-.662-.277-.306.035-.532.368-.442.471-.782.85-1.836.253-.237.586-.26h.708l.944.136.733.079.61.034h.6l.161-.362-.069-.521-.448-.552-.171-.4-.058-.317-.056-.477-.22-.295-.185-.34.221-.442.367-.284.678-.023,1.09-.044,1.676-1.224.674.044.62.295.586.476.861.306,1.023-.283-.253,2.492,1.168-.691.441-.2.988-.2.86-.1,1.766.11,1.228.137.849.033,1.054.08h1.025l.857-.181,1.309-.488,2.466-.713.528.763.448,1.26.322.74.034,1.113-.221.972-.253.635-.221.662.036.712.322.552.425.254.711.1,1.146.05.712-.043.987-.008,1.663.014,1.849-.063.663.007,1.779-.043h1.391l1.525.148,1.274.281.917.07.436-.241.643.05.448.543.662.442,1.388.034.773-.169.642-.168.663.1.792.069.574-.168.773-.346,1.091.007,2.342.11,4.14-.07.85-.254,1.031-.161,2.962-.022,1.756-.221,1.79-.013.745.007.057.436-.138.368-.355.465h-.483l-.7.136-.491.12-.7.161-.4.241-.5.424-.369.331-.274.3-.92.3-.676.4-.276.42-.356.684-.518.617-.609.994-.276.4-.08.507.172.351v.35l-.2.442-.594.935-.906.915-.541.6-.7,1.365-.39,1.167-.253.988-.022,1.282-.046,2.087.552.466.516-.136.39-.313.495-.08.619.068.538.168,1.286.188,1.7-.068,2.066.393.241.386-.011.575-.355.45-.185.533.9.662,1.247.46,1.115.241,1.08-.11.928-.3.994-.262,1.009-.189,2.078-.662.814.418.149,1.1.441,1.38-.966,1.924-.663.5-.517.442-.536.462-.448.428-.391.552" transform="translate(-1630.301 -254.522)" fill="#5a58a3" stroke="#fff" stroke-linecap="square" stroke-linejoin="bevel" stroke-width="1" fill-rule="evenodd"/>
    <path id="_380_Ballarpur" data-name="380 Ballarpur" d="M2222.616,903.3l-.906.72-.424.773-.381.47-.308.586-.16.4-.127.512-.023.511.161.315.526.314.264.063.633-.242.595-.24.621.166.388.368.495.3.872-.345.7-.042,1.114.136.964-.021.907-.021-.047,2.112-.07.857-.228.65-.988.1-.745-.262-1.08-.178-.539.051-.975-.23-.631-.167h-.816l-.827.124-.424.084-.894.158-.735-.883-.573-.491-1.023-.963-1.525-.46-.7-.428-.883-.627-.662-.859-.688-.575-.965-.627-1.743-.6-.9-.669-.517-.7-.609-.67-.6-.627-.9-.606-2.055-.7-1.756-.95-1.252-.575-.893-.449-.964-.566-.737-.544-.746-.512-.951-.178-1.5.2-1.63.346-1.458.209-.976-.209-1.868-.42-.955-.23-3.3-1.471-2.7-1.139-1.79-1.37-.86-1.15-.023-1,.321-.565.54-.513.308-.356.207-.544.045-.523-.057-.711-.469-.794-.677-.512-.564-.283-1.7-.442-1.147-.753-.773-.638-1.366-1.068-.745-.7-.712-.47-.781-.386-1.125-.4-.711-.031-.608.084-.607.157-2.077.157-.954-.161.241-.729.22-.669.607-.46.23-1.089-.908-1.234-.1-.732.207-.816.092-2.05.356-.482.974-.272h.781l.311-.062.1-.4-.035-.4-.274-.419.253-.585.516-.4.586-.251,1.009-.419.838-.273.988.084.034,1.317.23.294.655.481.915.648.735.063,1.46-.188,1.4-.482.713-1.129.826-.847.574-.533.584-.137.724-.094,1.214.231.884.91,1.505,2.75,1.456,2.176,1.124,1.325.482,1.276.045.648-.11.785-.11.46-.561.511-.621.7.068.826.722.7,1.546,1.893.321.544.391.136.686-.031h.793l.183.449-.126.429-.011.511.206.331.413.325.861.188.3-.428.3-.552.3-.366.414-.125.412.293.288.283.3.063.5-.168.379-.022.367.147v.221l-.275.331-.378.262-.287.241-.207.806.081.512,2.568.021.793.073.976.157.677-.041.688.031.586.387.47.442.426-1.276.584-.575.618.3h.46l.781-.209.678-.21.858-.239.07-.252.2-.763.195-.6.552-.543.643-.262.253-2.616.045-.984.01-.7-.275-.442.39-.6.6-.331.756.021.312-.357-.059-.48-.172-.922-.561-3.086-.711-1.831-1.215-2.249-.275-.45-.332-.585-.11-.7.23-.491.356-.649.137-.858-.355-1.276,1.032-.179.576-.063.607-.021.6.147.495.638.309.552.311.544.5.648.529.46.585-.095.263-.407.034-.711-.171-1.266-.47-.281-.092-.523.264-.4.436-.167.757-.146.111-1.048.11-.4.047-.857-.161-.544-.078-.576.331-.209,1.333.3,1.261.094,3.593-.209,1.545.627.987.178.94.272.816.178,1.159.1,1.766.084,2.754-.073.585-.021,1.08.21.893.262.92.627-.276.552-.251.315-.3.365-.492.344-.607.344-.609.419-.748.324-.356-.03-.448.25-.136.346.205.491.391.386.252.284-.01.47-.127.627-.322.323-.517.293-.457.378v.449l.286.442.184.638.138.649.435.251.712.2.242.522-.1.449-.242.262-.38-.146-.562-.2-.677-.062-.63.011-.942-.094-.16.146.07.262.447.252.46.272.552.325.185.251-.127.721-.11.566v.8l.11.869-.011.753-.331,1.894-.161,2.386-.229,2.259-.3,1.966-.5,2.176.32,3.159-.689.753-.965.063.61,1.13,1.379.941.482.732-.1.732-.86.418-.838.442-1.067.753-.942.607-.631.773-.92,1.656-.183.8-1.032.272-.458.189-.288.838" transform="translate(-1620.711 -241.072)" fill="#908edc" stroke="#fff" stroke-linecap="square" stroke-linejoin="bevel" stroke-width="1" fill-rule="evenodd"/>
    <path id="_382_Saoli" data-name="382 Saoli" d="M2263.03,799.991l1.076-.052.7.177.734.543.32.126.391-.021.149-.3.16-.783.561-.575.436-.272-.024-.427-.4-.418.011-.3,1.672-1.775,1.112-.331.823.084,1.261.386.483.512.321.47.32.168.391-.4.387-.408.378-.167-.138,1.086-.046,2.87.092,1.5-.286.188-.6-.231-.653-.084-.7.094-.424.331v.522l.39.784.584.7.792.662.309.01.491-.157.494-.331.631-.2,1.411,1.317.616.385.79.11.954-.543.435-.461.38-.971.08-.647.184-.584.331-.388,1.364-1.148.368-1.316.263-.469.505-.167.629-.442.285-1.148.206-.951-.5-.5-.552-.669.091-.856.276-.483.412.272.435.032.356-.448.413-.282.241-.387-.091-.6-.117-.459-.377-.606v-.251l.207-.4.012-.262-1.237-.878.458-.564.323-.606.663-1.3.343-.47.736-.043.687.564.081.627-.22.71.149.331.492-.209.4-.387.149.25-.139,1.023.11.491.149.4.54-.094.826-.584.572.01.773-.21.721-.189.94.552,2.338,1.284,1.055.188,1.283-.1.87-.4.735.063.8.209.414-.23-.139-.647-.125-.3.194-.323.264-.365-.127-.6-.434-.419-.493-.166-.516-.11-.425-.375-.343-.8-.276-.773-.148-.763-.081-.815.253-.867.733-.11.838.239.768-.073.468-.1.609-.386.342-.281.518-.074.607-.365.138-.662.194-.481,1.008-.229.493-.585.221-.71.25-.752.722.585.355,1.148.252.647.835.564.584.1.838-.084,1.134-.418,1.271-.773,1.169-.586,1.5.126,1.445.877,1.681.747-.307,2.511.1,1.546.552,1.84,1.686,1.713,2.475,2.34,2.291,2.257,1.215,1.435,1.318,1.964,1.247,2.089.632,2.256.148,2.068-.321,1.214-.893,1.023-1.877.731-1.215.209-2.312.418-2.2.584-3.072,1.5-2.208,1.462-1.49,1.877-1.729,2.736-1.5,4.073-.562,1.921.435,1.755.938,1.483,2.085,1.5,2.531.961,2.383.565,3.289.944.457.152.986.862.849.986.526,1.243.723,1.686.515,1.656.321,1.3.264,1.445.207,1.473.228,1.39.322,1.467-.058,1.056.161.96.252,1.067.3.934.378.941.194.313.287.49.242.829-.057.95-1.193,2.305-2.176,3.258-3.769,5.389-3.747,3.879-3.38,2.472-2.154,1.315-2.68.711-2.649-.263-2.416-.8-2.8-1.773-.948-.819-.482-.711-.653-2.145-.275-2.113-.94-3.9-1.237-2.532-2-1.337-2.291-.1-3.518.013-2.085.35-1.936.837-.459-1.13.1-.511.275-.846.584-1.462-.8-1.514-1.354-1.775-1.365-1.075-1.006-.585-1.147-.679-.24.251-.687,1.435-3.312-1.411-1.546-1.409.173-.931.552-1.077-.62-.815-.529-.146-.618-.147-.138-.364v-.662l-.172-.67-.264-.406-.389-.522-.675-.084-.711-.021-.2-.522-.184-.835-.654-1.421-.468-.8-.447-.679-.743-.9-.539-.784-.459-.011-.733.543-.608.543-.607.96-.709.356-.323-.5.068-1.452.1-1.032-.069-.552-.309-.48-.458-.574-.676-.662-.047-.972v-.331l-.023-.751-.285-.533-.014-.586.448-.375.47-.742.159-.929-.343-1.023.022-.564.689-.711.412-.626,2.649-.662.757-.156.814-.3,1.384-.49.552.084.471.251.378-.1.447-.574.125-.662-.11-.7-.378-.617-1.112-.417-1.124-.188-1.178-.221-.46-.209-.5-.753-.171-.616-.185-.731.034-.648.184-.647-.3-.49-.56.042-.38.386-.195.815-.066.481-.441.563-.4.021-.779-.252-.653-.312-.8-.419-.526-.459-.011-.7.1-1.014-.263-1.435.24-.678.31-.469.366-.331.529-.188.147.365.3.281h.411l.263-.662.127-.207.355.178.458.343.434.01.356-.167.057-.543-.034-.481-.654-.2-.618-.147-.242-.877-.32-.637-.093-.648.035-.6.286-.533.221-.293.3-.442.16-.47-.081-.679-.23-.637-.3-1.012" transform="translate(-1606.785 -252.812)" fill="#908edc" stroke="#fff" stroke-linecap="square" stroke-linejoin="bevel" stroke-width="1" fill-rule="evenodd"/>
  </g>
</svg>
