<svg xmlns="http://www.w3.org/2000/svg" width="440.03" height="501.044" viewBox="0 0 440.03 501.044">
  <g id="Chandrapur_District" data-name="Chandrapur District" transform="translate(8240.342 14795.307)">
    <path id="_271303_WARORA" data-name="271303 WARORA" d="M2127.1,868.609l-.9-.035-1.439-.754-1-.624-.591-.547-.155-.576.035-.556.156-.686.8-1.737.415-.764.07-.479-.295-.6-.242-.641-.227-.7-.258-.933-.226-.908-.053-.607.227-.539.556-.652.5-.574.609-.624.334-.7.556-1.189.066-.9-.167-.574-.606-.717-.7-.635-1.771-.761-2.48-1.14-1.35-.5-1.233-.437-.487-.6-.244-.778.122-.721.208-.582-.26-.8-.657-.717-.571-.5-.71-.3-.9-.359-1.074-.539-1.094-.763-.834-.8-.138-.556-.259-3.108.167-1.1v-.786l-.278-.617-1.041-.6-.521-.052-1.024-.052-.918.068-1.28.257-2.014,1.07-1.146.445-.936.334-1.472.1-1.492.085-1.631-.085-3.12-.522-2.2-.772-1.854-.375-1.979-.167-1.44.112-1.474.188-2.2.607-1.749.524-1.18.154-3.921.167-1.717.2-1.145-.112-1.041-.215-.554-.5-.607-.779-.314-.874-.5-1.668-.07-.557.07-.6.38-.562.626-.591.466-.489.589-.616.816-1.031.242-.359.035-.834-.07-.646-.137-.42-.14-.372-.486-.38-.764-.667-1.543-1.066-1.076-1.669-.85-1.37-2.444-3.068.333-.766.574-1.5.464-.844.868-.941,1.528-1.091,2.6-1.256,2.326-.624,1.148-.429.969-.474.744-.791.334-.726.167-.634.106-.5-.175-2-.192-1.428-.312-.736-.587-.782-.849-.766-1.093-1.463-.667-1-.571-.633-.107-.641.142-.823,1.18-1.747.467-.964.347-.687.019-.782-.244-.614-.5-.42-.7-.687-.346-.546-.277-1.47-.158-1.351L2073.5,785l-.362-2.291-.667-2.536.017-1.2.069-1.857.1-.609.227-.452.364-.2.417.157.5-.933.486-.315.626-.055h.642l.608-.063.814-.247.9.008,1.13.072,1.5-.167,1.89-.734.713-.647.849-.649.334-.834.26-.41.138-.364-.052-.389-.851-.362-.668-.292-.667-.182-.556-.148-.208-.42-.294-.36-.292-.4-.384-.435-1.734-.592-.366-.3-.26-.491.167-.322.435-.207.226-.025.485-.017.333-.094.314-.2.155-.444.07-.561.124-.516.225-.347.4-.252.486-.167.711.167.521.334.294.26.315.5.362.552.539.577.415.275.573.127.245.237v.269l-.038.514.07.421.156.324.226.285.38.118.38.152.4-.048.486-.214,1.51-.647.382-.294.624-.207.813-.063.989-.205,1.078-.2.711-.222.918-.294.625-.19.986-.315.5-.3,1.143-.574,1.335-.667.667-.694.47-.522.586-.364.667-.254,1.212.12.591.561.764.624.626.334.834.334.984.239.712-.072h.554l.834-.087h.8l.657.112.746.229.589.1.487-.057.519-.025.988.072.921.324,1.265.252,1.073.017,1.2.315.382-.022.45-.12.488-.417.334-.1.138-.045.622.15.466.26.609.142.435-.033.4-.284.262-.442.334-1.026.314-.531.642-.536.884-.647.452-.689.155-.577.205-.9.279-.767.761-.6.434-.482.156-.38.312-.939-.415-1.762v-.926l.087-.3.4-.269.868.1.953.023.886.26.711.087.885.057.988-.26.277-.222.625-.427.347-.244.167-.3.085-.537.122-.284.4-.1.415.229.468.482.469.7.8.783.242.275.244.372.45.719.157.459.225.757.207.349.365.244.364.118.347-.133.333-.41.19-.315.292-.419.314-.334.556-.207.434-.427.345-.3.207-.522.052-.586.227-1.622.277-.552.452-.552,1.283-1.383.121-.657.07-.971.122-.349.6-.205.414-.182.314-.127.484-.188.244-.531.262-.554.552-.773.227-.182.417-.04.659.134.694.2,1,.247.729.142.521.189.313.355.168.37.38.571.9.167.468-.135.192-.334.434-.15h.589l.4.08.085.284.052.5.242.229.609.1.085.254-.048.544-.09.537-.085.529.085.372.123.142.347.015.519.127.347.315.312.451.644-.1.432-.142.743-.364.989-.244,1.51-.112,1.2.167,1.036.259,1.233.372,1.474.412.9.41,2.186.472,1.041.127,1.213-.1.764.023.934.08.868.294.834.412.153.465.138.609.244.616.313.157.538.372.469.262.782.11.554.038.973.064.521.078.334.269.667.729.362.334.556-.048,1.285-.821,2.547-1.32,1.06-.214.085-.355-.018-.667-.156-.641.14-.624.4-.626.519-1.081.883-.886.642-1.216-.034-1.123.12-1.051.279-1.066.085-.4.279-.167.5-.11.972-.055,1.5-.015.431.055.522.1.5.22.334.405.486.451.589.347.415.3.365,1.231.762,1.318.4.777v.566l.122.394-.226.652-.208.42-.087.349.191.557.692.746,1.25,2.268,2.134,1.55,1.25.744.137.7-.018,1.046-.034,1.113.257.991.279.926.347.834.07.769.334.893.624.854.919.856,1.891.6,1.7.547,1.4.359,1.46.292,1.262.309,1.235.274.64-.118.167-.834-.207-1.216.019-1.183.086-1.181.866.1.521.189.609-.8.347.8.067.856.971.789,1.475.566.8-.153,1.093-.566-.05-.634-.4-.549-.167-.581.347-.684.587-.344.45-.412.087-.651-.157-1.44.3-2.169.26-.771-.086-.773-.38-.41.624-1.061.365-1.388-.3-1.011-.277-.667-.019-.686.382-.821.47-.823,1.61-2.4,1.061-1.678.745-1.37,1.038-1.183,1.6-1.42.452-.874-.294-.651-.1-.547.642-.412.8.137.227.7-.017,1,.208,1.557.244,1.011.4.721.521-.1.4-.667.192-.856.363-.8.834-.167.639-.017,1.009-.207,1.143-.257.573-.205.487-.481.261-.566.279-.684.8-1.353.624-.651.936-.1.571.224.206.5-.137.8-.467.652-.417.871v2.089l.626,1.044.657.737.052,1.5-1.3.908-1.094.943-.954.834-.277.924.537.959.1,1.026-.122,1.046.122,3.152-.642,1.2-.017,1.627.1,2.244-.3,4.2.138,2.466.21,1.422.988.667,2,.976.345.516.539,2.74.692,2.414.954,2.363.5,2.037.747,2.466.591,2.381.554,2.586.416,1.815-.451.959-.552.976-.4.873-.4.771-1.112,1.25-3.729,1.078-1.977.738-1.3.274H2238.1l-1.6-.122-1.284-.05-1.856-.207-2.67-.167-1.3.153-1.5.309-.659.309-1.772,1.044.385-3.766-1.543.429-1.3-.462-.884-.721-.938-.445-1.021-.068-2.531,1.85-1.651.068-1.021.035-.551.429-.334.667.277.514.334.445.087.719.086.479.261.6.677.834.1.787-.244.547h-.9l-.917-.052-1.11-.12-1.422-.205h-1.078l-.884.394-.381.36-1.284,2.775-.711,1.181-.556.667-.051.8.417.46,1.022,1-.016,1.971-1.806.187-1.422-.067-.729.067-1.091-.2-.956-.359-.71.239-.711.512-.742,1.335-.4.531-.8,2.107v.6l.487.564.07.8-.539.686-.574.858-.484.651-.592.632-1.318,1.046-.78.7-1.562.6-1,.292-.486.823.417.719-.208.7-1.179.167-.779-.5-.622-.41-.834-.834-.574-.889-.728-.5-.922-.153-.886-.379-.864-1.078-.38-.769-.9-1.011-.816-.017-.667.257-.556.377-1,.275-1.265-.153-.625.46-.209.719-.262.684-.97,1.473-.452.719-.416.834-.608.787-.587.667-.5.394-1.857.12-.521,1.42-.277.754.416.334.8-.017.782.187.432.41.167,1-.189.834-.347.959-.642.566-2.153-.257-1.368.274-.952.239-.956.8-.4.684-.659,4.71-.574,1.4-.588.7-.834.649-.192.582-.121,1.181-.1.787-.262.738-.536.275-1.579.137-.036.686.016,1.028-.416.7-.968.462-1.076.5-.92.138-.989-.275-.642.223-.816.651-.606.787-.519.344-.4.017-1-.155-1.092,1.353-1.335-.53-.708-.514-1.113-.087-.921.274-1.091.394-.712.36-.432,1.061-.244,1.148-.811,3.03-.167,1.266.015,2.209.782.549.536,1.081.05.991-.346.834-.689,1.353-.593,1.013-.433,2.209-.624.566-.781.167-.869.634-.242,1.148-.167.769-.3.667-1.28.068-1.043.085-1.11-.255-.334-.566-.384-1.131-.224-1.181.016-.787-.3-.756-.848-.5-1.024.035-2.481-.167-1.454-.379-1-.067-.937-.207-.85.035-.382.239-.225.516-.052.531-.053,1.011" transform="translate(-10305.779 -15440.164)" fill="#4385ff" stroke="#fff" stroke-linecap="square" stroke-linejoin="bevel" stroke-width="1" fill-rule="evenodd"/>
    <path id="_271312_CHIMUR" data-name="271312 CHIMUR" d="M2190.71,830.756l1.113-1.25.4-.771.4-.873.552-.976.454-.96-.417-1.815-.554-2.585-.591-2.381-.747-2.466-.5-2.037-.953-2.364-.7-2.414-.534-2.74-.35-.516-1.991-.976-.989-.667-.207-1.42-.142-2.466.3-4.2-.1-2.244.017-1.627.643-1.2-.122-3.152.122-1.044-.1-1.028-.537-.959.279-.924.954-.834,1.091-.943,1.3-.908-.053-1.5-.659-.736-.627-1.044v-2.089l.42-.873.466-.652.14-.8-.207-.5-.572-.224-.935.1-.625.651-.8,1.353-.277.686-.26.566-.486.481-.574.2-1.146.257-1,.205-.641.018-.834.167-.362.806-.192.856-.4.667-.519.1-.4-.719-.242-1.011-.208-1.557.017-1-.225-.7-.8-.137-.642.412.1.549.3.649-.452.874-1.6,1.42-1.041,1.183-.746,1.37-1.055,1.678-1.612,2.4-.472.823-.379.823.013.684.279.667.3,1.011-.365,1.386-.624,1.061.379.41.09.773-.262.769-.294,2.169.155,1.44-.085.651-.451.41-.591.344-.344.684.167.582.4.547.052.634-1.093.566-.8.155-1.477-.566-.973-.789-.068-.856-.348-.8-.6.8-.521-.188-.868-.1-.087,1.181-.017,1.181.207,1.216-.167.834-.643.12-1.233-.274-1.263-.309-1.457-.292-1.406-.359-1.7-.549-1.889-.6-.916-.858-.626-.854-.333-.891-.069-.771-.348-.834-.279-.926-.259-.991.035-1.113.018-1.046-.138-.7-1.247-.744-2.136-1.55-1.25-2.269-.692-.746-.192-.556.087-.35.21-.421.227-.652-.123-.394v-.566l-.4-.779-.761-1.318-.364-1.231.242-.24.189-.681.072-2.094.313-.442.377-.205,1.111-1.2.344-.782.244-1.3.382-1.889.293-1.88.434-1.707.192-.933.156-.679,1-.387.277-.04.484-.1.26-.015.667.222.485.245.417.284.334.072.367-.072.257-.3.245-.435.085-.38.05-.459.053-1.241.1-1.218.155-.8.158-.374.347-.2.207-.275.416-.834.917-1.652.693-1.273.919-.834.955-.726.556-.624,1.056-.5.678-.189.848.055.694.142.4-.1.243-.427.486-.118.589-.142.314-.167.167-.435.035-.387.244-.4.676-.5.415-.569.015-1.3.035-1.084.1-1.178.242-.425.365-.5.609-.6.333-.649.192-.806.035-.624v-.719l.037-1.026-.262-.948-.225-2.4,1.078-.634.366-.077.6.04.19.035h.279l.311.075.167.023.154-.052.192-.058.227-.055.293-.018.207.018.1-.1.167-.134.76-.269.3-.065.276-.07.333-.022.314-.015.293-.093.312-.134.779-.1.469-.06.364-.133.624-.209.988-.465.227-.257.345-.123.3.087.609.289.795.472.208.035.333.017.451-.112.244-.043h.31l.434.062.209.142.45.359.382.167.157.065h.19l.245-.053.242-.052.244-.127.207-.15.167-.148.21-.1.225-.025.521.043.293-.047.347-.07.347-.1.207-.167.14-.1.225-.154.19-.053.227.04.123.179.119.205.192.219.167.24.167.01.311-.1.245-.087.225-.072.333-.015.314.047.362.087.486-.04.277-.063.4-.2,1.25-.834.9-.439.607-.2.7-.058.4.023.414.1.225.4.068.407.167.312.205.2.225.182.3.1.609.133.746.167,1.167.157.347.13.167.2.156.334.244.157.6.157.888.245.762.3,1.248.068.764-.023.314-.115.05-.277-.034-.542.5-.742.851-1.118.574-.627.537-.4.5-.254.19-.317.068-.514.07-1.091.14-.769.135-.344.143-.479.013-1.353.035-1.208.275-1.121.02-.991.167-.442.14-.4.262-.417.587-1.086.24-.289.314-.419.207-.5.3-.624.26-.284.192-.234.052-.334.14-.667.293-.756.155-.214.158-.209.209-.158.314-.117.416-.053.208-.272.609-.639.19-.284.139-.235V719.2l.07-.364-.035-1.193-.035-.334-.052-.312-.311-.055-.333.06-.333.127-.26.068-.294-.1-.21-.26-.155-.334.1-.254.244-.471.242-.486.365-.3.591-.254.431-.489,1.168-.988.434-.392.4-.3.3-.407.294-.783.167-.4.122-.442.225-.617.053-.387-.053-.407-.294-.257-.279-.205-.5-.294-.486-.269-.539-.245-.262-.1-.167-.177-.138-.322-.227-.536-.224-.355.015-.5.142-.544.242-.772.137-.307.1-.254.279-.078.314-.043h.434l.592-.058.834.182.1.167.1.456h.279l.589-.19,1.3-.182.419-.122.334-.167.434-.14,1,.017.347-.147.242-.309.07-.1.087-.177.124-.3-.085-.1.013-.167.038-.08.155-.122.138-.11.085.008h.158l.068-.11-.033-.177.087-.135.157-.122.122-.12.334-.017.624.083.607.008.419-.1.333-.148.207.112.262.631.469.087.571.08,1.233.167.347.167.291.3.227.522.19.347.07.632-.138.759-.347.909-.017,1.034.122.529.1.3.192.427.5.222.539.087.816.237.816.452.436.609.068.134.167.087.333.1.156.017.259-.12.244-.047.167.294.4.015.26-.1.26-.133.21-.142.31-.118.3-.2.434-.23.38.088.5.117.279-.07.382-.047.314-.033.31.01.3.167.292.11.225.1.087-.277.158-.127.432.1.642.522.1-.355.278-.167.334.015.365.1.279-.04.243-.19.139-.364.052-.315.292-.04.489-.22.709-.063.517.015.4.2.452.37.4.444.382.214.382.078.279-.22.207-.482.834-.465.626-.1.552-.269.259-.587.626-.442.834-.26,1.078-.4.3-.1.573-.15.847-.569,1.058-.667.869-.649.99-.8,1.076-.467.624-.349.5-.377.5-.681.656-.766.746-1.952.14-.948.345-.355.712-.254.988-.349.521-.275.4-.465.362-.309.279-.5.262-.639.434-.727.886-1.248.223-.5.192-.594.035-.639.223-.374.521-.1.382-.055.59.247.334.359.138.255.122.362.1.145.167.027.224.028.417.05.659.107.487.205.52.154.259.179.434.309.21.307.207.048.1-.142v-.574l.1-.292.369-.294.049-.265-.017-.217-.1-.18-.1-.265-.167-.292.018-.2.122-.23.333-.122.107.088.12.053.159-.053.205.062.487.1.466.094.434.094.333.038.242.047.05-.28.452.087.053-.27.678-.112-.02-.219.07-.551.277.032V689.3l.037-.028v-.447l.573.08.522.139.834.215.334.077.659.125.333.025-.1.15.07.15.138.078.138.008.419-.067.122.067.052.1-.017.192.45.167.243.177-.1.31-.1.239.052.09v.107l.156-.092.242-.224.07.068h.1l-.07.259.052.093.089-.038.07-.013.207.128.052-.025h.12l.038.1h-.21v.1l.1.028.157-.075.02.035.033.23.167.189.205.143.053.032h.118l.1.147.5-.137.089-.06.382-.157h.659l.362-.06.315-.133.224-.055.278.048.138.167.4.05.087-.194.279.082.033-.075.138-.01.347.085.294.067.1.042.052.137.639-.033v-.23l-.07-.052.037-.125.137.03.242.1.167-.047.224-.13.21.028.053.143.052.254.919.107.624.09.192-.062.19.052h.225l.693-.447.641-.274h1.091l.035.676.052.5.017.427.088.023v.489l-.068.369.068.372v.134l.032.3-.032.307.167.167.07.107.018.187.157.02.311-.1.07-.167.157-.13.556-.013.434.085.347.013.5.058.379.028.711.264.312.083,1.06.3.4.085.537.374.939.552v.153l.242.053.469.317.415.247-.033.08-.192,1.018-.414,1.245.087,2.2-.573,2.693.4,1.15.54.691.708.334.667.362.589.36.921,1.15,1.335,1.288.816.512,1,.521,1.129.682.586.447,1.011.5.38.489.209.886-.033.7-.227.617-1.091-.167-1.356-.334-1.575-.629-.539-.776-.689-.969-.47-.362.017.627.167.668-.417.469-.692.554-.624.415-.469.552-.209,1.353-.19,2.533-.727.285-.99.167-1.039.265-.8-.1-.748-.7-.349.4-.087.667.123,1.245.207.6.345,1.256.367,1.023-.764.394-1.2.477-1.8.512-1.473,1.335-1.891,2.226-2.635,2.78-1.13.692-.766.319-1.4,2.4-.5,1.248-.577,2.117L2282,740.956l-.764.746-.205.736.257.394.871.415.813.542,1.443.914,1.317,1.225.886,1.246-.9.6-1.2.692-1.579,1.885-3.465,2.459-.487.532-.382.938-.521,1.427.5,1.235.956.906,1.112.834.9.969.867,1.361.764.779.57.489.417.627-.167.457-.606.374-.5.107-.747.087-.379.062-.333.522v.532l.333.607.486.512.19.989-.382,1.225-.781,1.65-.4,1.268,1.091.5,1.612.1,2.57.032.572.319.137,2.619.035,1.9.434,1.535.3,1.415.641.8,1.493,1.565,1.353,2.938.693.714-.052.734-.225.789-.489.639-.569.287-.9.022-.45,1.335-.155.651.155.8-.019,1.2-.365,1.693-.275.287-.764.637-.451.6-1.043,1.288-.345,1.96.19.724.155.861-.274,1.055-.167.606-.851,1.5-.834,2.076-.382,1.106-.573.577-.5.574-.312-.425-.087-.641-.522-.384-.953-.148-.8.235-.333.667-1.072.182-5.48-.117-3.337.128-.1,3.1.209.667.45.574-.333.694-.538.457.709.586.871.5.167.619.521,1.31.431,1,.227.916.728.873-.035.746-.12.542.069,1.236.19,1.215.279,1.532v1.12l.314,1.193.38.834.3.746.333.554.4.667.314.51.31.766.1.667-.088.7-.538.627-.571.2-.469-.15-.589-.574-.087-1.682-.157-.809-.278-.692-.574-.627-1.141-.724-1.126-.576-2.238-1.668-1.216-.647-1.8-.724-.9-.435-.744-.427-.626.109-.541.435-.015.627.313.427v.564l-.589.691.5,1.168.607,1.033.658.746.747.767.868.692-.053.649.19.586.3.479.07.554-.21.564-.881-.167-1.078-.148-.667.167-.764.364-.536.712-.658,1.14-1.25,2.121-.334,1.075-.037.8.017.834-.033,1.321-.517,1.32-.229,1.363-.157,1.245-.068.667-.417.372-.45-.053-.589-.457L2256.5,845l-.657-.265-.641.19-.625.247-.744.3-.667.285-.606.023-.521-.522-.667-.916.538-.7.207-.554-.085-.659-1.126-.01-2.706.02-2.653.334-4.473.033-1.56.245-1.285.382-6.26.1-3.541-.167-1.644-.01-1.167.522-.869.255-1.2-.107-1-.167-.973.255-1.168.255-2.1-.052-1-.667-.667-.821-.971-.075-.659.362-1.388-.1-1.926-.427-2.306-.224h-2.1l-2.686.063-1-.012-2.79.1-2.518-.02-1.488.01-1.078.065L2194,842.5l-1.075-.15-.641-.382-.487-.834-.047-1.075.333-1,.381-.959.333-1.47-.05-1.682-.484-1.118-.667-1.9-.8-1.153" transform="translate(-10249.998 -15476.056)" fill="#4385ff" stroke="#fff" stroke-linecap="square" stroke-linejoin="bevel" stroke-width="1" fill-rule="evenodd"/>
    <path id="_271310_NAGBHID" data-name="271310 NAGBHID" d="M2278.11,711.317l.228.407.484.39.537.279.451.362.936.8.643.629.229.229.883.119.642-.063.333-.167.641-1.168.556-.05.432-.132-.1-.365v-.651l-.07-.7-.9-.522v-.422l.279-.392-.036-.384-.259-.981-.242-.556-.333-.374-.294-.184-.154-.43.085-.324-.4-.951-.187-.21-.3-.554-.242-.217-.1-.29-.135-.713.188-.966.192-.921.449-.112.9-.242.667-.282.417-.284,1.372-1.6.693-.569.712-.531.7-.442.536-.539-.088-.5.121-.25.7.037.744-.023,1.268.447.849-.08.5.214,1.647.315.746.22.607-.1.537.113.556-.167.644.14.294.018.453-.407.359-.182.557-.192,1.285-.24.624-.082.624-.06.334-.185.557-.132.535.065.779-.2-.14.486-.083.3,1.091.359,1.231.334.1.032.155.3-.333.632.676.667.694,1.059,1.368,1.138-.034,3.02.051.631.261.617.574.774,1.213.632,1.443.742.763.726,1.733.554,1.334.285,1.268-.142.848.032.97.791-.086.679-.5.167-.587.205-.4.916.018,1.962.5.6.935.617.692.681.574.667.667,1.073.258,1.266-.1.869-.729.823-.729.364-1.168.032h-2.1l-1.859.38-1.247.5.192.933.6,1.313.834,2.022v1.535l-.765,1.785-1.35,1.929-.122,1.944-.016,2.419-1.529,2.2-1.528,2.923-.362,1.8-.244.776-.451.679.5.425,3.169-.285.156,1.3-.1.46-.382.442.07.711.884.727.951.633.8.7.955.634,1.145.253.19.774-1.2,1.785-.5.694-.313,1.013.834,1.043.258.5.382.711.167.918-.4,1.406-2.461,2.261-.606.806-.348,1.041-.085.964-.261.679-.555-.093-.678-.475-.9-.743-1.167-.222-1.542-.031-1.475-.08-1.632-.188-.951-.711-.675-1-.626-.427-.7.46-.667.948-1.354,2.227-.764,1.58-.414.948-.365,1.186.4.457,1.282.239,1.145-.157,1.145-.459,1.2-.285,1.385.167.729.586.59.44,1.265.854.851.791-1.181,1.959-.8.918-.384,1.168-.087,1.487.4.7,1.026-.3,1-.237.485.7-.569,2.529-.21,1.582-.167,1.075.363,1.265,1.422.237.072,1.335.225.38.482.4,1,.617.694.916.208,1.343-.035.743.208.948.574.334.609.38.708.681.313.631-.227,1.028-1.318,1.975-3.853,4.488-1.819,1.857-1.111.334-.781.6-.834.757-.951.167-.382-.632-.259-1.4-.729-.584-1.578-.3-.973-.192-.954.167-.687.789-.576.834-.521.537-1.094.175-.224.205.087.474.417.237,1.041.491.226.852-.122.871-.4.743-.989,1.406-1.372,1.47-.708,1.011-.487.934-.1,1.091.295,1.091-.815,2.182-.226.949.366.7.607.791.745.315.952.284.887.158.068.713-1.267.235-.5.157-.238.5.066.964.8.7-.12.9-.554.015-.866-.047-1.026.22-.606.269-.937,1.106-1.2,1.755-1.75,1.644-.294.681.1.774.667,1.28.1.868-.277.744-.92.41-.434-.19-.1-.667-.712-.127-1.042-.167h-1.454l-1.078-.412-.085-1.849-.365-.743-1.145-1.85-.541-.966-.571-1.263-.365-.979-.588-.5-2.185-.667-1.7-.442-1.456.964-2.6.554-.937.015-1.229-.269-.208-.491.068-.759-.484-.933-.712.158-.765.3h-1.091l-.26-.522-.191-.871-.347-.667-.834-.741-.884-.7-2.151-2.136-1.542.175-1.668-.017-.456.711.167,1.011.3,1.028.379.584.317.726.445.759.281.979-.417.539-1.3-.207-.677-.552-.989-.539-3.625-.616-2.669-1.075-1.65-.427-.347-.7-1.335-.871-1.04-.727-.834-.711-1.041-.918-1.078-.806-1.316-.284h-1.421l-.558-.22-.279-.46-.345-.931-.489-.806-.868-.476-.883-.5-.8-.821-.935-.789-.849-1.074-.814-.854-.851-.142-.347.949.227.472.417.334.1.791-.692.933-.539.539-1.058.569-.294.03-.655-.334-.851-.269-.7.334-.694.7-.692.679-.954.679-1.058.11-1.231-.649-1.126-.269-1.2-.285-.467-1.106.1-2.593.5-1,.641-.679.888-.489,1.02-.347,1.617-.586,1.627-1.046.5-.574.571-.577.382-1.106.834-2.076.851-1.5.167-.607.277-1.055-.157-.863-.188-.722.345-1.959,1.04-1.288.454-.6.762-.639.279-.287.364-1.693.02-1.2-.158-.8.158-.652.451-1.335.9-.022.576-.287.482-.639.227-.789.052-.734-.7-.712-1.35-2.938-1.492-1.567-.642-.8-.294-1.415-.434-1.535-.035-1.9-.14-2.62-.573-.319-2.567-.032-1.615-.1-1.088-.5.4-1.268.779-1.648.384-1.225-.192-.99-.485-.512-.333-.606v-.532l.333-.522.382-.062.745-.087.5-.107.609-.374.167-.457-.417-.627-.572-.489-.761-.779-.872-1.361-.9-.969-1.109-.834-.955-.906-.5-1.235.521-1.428.382-.936.484-.532,3.465-2.458,1.581-1.885,1.2-.691.9-.6-.879-1.246-1.32-1.225-1.438-.916-.817-.542-.868-.415-.259-.394.207-.734.764-.746,1.577-1.668.576-2.117.5-1.246,1.407-2.406.759-.319,1.128-.692,2.638-2.78,1.887-2.226,1.474-1.335,1.8-.512,1.2-.479.761-.394-.363-1.024-.349-1.256-.207-.6-.121-1.245.087-.667.347-.405.744.7.8.1,1.041-.265.991-.167.726-.287.192-2.533.2-1.353.472-.552.626-.417.694-.554.414-.469-.167-.667-.015-.627.467.362.694.968.537.777,1.579.629,1.354.334,1.094.167.225-.617.034-.7-.208-.886-.383-.489-1-.5-.589-.446-1.129-.682-1-.522-.814-.512-1.334-1.288-.923-1.15-.589-.36-.657-.362-.708-.334-.54-.692-.4-1.15.572-2.693-.085-2.2.416-1.245.19-1.018.641.108.086-.048.658.017h.348l.226-.093.382-.018,1.093.068.624.045.47-.1.486-.3.447-.25.367-.269.293-.132.192-.115.207-.047.45-.19.09-.229.225-.18.118-.254.279.32.347.394.589.432.658.384.243.726.167.724.532.858.3.394.035.207-.035.2-.167.3.138.864.366.667.381.534.208,1.11.667.122.954.147.485.145.349-.119.606-.12h.833l.4.035.351.129.6.334.553-.022.715.063.485.1.486-.025.955.11,1.368.254,1.168.649.746.3.5.516.834.421,1.056.347.957-.035.5.616.085.784-.138.475.017.667.191.2.032.167v.355l-.259,1.168.259.285.278.249.868.692.608.419,1.279.519.3.057.919-.362.347.083.334.055.432.083.592-.082.333.062.227.055.468.249.156.148" transform="translate(-10193.213 -15472.845)" fill="#4385ff" stroke="#fff" stroke-linecap="square" stroke-linejoin="bevel" stroke-width="1" fill-rule="evenodd"/>
    <path id="_271311_BRAMHAPURI" data-name="271311 BRAMHAPURI" d="M2264.9,826.3l-.069-.712-.884-.159-.954-.285-.748-.315-.6-.791-.364-.7.225-.948.813-2.182-.3-1.091.107-1.091.484-.933.712-1.011,1.37-1.47.988-1.4.4-.742.122-.871-.227-.853-1.041-.491-.416-.237-.085-.474.225-.205,1.093-.167.521-.537.569-.834.694-.789.956-.167.971.192,1.582.3.726.584.259,1.4.384.632.953-.167.834-.757.781-.6,1.111-.334,1.821-1.857,3.849-4.49,1.318-1.974.227-1.03-.314-.631-.712-.679-.606-.379-.571-.334-.208-.948.035-.742-.21-1.343-.693-.916-1-.617-.487-.4-.225-.38-.07-1.335-1.423-.239-.359-1.265.167-1.076.205-1.582.573-2.528-.486-.7-1,.235-1.023.3-.4-.7.085-1.487.382-1.168.8-.918,1.178-1.96-.848-.791-1.265-.853-.592-.442-.729-.586-1.39-.167-1.194.287-1.143.459-1.145.157-1.285-.237-.4-.457.365-1.186.414-.948.764-1.58,1.353-2.229.677-.949.694-.459.622.427.667,1,.956.711,1.629.188,1.477.078,1.54.032,1.168.222.9.742.676.476.556.093.26-.679.085-.964.347-1.043.607-.806,2.464-2.262.4-1.406-.167-.918-.382-.712-.26-.5-.834-1.043.312-1.013.5-.694,1.2-1.787-.192-.772-1.145-.254-.956-.632-.8-.7-.953-.632-.884-.727-.07-.711.384-.442.1-.459-.154-1.295-3.17.284-.5-.427.45-.679.242-.774.364-1.8,1.528-2.923,1.523-2.2.017-2.419.122-1.944,1.352-1.927.764-1.787v-1.563l-.834-2.022-.6-1.313-.192-.933,1.248-.5,1.858-.379h2.1l1.168-.032.727-.365.731-.823.1-.868-.26-1.266-.667-1.073-.572-.667-.693-.681-.939-.617-.5-.6-.015-1.962.4-.916.59-.207.5-.167.087-.679-.969-.791-.851-.032-1.265.143-1.335-.285-1.735-.554-.759-.727-1.441-.744-1.215-.631-.574-.776-.26-.617-.05-.631.032-3.02-1.37-1.138-.692-1.059-.678-.667.334-.634-.156-.3-.1-.03-1.231-.334-1.091-.359.085-.3.14-.485.364-.961.122-.262.434-.667.209-.814.035-.7.122-.858v-.521l.1-.38.47-.385.225-.377-.087-.215.138-.092.122-.117.242-.055.207-.043.1-.4-.017-.414.1-.262.018-.521.138-.742-.278.127-.26-.12-.4-.07-.207.027-.167-.078-.345-.282-.037-.078-.017-.225.07-.309-.035-.094-.207-.058-.469.2.017-.087-.035-.147.07-.479.19-.7-.14-.038.122-.522.053-.23.12-.542.1-.3.087-.224.167-.362.334-.834.037-.21.155-.547.19-.667.033-.247.157-.787.087-.416.139-.143.208-.784.711.08,1.388.27,2.1.726.05.028.592.24,2.5,1.678.9.677,1.58,1.108,1.6,1.086.192,1.15.744,1.683.849,2.561,2.443,2.5.991.617.537.055,4.89,1.982,2.117.854.345.167.417.309.19.424,2.582,1.5,1.251.739.192-.365.085.045,2.114.791,1.647.032,1.735-.22,2.1-.522,2.776-.9.539-.324,2.426-.4,2.518-.522.667-.14,2.413.015.677.269.711.482.414.349.693.576,1.545,1.48,1.682,1.051.574.631.834.175.642.277.626.167.31.088.973.157,1.63.419,1.7.572,2.256,1.16,1,1.044.519,2.214.5,3.287.884,4.018.539,3.572.05,3.826-.243,6.07-.259,6.891-2.151,7.493-1.318,2.151-1.266,2.593-.07,2.024.729,1.865,2.188,1.643,3.12,1.076,1.406.979,1.2,1.487.625,1.739-.123,2.529-.968,6.8-.138,2.75V779l-.539,3.224-.659,2.656-.851,6.165-.486,3.287-.435,3.035.243,3.7,1.562,1.9,2.836,1.991,2.047,2.336,1.422,3.287.709,3.1-.761,2.656-.607,1.668-.729,2.97.314,2.336,1.418,2.716,2.569,3.289.886,1.835.053.485.259,2.361-.312,2.5-2.186,2.528-2.55,2.307-3.229,3.5-1.14,2.371-.539,4.014-.262,2.081-2.548-1.133-2.184-1.335-2.274-.19-1.767.886-1.925,1.168-1.717.632-1.266.127-.884-.157-1.267-.856-.382-.979-.538-1.737-1.094-.886-.38,1.138-.334,1.074-.744.886-1.527.347-2.335-1.548-.918-.411-2.688-1.3-3.244-1.233-8.9-2.024-3.035-.569-2.271-.222-1.682.347-2.2,1.013-2.079.821-1.835.537-2.308.254-2.836-.222-3.626-.347-3.17-.667-2.2-2.373L2274.84,840l-2.5-4.094-3.17-4.171-2.653-3.651L2264.9,826.3" transform="translate(-10162.615 -15479.092)" fill="#4385ff" stroke="#fff" stroke-linecap="square" stroke-linejoin="bevel" stroke-width="1" fill-rule="evenodd"/>
    <path id="_271309_SINDEWAHI" data-name="271309 SINDEWAHI" d="M2212.17,794.652l.677.916.518.522.609-.023.667-.285.746-.3.626-.247.641-.19.667.265.469.415.587.459.451.053.417-.374.07-.668.157-1.245.224-1.363.522-1.32.034-1.321-.019-.834.037-.8.333-1.074,1.25-2.121.667-1.14.536-.713.763-.362.667-.167,1.076.148.884.167.208-.562-.067-.556-.295-.479-.191-.586.052-.649-.87-.692-.748-.766-.659-.746-.606-1.031-.5-1.168.589-.691v-.564l-.313-.425.018-.627.536-.435.626-.107.746.427.9.436,1.8.724,1.211.649,2.241,1.669,1.128.576,1.143.723.572.627.279.692.155.809.086,1.682.589.574.469.148.572-.2.537-.627.087-.7-.1-.667-.311-.766-.313-.512-.4-.667-.334-.554-.293-.746-.382-.834-.312-1.193v-1.12l-.278-1.533-.19-1.213-.07-1.235.118-.542.037-.746-.729-.871-.226-.916-.432-1-.521-1.31-.167-.617-.868-.5-.712-.584.539-.459.333-.694-.452-.574-.207-.667.1-3.1,3.329-.128,5.479.118,1.078-.182.333-.667.8-.237.956.15.518.384.085.639.313.426-1.628,1.048-1.613.584-1.023.349-.885.489-.642.679-.5,1-.1,2.593.467,1.106,1.2.285,1.129.269,1.229.649,1.062-.11.951-.681.692-.681.7-.7.694-.334.851.269.657.334.294-.032,1.056-.567.539-.537.694-.933-.1-.791-.417-.334-.225-.474.349-.948.848.142.818.853.849,1.076.939.787.794.821.885.5.867.475.487.806.347.931.277.459.556.22h1.42l1.318.284,1.076.807,1.04.918.834.711,1.04.727,1.334.871.347.7,1.647.427,2.669,1.075,3.625.616.989.537.667.554,1.3.207.416-.537-.277-.979-.45-.759-.314-.726-.38-.586-.3-1.028-.155-1.011.452-.711,1.668.015,1.545-.167,2.149,2.134.884.7.834.743.342.667.192.871.26.521h1.095l.764-.3.709-.157.486.933-.069.761.207.489,1.231.269.938-.015,2.6-.554,1.455-.964,1.7.442,2.182.667.594.5.36.979.571,1.263.539.964,1.146,1.85.364.743.086,1.849,1.078.41h1.455l1.043.167.709.127.1.668.432.19.921-.411.277-.744-.1-.868-.667-1.281-.1-.774.292-.679,1.752-1.643,1.2-1.755.933-1.106.61-.269,1.021-.22.868.047.556-.015.122-.9-.8-.7-.07-.964.244-.5.5-.158,1.267-.235,1.612,1.785,2.653,3.651,3.169,4.171,2.5,4.094,3.521,4.338,2.2,2.371,3.17.667,3.627.347,2.825.222,2.31-.252,1.835-.539,2.082-.821,2.2-1.013,1.682-.347,2.274.222,3.033.567,8.9,2.024,3.242,1.231,2.688,1.3.921.41,2.336,1.55-.3.728-.208,1.011-.916.552-.783.11-.521.427-.919.584-.711.157-1.168.11-1.265-.362-1.111.167-.381,1.311.122,1.233.224,1.155.416,1.168.522,1.218.643.569.781.167.744.25.667.632.19.9-.4.554-.3.489.191.461.21.979-.626.347-1.216-.316-1.106-.1-1.318.6-1.988.164-1.6-.285-3.539-1.944-1.418-.834-1.095.285-1.168.317-.864-.015-1.25.884-.814.142-.224-.6-.167-.744.207-1.548-.227-.38-.6.586-.746.315-.227-.5.333-1.074-.122-.948-1.041-.853-1.108.063-.521.711-1,1.975-.487.918-.7.853,1.874,1.335-.017.394-.312.6v.379l.569.918.167.7.14.916-.365.587-.624.427-.538.679-.667-.048-.625-.41-.414.727-.139,1.3.834,1.013.761.757-.31,1.44-.434,1.739-.954.668-.763.254-.4.711-.555,1.992-2.064,1.738-.5.586-.277.884-.122.981-.574,1.472-.657.7-1.44.823-1.2-.167-.937-.584-2.129-1.994-.956.3-.746.5-.745.237-.467-.015-1.2-1-.883-1.056-.589-1.186v-.791l.641-.5,1.056-.142.99.127.9.349.43-.285-.138-2.277.07-4.346.208-1.645-.57.253-.592.617-.591.6-.486-.254-.483-.711-.729-.776-1.909-.584-1.251-.127-1.679.5-2.533,2.688-.019.459.609.632.034.647-.658.41-.849.871-.244,1.185-.229.459-.587.032-.482-.192-1.113-.821-1.058-.267-1.632.078-2.116.112h-1.215l-.969.142-.991.474-.447.679-.1.886-.4.457-.782.269-.3.711.28,1.335v.821l.416.981.59.425.708.112.643-.569.8-.522.4.49-.207.791-.052,1.185-.086,1.121-.591,1.155-.9.63-2.566.981-1.318.364-1.058.065-.883.22-.4,1.013-.21,1.074-1.057.726-2.255-.6-.554-.3-1.041-.347-.729.017-1.668,1.6-.694,1.31-.659-.222-.416-1.233-.7-.285-.277,1.423-.988,1.168-.5-.032-.728-.884-.572-.729-2.045,1.14-2.963,1.011-1.215.315-1.388-.188-1.268-.19-1.68.062-.347.7-.851.569-1.353.634-.347.853.592,1.011.572.729.538.315,1.231-.03,1.3-.569,1.111.254-.419,1.548-.467,1.58-.642,1.835-1.263,2.528-.938,1.835-1.56,1.929-.471-.269-.916-1.029-.849-.823-.8.349-1.733.949-2.336-.412-2.335-.916-1.735-.727-3.3-.728-1.577.287-2.584,1.295-2.446.667-2.461.062-1.648-.667-2.74-1.106-2.031-.727-1.645.158-1.231,2.022-1.129,1.36-.988.979-1.2-2.055-1.8-3.287-1.58-2.75-.834-1.929-2.548-3.445-3.337-4.4-2.533-3.037-1.076-1.391.225-3,.764-1.136.779-1.265.712-1.106-1.8.062h-2.836l-3.9.03.589-.834.667-.646.817-.7.783-.668,1-.759,1.455-2.908-.656-2.086-.225-1.66-1.231-.634-3.144,1-1.522.284-1.5.4-1.408.457-1.628.167-1.684-.364-1.892-.7-1.352-1,.279-.808.539-.679.017-.871-.364-.584-3.124-.592-2.564.1-1.942-.285-.818-.254-.937-.1-.741.12-.592.474-.78.207-.834-.7.068-3.153.035-1.937.382-1.5.589-1.764,1.06-2.062.811-.9,1.37-1.383.9-1.413.3-.667v-.529l-.259-.531.122-.766.416-.609.921-1.5.781-.934.536-1.035.414-.634,1.026-.6,1.388-.451.416-.45.556-.5.762-.639.6-.364,1.06-.245.746-.182,1.06-.2.729-.01" transform="translate(-10210.693 -15425.967)" fill="#4385ff" stroke="#fff" stroke-linecap="square" stroke-linejoin="bevel" stroke-width="1" fill-rule="evenodd"/>
    <path id="_271308_MUL" data-name="271308 MUL" d="M2312.99,915.292l-1.614,1.126-.469.41-.469.379-.539.317-1.093-.142-.886-.03-.834.442.467.457.138,1.233-1.3,2.2-.729,1.013-.814,1.422-.851,1.668-.191,1.8.432,1.77.609,1.3,1,1.36.5,1.36-.209,1.233-1.909.379-1.613.41-1.455.317-2.655.6-1.318,1.043-.382,1.453-1.108.886-1.146.158-1.545-.442-1.073-.791-.729-1.668-.155-3.068.417-5.628.122-2.686.726-2.877.122-3.225-.667-1.074-3.38-.757-2.335-.1-3.471-.317-5.322-.7-2.011.315-.728-.065-1.3-.442-1.021-.254-1.421.744-1.145,1.091-.452.789-.467,1.218-.557.854-.086,1,.295.7.1.522-.643.142-1-.142-.9-.552-1.216-.761-1.039.1-1,.077-.641-.711.224-.851.554-.823.643-2.307-.365-1.186-.8-1.722-.379-1.4-.644-.933-.991-.776-2.029-.205h-.729l-.883-.237-.989-.49-.989-.047-1.248.188-1-.347-.554.772.017,1,.018,1.168-.45,1.312-.644.047-.99-.2-1.3-.017-1.316-.048-1.942-.22-2.029-.427-2.271-.4-.99-.475-1.214.316-1.111.412-2.044.284-1.942-.347-2.065-.679-1.263-.41-1.423-.425-.556-.207-.486-.334,1.806-2.876.917-.6,1.168-.444,2.218-.474,4.058.142,1.458-1.075.744-.269.556-.474.5-1.85.4-.868.884-.823.709-.554.728-1.058.922-1.6.746-.757-.886-.522-.919-.522L2242,895.372l-1.682-.713-1.233.078-1.63.349-.259.586.623.616,1.06.537.434.569-.9,1.58-.851.442-1.038.4-1.267.112-1.563.08-1.974-.192-1.335-.521-.971-.586-1.3-.667-1.126-.334-.937-.537-.973-.9-.4-1.028,1.318-1.391,1.182-1.345,1.5-1.6.667-.167.764.032.781.222.432.442.667-.017.606-.616,1.078-.474,1.283-.489.849-.167,1.388-.269.711-.347.99-1.455.711-.616.589-.143.868.269.921.284.656.334.667-.3.537-1.2.537-1.121.522-1.375-.522-.617-.9-.459-.59.205-.656.167-.869-.11-1.077-.19-.708-.334-.9-1.186-.382-1.106-.14-1.335-.244-2.039.5-4.427,1.231-.459,2.188-.239.639-.884,1.425-2.67.659-.459.712-.394.886-.569,1.022-.569,1.057-.315,1.146-.222.988-.442-.414,2.64-1.32,1.106,1.25,1.977,1.959.616,2.132.869,1.3,1.5.691,3.2,2.081-.05.1-3.382,2.847-1.785.853-2.022,2.443.315,1.167-1.485-.469-1.155-4.526.03-1.822-1.233-2.914.791-4.907-2.861.1-.5-.277-.5-.818-1.216-2.808-.3-1.683-.394-1.525-.22-1.438-.444-.834-1,.365-.743,1.056-.269,1.076.521,1.475-.222.015-.711V857.13l-.292-1.091-.366-2.324.4-1.013.155-1.073-.5-.537-.4-.522-.851-1.423-.347-1.438.763-1.138.643-.948.781-1.218.208-.918-.278-.979-.624-1.6-1.2-.679-1.263-.078-.834.015-.453-.5-.5-1.059-.119-.964.641-.5,1.06.235.881.08,1.128-.1.938-.334,2.1.127,1.542.569.762.087.971.253.667.127,1.178.142,1.128-.1.226-.262.086-.656-.207-.939-.383-1.036-.573-.854-.482-.806-.538-.687.017-.482.554-.554.467.269,1.563-1.927.934-1.835,1.269-2.528.642-1.835.464-1.58.417-1.55-1.106-.252-1.3.569-1.231.032-.536-.315-.574-.729-.591-1.011.347-.853,1.353-.634.851-.569.347-.694,1.684-.063,1.263.188,1.388.189,1.214-.316,2.967-1.011,2.047-1.14.571.729.729.884.5.032.99-1.168.277-1.423.7.284.416,1.233.667.222.693-1.311,1.668-1.6.729-.015,1.041.347.556.3,2.251.6,1.06-.727.208-1.075.4-1.013.885-.22,1.061-.065,1.315-.364,2.566-.981.9-.632.587-1.155.086-1.123.05-1.185.213-.791-.4-.49-.8.522-.646.569-.711-.112L2284,804.2l-.416-.979V802.4l-.278-1.335.3-.711.781-.269.4-.459.1-.884.451-.679.989-.474.966-.142h1.216l2.116-.11.449,1.533.349.964.12,1.03-.242.711-.45.667-.334.442-.434.806-.053.9.14.979.484.964.365,1.335.935.222.99.3.053.728-.088.821-.537.252-.656-.015-.7-.521-.537-.267-.19.314-.4,1h-.625l-.452-.427-.226-.554-.8.285-.556.5-.467.711-.364,1.026.4,2.169-.154,1.533.015,1.06.8.7,1.215.632.988.474,1.181.379.6-.032.656-.854.1-.727.3-1.233.572-.584.851-.063.449.742-.277.979-.053.979.278,1.106.26.933.761,1.14.7.315,1.786.334,1.7.284,1.684.634.569.933.167,1.06-.188,1.011-.678.869-.572.158-.712-.377-.834-.127-2.1.742-1.23.46-1.145.235-4,1-.625.948-1.043,1.075-.033.856.521,1.548-.242,1.407-.711,1.121-.678.569.017.886.434.806.035,1.138v.5l.073,1.472,1.023,1.011.7.869.467.729.1.834-.154,1.563-.1,2.2.487.759,1.071-.537.921-1.457.919-.821,1.111-.823.7.017.814,1.186,1.126,1.36.676,1.026.711,1.218.989,2.151.279,1.263.293.791,1.075.032,1.021.127.592.791.4.616.262,1.013v1l.207.554.936.22.8.22.933,1.233-.834,1.628-.259,1.408,2.335,2.134,5,2.136,1.043-2.169.364-.38,1.733,1.029,1.524.884,2.064,1.628,2.045,2.688,1.215,2.291-.884,2.214-.417,1.281-.157.774.7,1.71-.659.284-3.244,2.1-4.873,3.541-1.647,1.707-.834,3.193-1.283,1.652-1.807,5.518-.606,5.673.834,3.047.956,1.724,3.017,4.094,1.094,3.142" transform="translate(-10189.35 -15396.056)" fill="#4385ff" stroke="#fff" stroke-linecap="square" stroke-linejoin="bevel" stroke-width="1" fill-rule="evenodd"/>
    <path id="_271314_POMBURNA" data-name="271314 POMBURNA" d="M2215.49,923.883l.431-1.266.692-.284,1.563-.411.277-1.2,1.39-2.5.951-1.168,1.421-.918,1.614-1.138,1.268-.667,1.3-.632.157-1.106-.729-1.106-2.08-1.423-.919-1.708,1.459-.1,1.043-1.138-.487-4.774.761-3.289.452-2.97.347-3.414.242-3.606.5-2.862.017-1.138-.167-1.313v-1.215l.167-.856.191-1.091-.278-.379-.834-.491-.692-.41-.667-.379-.106-.4.244-.22,1.423.142.951-.015,1.026.094.851.3.573.22.365-.4.154-.681-.36-.771-1.075-.3-.667-.377-.207-.983-.279-.964-.43-.667v-.681l.694-.571.781-.442.483-.489.192-.948.015-.711-.381-.429-.59-.584-.312-.742.208-.522.667-.38.541.047,1.123-.489.922-.633.919-.522.745-.521.455-.554.379-.474.419-.834.485.334.551.207,1.423.427,1.267.412,2.063.679,1.942.349,2.047-.284,1.106-.414,1.218-.315.986.475,2.272.4,2.026.426,1.945.222,1.316.048,1.3.017.988.205.644-.048.451-1.311-.017-1.168-.017-1,.556-.774,1,.347,1.25-.189.989.047.986.491.888.237h.724l2.029.205.991.776.641.932.382,1.4.8,1.722.364,1.185-.641,2.309-.554.821-.224.853.641.713,1-.077,1.042-.1,1.215.757.9.554,1,.142.641-.142-.1-.522-.295-.7.086-1,.558-.856.465-1.216.452-.789,1.145-1.09,1.425-.746,1.02.254,1.3.442.732.063,2.012-.315,5.323.7,3.469.315,2.335.1,3.386.758.657,1.074-.12,3.225-.729,2.876-.122,2.686-.417,5.628.157,3.067.729,1.668,1.071.791,1.545.442,1.148-.157,1.109-.886.382-1.453,1.313-1.043,2.654-.6,1.454-.317,1.615-.412,1.911-.377.207-1.233-.5-1.36-1-1.36-.609-1.3-.432-1.77.19-1.8.851-1.669.816-1.422.728-1.013,1.3-2.2-.139-1.233-.465-.459.834-.442.884.03,1.095.142.537-.317.469-.377.465-.412,1.612-1.126,1.216,3.449,3.337,6.227,1.457,2.743-.156,5.491-1.355,1.518-3.641,2.641-.667,2.836-2.546,4.392-1.632.517-1.632.561-5.043,5.738-2.707,1.078-2.806,2.383-.714,2.925-.537,4.839,1.835,8.835-1.835,1.021-1.681.949-1.129.347h-1.109l-2.57.032L2291.86,925l-2.845-.7-.744-1.645-.574-1.739.052-1.835.333-1.739-.537-1.138-2-.727-.414-.032-1.388.475-.8.474-1.35.632-1.39.6-1.8.726-1.042,1.425.589,1.668,1.04,1.335-.242.854-1.835.347-1.684-.852-.9-.853-.8-1.076-1.2-.667-1.582.03-1.178.5-.971.667-.921-.254.192-.631.053-1.108-.7-.667-1.3.062-1.786-.316.9-.886.417-1.612.728-1.073.624-1.677-.364-2.433-2.336-1.423-.641.6-1.041,1.453-.576,1.233-.4,3.762.468,1.485.851.474.225.886-.07.946.19.981.19,1.011.107,1.613.207,1.8.261,2.307.313,1.864-.819,1.2-1.423,1.708-1.719.948-2.3-.349-1.961-.032-.59.474-.07,1.77-.918-.1-.729-.6-.883-.6-1.3-1.044-.748-.347-1.612-.475-.761-.474-1.335-1.3-1.078.315-.692.888-1.267.569-.187-1.517-1.668-1.138-3.38-.033-2.186,1.487-1.23-.159-.882-.38-1.113-.948-.988-1.106-1.632-.569-2.133-.474-1.925-.167-2.836-.317-1.265-.631-2.3-1.044-2.31-.38-1.994-.631-.466-.853" transform="translate(-10196.055 -15348.501)" fill="#4385ff" stroke="#fff" stroke-linecap="square" stroke-linejoin="bevel" stroke-width="1" fill-rule="evenodd"/>
    <path id="_271306_GONDPIPARI" data-name="271306 GONDPIPARI" d="M2221.51,915.935l1.356-.239.639-.127,1.248-.188h1.233l.956.254,1.475.347.814-.078,1.632.269,1.128.4,1.493-.158.334-.981.107-1.295.07-3.193-1.368.032-1.458.03-1.685-.205-1.054.062-1.32.522-.746-.457-.592-.556-.936-.25-.9.362-.953.365-.4-.1-.8-.474-.244-.475.035-.774.192-.776.242-.6.466-.886.574-.711.643-1.168,1.368-1.089.468.853,2,.632,2.308.379,2.306,1.044,1.267.631,2.836.319,1.929.157,2.129.474,1.632.569.988,1.106,1.108.948.886.379,1.231.167,2.189-1.487,3.378.033,1.668,1.138.187,1.518,1.268-.569.694-.886,1.078-.315,1.335,1.3.761.474,1.614.476.746.347,1.3,1.044.883.6.731.6.918.1.068-1.772.592-.474,1.961.032,2.3.347,1.717-.948,1.423-1.708.814-1.2-.314-1.864-.259-2.309-.208-1.8-.1-1.614-.192-1.011-.192-.981.07-.948-.225-.886-.851-.474-.467-1.487.4-3.763.572-1.233,1.041-1.453.639-.6,2.336,1.425.364,2.433-.626,1.677-.728,1.074-.415,1.612-.9.886,1.789.317,1.3-.063.7.667-.052,1.108-.19.633.917.252.971-.667,1.182-.5,1.578-.032,1.2.667.8,1.074.9.853,1.682.854,1.836-.347.243-.853-1.038-1.335-.591-1.668,1.04-1.423,1.8-.726,1.388-.6,1.352-.632.8-.474,1.39-.474.416.032,2,.727.539,1.138-.334,1.74-.052,1.835.569,1.739.746,1.643,2.848.7,3.951,1.106,2.564-.032h1.112l1.129-.349,1.68-.948,1.835-1.021,1,4.768,3.5,9.637,3.245,4.163,4.351,3.944,3.1,4.862-.344,10.64.848,21.307,2.621,13.348,6.841,11.576h-.45l-.033-.027-.45-.239-.436-.255-.379-.222-.5-.234-.45-.25-.052-.03-.155-.167-.382-.227-.692-.27-.764-.187-.122-.062-.156-.107-.054-.031-.641-.365-.657-.821-.988-1.015-.607-.667-.192-.234-.122-.167-.124-.073h-.015l-.419-.387-.485-.344-.207-.115-.035-.048-.053-.05-.333-.387-.26-.317-.364-.405-.434-.37-.347-.321-.157-.1-.12-.133-.225-.185-.487-.289-.606-.38-3.125-1.255-.467-.012-.536-.037-.659-.3-1.321-.517-1.717-.365-1.125-.37-1.146-.12-.642-.09-.087.119-.539-.115-.728-.137-.764.1-1.228.447-1.335.853-1.335.983-2.081,1.885-.667.668v-.058l-.347.417-.659.694-.919.954-.667.584h-.015l-.208.259-.574.427h0l-.223.13-.667.422-.988.439-.591.205-.609.134-.626.128-.485.023-1.076-.023-.517.109-.731.032-.225.042v.067h0v-.063l-.467-.043-.609-.082-.19-.048-.155.02.033-.053-.14-.033-.556-.068-.711.012-.641.068-.449.185-.364.21-.643.2-1.145.407-.607.239h0l-1.286.237v.017l-.451.017-.571-.18-2.117-.035-2.93.125-1.283.254-.884.167-1.6.3-2,.212-3.487.677-.167.033-1.424.6h0l-.225.062-1.72,1.2-1.817,1.911.017.015h0l-1.806,1.835-.624,1.261-.312,1.5-.167,1.442-.087.567h0l.02.038v.3l-.4,1.228-.747,1.43-.607,1.894-.432,1.5-.087,1.039.07,1.5-.158.446h0l-.155.736-.7,3.052-.969,2.046-.834.556-.834.419-.848.128-1.094-.147-2.775-.9-1.941-1.108-1.477-1.186-2.221-1.3-1.263-.537h0l-.519-.167-1.25-.477-1.18-.632-.969-.128-.192-.012-.107-.083-.467-.444-.3-.287-.4-.792-.415-.834-.3-1.221-.643-3.245.07-.894-.382-2.479-.295-.677-.156-.2-.087-.09-.333-.4-.382-.389-.188-.035-.521-.037-1.093.319h-.035l-1.146.567-.416.167-.313.085h0l-.225.08-.885.369-.207.117.069-.05-.659.5-1.366,1.176-1.565,1.3-1.44,1.308-1.559,1.2-.763.22-1.6-.142-1.368-.4-1.525-.519-1.545-.776-1.492-2.278-1.54-2.925-.125-1.295.47-1.787.868-1.168,3.069-1.28,1.942-.9.589-1.091-.035-3.826.537-3.477-2.114-5.992-2.029-6.988-1.615-5.389-1.073-3.921-.781-1.075-.921-.853-1.076-.808-1.353-.741-1.23-1.029-.31-1.659-.1-1.882.05-.567-.953-.617-.5-.142-1.058-.474-1.125-.474-1.283-.334-1.216-.047-.781-.475-.712-.789-.711-.806-1.095-1.011-.467-1.091.485-.821-.018-1.059-.017-.933,6.02.442,1.437.032,1.473.127,1.335.569.8.334.8.285,1.458.584,1.06.776.954.314.6-.552.3-2.766-.333-4.854-1.25-6.173,1.352-5.533,1.44-4.348.334-1.233.052-1.248-.017-.6v-.728l.155-.5.589-.481" transform="translate(-10205.584 -15328.413)" fill="#4385ff" stroke="#fff" stroke-linecap="square" stroke-linejoin="bevel" stroke-width="1" fill-rule="evenodd"/>
    <path id="_271305_RAJURA" data-name="271305 RAJURA" d="M2270.33,927.786l-.591.482-.155.5v.727l.017.6-.052,1.248-.334,1.233-1.441,4.348-1.353,5.531,1.25,6.173.333,4.855-.3,2.766-.606.554-.953-.315-1.058-.776-1.458-.586-.8-.285-.8-.334-1.335-.569-1.474-.127-1.441-.032-6.016-.442.017.933.017,1.058-.484.821.467,1.091,1.093,1.013.712.806.713.789.781.475,1.215.047,1.281.334,1.13.474,1.059.476.5.142.955.616-.054.569.1,1.88.309,1.66,1.235,1.028,1.35.743,1.076.806.921.853.778,1.076,1.076,3.921,1.613,5.389,2.028,6.986,2.116,5.991-.537,3.477.032,3.826-.588,1.091-1.941.9-3.072,1.28-.866,1.168-.469,1.787.12,1.295,1.543,2.923,1.493,2.277,1.545.776,1.523.521,1.37.4,1.6.142.761-.22,1.562-1.2,1.44-1.307.347.743.167.5.207.861.035.155.122.854-.035.272-.018.127-.015.11-.035.259-.053.474-.1.552-.033.082-.035.439-.035.354-.225,1.366-.087.939v.269l-.07.434-.138.249-.035.167-.208.035-.763.082-.555.3-.167.127-.313.15-.45.167-.709.531-.667.432-.258.14-.556.354-.746.5-.746.427-.278.227-.087.19-.242.294-.243.394-.1.115-.414.426-.107.08-.464.3-.591.27-.521-.063-.294-.055-.208-.057-.762.082-.764.033-.667.058-1.143.1-1.3.537-1.875.754-.936.384-1.318-3.535-3.3-2.447-.208-.127-.381-.606-.279-.334-1.126-.359-.277-.135-.764-.809-.764-.882-.591-.479-.225-.229-.259-.153-.764-.207-.484-.167-.107-.031-.814-1.118-.5-.51-1.113-1.043-.364-.432-.5-.5-2.5-.229-.642-.047-.434-.027-.484.018.085,1.19.015.462.107.963.017.167-.053.167-.607.03-.157.187-.744-.352-1.265-.6-.244-.167-.138-.09-1.406-.577-1.039-.284h-.158l-.626-.26-.691-.549-.227-.047-.049.057v-.032l-.018-.135-.14-.107-.135-.09-.14-.224-.122-.4-.155-.313-.07-.24-.035-.235.035-.012.07-.028h.087l-.242-.369-.384-.452-.048.08-.279-.285-.417-.606-.207-.315-.087-.144.1-.047-.122-.167-.085.01-.5-.556-.536-.667-.312-.464-.279-.365-.4-.075h-.708l-.035-.057-.12-.149-.122-.23-.209-.065-.279-.592-.155-.516-.137-.223-.155-.224h-.279l-.138-.027-1.233-.148h-1.44l-.849-.4-.571-.289-.018-.04-.207-.075-.192-.265-.207-.818-.192-.726-.067-.541-.018-.409-.019-.279-.067-.185-.035-.035-.1-.427-.087-.158-.122-.209-.019-.037-.035-.215-.192-.334-.486-.017h-.274l-.245-.451-.167-.514v-.147l-.088-.334-.659-.048-1.075.113-.971-.125-.5-.334-.382.068-.469.058-.521.1-.487.284-.624.085-2.183.1-.991.114-.482-.2-.262-.025-1.821.5-.452-.155-1.872-.667-.434-.1v-.033l-.347-.078-.364-.023-.539.07-.76.085-1.318.1-.018.239.033,3.337-1.668.464-.626-.753-.167-.2-.279-.367-.259-.44-.157-1,.157-1.61-.209-.611-.052-.354-.137-.8-.068-.422-.192-1.243-.1-.7-.434-2.868-.017-.145-.052-.315-1.719.088-1.111.094h-.329l-2.062.1-2.882.167-1.09-.27-.262-.087-.244-.055-.432-.167-1.5-.5-1-.334-.068-.043-.45-.355.068-.118v-.209l-.3-1.6.21-1.268-.244-.365-.155-.19-.988-1.011.834-1.178.624-.759.519-1.2-.1-.821-1.315-.6.085-.758,2.5-2.336,1-.759-.4-1.2-1.216-.6-1.819-.157-1.717.379-2.239-.632-1.177-3.162.26-1.994.759-1.453.209-1.168-7.89-3.065-1.682-.7-2.028-.632-2.81-.569-1.68-1.2-2.152-1.106-1.078,1.422-1.887,1.613L2160,965.8l-1.32,1.99-1.143,1.233-.607,1.739-.157,2.307-.19.569-1.5.537-2.376.632-.622,1.392-.991-.063-1.168-.317-.537-.853-.764-.983-.884-1.073-1.141-.729-2.377-1.136-1.542-.7-2.812.062-1.957.821.157-.948.273-1.864,1.145-2.4.452-3.257-.033-.853-.384-1.2-.834-1.108-1.54-.789.069-2.246-.667-2.5.1-2.942-.694-4.013,1.041-.444,1.924-1.011,3-1.266,1.907.569,1.233.38,1.545.063,1.645.379,1.542.41,2.222.634,1.649.441,2.2.222,2.219-.065,1.3-.062,2.336.569,2.271.759,1.769-.222,1.168-.157,2.132.032.4.916,1.425-.19.537-1.138.349-1.233.484-2.087v-2.276l.589-1.612v-1.393l-.537-.7-1.632.6.539,1.011-.607.667-1.076.345-1.145.287-1.889-.6-.417-1.391-.312-1.835.312-1.168,1.371-.853,3.345-1.74,1.7-.918,1.49-.757.573-.6-.417-1.14-1.453-1.518-1.111-1.517-1.2-.823-.345-.948.851-1.233.866-3-.167-.411-1.353-.823-.382-.791-.157-1.707.19-1.517.279-1.076.731-1.739.571-1.335.3-1.643-.918-.167-.14-.7-.591-1.422h-3.882l-.417-1.2-.157-1.487.279-1.233.417-1.99V901.7l-.886-1.013-1.146-1.265-1.542-.694-.659.062-1.649.284-1.146.1-.607-.1.1-1.835-1.335-5.85.1-1.391.969-1.138,1.058-1.138.5-.6,1.632-.757.764-.823,1.177-4.744-1.594-4.181-.347-1.43.764-.047,1.9-.539,1.892-.734,1.542-.26,2.029-.063,2.778.188,2.288-.109,2.219-.1,1.734.484,1.894,1.5,2.323,1.794,1.265,1.487,1.65,1.9,4.126,1.8,1.44.242,3.139-.239.919-.235.918-.127,1.074.047,1.7.6,1.18.584,1.076.711,1.128,1.059,2.064,1.613,1.168.964,1.734,1.138,2.566.667.851.427,1.025.774.709,1.2.087,1.074-.068.791-.312.823-.467.539-.814.774-.487.852.035,1.517,1.3,1.74,2.7,2.071,4.074,1.722,5,2.246,1.44.347,2.828.632,1.472.317,2.206-.317,2.461-.522,2.271-.3,1.44.269,1.125.774,1.113.821,1.457.856,1.353.679,1.891.869,2.651,1.438,3.107,1.059,1.368.918.9.948.919,1.011.779,1.06,1.355,1.011,2.633.9,1.458.949,1.043.868,1,1.3,1.335.949,1.058.647,2.306.7,1.542,1.457.869.743,1.112,1.335" transform="translate(-10254.037 -15339.771)" fill="#4385ff" stroke="#fff" stroke-linecap="square" stroke-linejoin="bevel" stroke-width="1" fill-rule="evenodd"/>
    <path id="_271315_JIWATI" data-name="271315 JIWATI" d="M2197.57,1012.04l-.258.015-.334-.124-.349.1h-.12l-.746-.032-.312-.057h-.379l-.243.055-.4.11-.641.123-.764.122-.4.277-.5.192-.556.242-.5.115-1.316.194-.312.107-.3.094-.225.027-1.6-.04-1.352-.2-1.316-.185-.244-.067-.432-.272-.157-.067-.192-.117-.12-.055-.122-.067-.312-.587-1.946-2.307-1.922-1.989-1.353-4.481-.625-.612-6.293-4.433-2.064-.407-.868-1.987-2.318-1.28-3.314-.969-2.771-3.516-2.985-.866-1.387-2.9-1.835-.918-4.171-.2-4.317-.459-2.064-.667-.9-1.426-7.023-3.362-2.446.255-5.375,2.154-4.855-.37-4.8.667-.19-2.9-6.052-4.637-.432,1.018-1.2.562-.918,2.753-9.8.2-2.775-.918.3-.542.167-1.188-1.456-2.848.087.015.19.027.245.022.207.025.382.05.122.027.414.092.1.03.469.135.45.08.209.015.138.028.088.01.4.027.053-.023.157-.122.207-.167.167-.1.311-.194.208-.112.122-.077.334-.183.278-.158.417-.239.087-.058.052-.013.033.14.312-.167.07-.055v-.188l.072-.015.083-.01.258-.145.088-.167.07.022.167-.152.068-.073.167-.153.192-.183.167-.167.1-.1.07-.047.293-.255.244-.219.052-.022.277-.1.313-.128.122-.03.035-.02.19-.057.1-.028.208-.055.536-.167.14-.107.1-.068.382-.133.138-.148.167-.18.088-.109.083-.068.313-.217.052-.042.382-.467.052-.132.157-.364.139-.324.138-.245.209-.212.5-.561-.017-.15-.122-.787-.05-.422-.035-.38-.037-.13-.052-.392-.07-.4-.1-.092-.242-.23-.295-.3-.382-.374-.434-.4-.052-.042-.275-.185-.167-.075-.333-.11-.556-.2-.167-.073-.816-.365-.05-.02-.557-.349-.087-.048-.572-.492-.053-.073-.242-.234-.294.132-.365.179-.138.062-.307.138-.107.043-.465-1.71-.8-3.113.711-.112.227-.03.26-.053.432-.137-.018-.152-.052-.345-.07-.345-.017-.01-.037-.27-.063-.255-.02-.1.02-.2.014-.3.05-.43-.017-.042v-.068l.037-.334.017-.148.049-.245.021-.192.191-.416h.017l.138-.082.053-.2.067-.259.088-.265.1-.183.1-.167.1-.167.07-.109.122-.349.139-.307.12-.294.018-.043.121-.314.052-.132.278-.537.167-.407.244-.873.192-.579.155-.26.1-.968-.017-.949-.167-.579-.19-.622-.764-1.068-.244-.876-.485-1.377-.643-1.909-.26-.249,1.25-2.851.521-.9.641-.821.956-1.013.451-1.121.467-.726,1.3-.222,2.913.269,1.475-.142h2.863l2.479.127,1.734,1.472.167.694.035,1.311.5.759.3,1.136.3,1.28,1.594.964,1.214.4,1.388.192,1.128.334,1.126-.222.155-.884.155-2.908-.069-1.311.244-1.472.519-1.668,2.291-1.36,1.373.871.864.4.813.252.974.078,1-.189,1.335-.632,1.959-1.106,1.441-.834-.279-3.052-.068-.3-1.37-.726-1.855-.491-.364-.667.035-1.108.467-.8.571-.649.313-1.2.347-1.106.436-1.233.866-.4.99-.11,1.767.3,1.32.772,2.74,1.121,1.4,1.612.729,1.3.4,1.043.556,1.186.988,1.705,1.041.5,1.125.617,1.181.222,1.614.11,1.248-.349,1.056-.964.918-2.418-.017-.516-.035-.535-.159-.626-.38-.591.053-.571.5-.711,2.394.15.334.315.068.467.07.482.242.309.3.237.434.015.624-.167.591-.347.624-.617.19-1.588.158-.514.333-.569.521-.667.851-.554.708-.182.7,4.015-.1,2.941.677,2.5-.07,2.246,1.543.789.834,1.106.382,1.2.033.853-.452,3.257-1.143,2.4-.279,1.865-.157.948,1.959-.823,2.808-.062,1.545.7,2.376,1.136,1.145.729.886,1.073.762.983.539.853,1.168.315.988.065.624-1.393,2.377-.631,1.5-.539.19-.569.155-2.307.609-1.739,1.146-1.233,1.318-1.991,2.336-2.94,1.892-1.613,1.073-1.422,2.151,1.106,1.684,1.2,2.808.569,2.032.632,1.68.7,7.892,3.065-.207,1.168-.764,1.453-.26,1.994,1.178,3.16,2.237.633,1.719-.379,1.82.158,1.211.6.4,1.2-1,.759-2.5,2.336-.088.757,1.32.6.1.821-.522,1.2-.624.759-.834,1.176-.229-.224-.119-.217-.106-.255-.225-.958-.085-.249-.262-.415-.069-.2-.052-.185-.1-.474-.242-.4-1.645-.652-.4-.274-.26-.108-1.217-.729-.675-.282-.19-.125-.591-.235-2.688,2.957-1.108,1.2-.521.569-.07.744-.1,1.181-.122,1.952.1,1.57.418,1.525.416.667.8.372.624,1-1.388,4.57-.019.115.19.7.484-.334.334-.245,1-.4,1.168-.437.814-.334.554-.44-.05.355v.135l-.068.639-.139,1.231-.191.747-.207.281-.157.205-.167.205-.122.3-.033.12-.07,1.09-.05.574-.017.094-.05.482-.469.667-.5.789-.5.369-.486,1.023-.086-.078-.07-.068-1.354,1.6-.035.255-.207.194.017,2.156.5.651.259.29-.033.235-.07.245-.017.117-.192,1.058.47,2.556-.177.252-.416.614-.417.589-.519.756.052.334.017.412-.189.647-.14.589-.431.991-.782,1.465-4.093-.364-3.14,4.156-1.714,1.7-.4,2.212-.572,1.75-.624.746.208,1.1.432.983.382,1.053,1.126,1.009.122.145-.052.5.07.018.122.112.087.025.4.147.208.027.659.07.227.045.137.215.384.512.38.48.667.888.334.436.052.057.167.207.384.392.048.053.277.167.167.551.034.167-.034.451-.02.144v.043l.037.113-.192.2-.242.063-.667.167-.868.359-.521.18-.052.036-.19.3-.155-.038" transform="translate(-10284.08 -15308.362)" fill="#4385ff" stroke="#fff" stroke-linecap="square" stroke-linejoin="bevel" stroke-width="1" fill-rule="evenodd"/>
    <path id="_271307_KORPANA" data-name="271307 KORPANA" d="M2206.72,876.742l.349,1.43,1.593,4.181-1.178,4.744-.764.821-1.628.757-.5.6-1.053,1.138-.973,1.138-.1,1.391,1.335,5.85-.1,1.835.6.1,1.146-.1,1.647-.285.667-.062,1.542.7,1.145,1.265.886,1.013v.569l-.415,1.99-.279,1.235.157,1.485.415,1.2h3.886l.588,1.422.14.7.917.167-.293,1.643-.573,1.335-.729,1.739-.275,1.076-.191,1.517.156,1.707.38.791,1.353.823.167.412-.866,3-.85,1.233.344.949,1.2.821,1.111,1.518,1.455,1.517.417,1.14-.574.6-1.49.757-1.7.918-3.349,1.739-1.368.854-.315,1.168.315,1.835.417,1.391,1.889.6,1.146-.287,1.073-.347.609-.667-.537-1.011,1.628-.6.539.7v1.393l-.589,1.612v2.276l-.486,2.087-.349,1.233-.537,1.136-1.422.19-.4-.918-2.132-.032-1.168.158-1.767.222-2.271-.759-2.335-.569-1.3.062-2.223.065-2.2-.222-1.65-.442-2.222-.632-1.54-.41-1.647-.379-1.545-.064-1.229-.38-1.909-.569-3,1.265-1.925,1.013-1.039.442-.711.182-.849.554-.52.667-.333.569-.157.514-.189,1.588-.624.617-.59.347-.626.175-.432-.015-.3-.239-.244-.309-.068-.48-.072-.465-.334-.317-2.393-.15-.5.711-.052.571.379.591.157.626.035.536.018.516-.919,2.418-1.06.964-1.246.349-1.613-.11-1.182-.22-1.128-.617-1.038-.5-.987-1.707-.556-1.186-.4-1.043-.728-1.3-1.406-1.614-2.74-1.121-1.318-.772-1.769-.3-.99.11-.867.4-.434,1.233-.347,1.106-.314,1.2-.57.649-.469.8-.035,1.108.364.667,1.854.491,1.371.726.072.3.279,3.052-1.441.834-1.962,1.106-1.335.634-1,.188-.971-.078-.816-.252-.868-.4-1.367-.871-2.294,1.36-.519,1.668-.242,1.47.07,1.313-.156,2.908-.158.884-1.128.222-1.125-.334-1.386-.19-1.218-.4-1.592-.964-.3-1.28-.3-1.136-.5-.759-.033-1.311-.167-.7L2131.83,963l-2.476-.127h-2.864l-1.475.142-2.915-.269-1.3.222-.47.727-.449,1.121-.952,1.011-.643.823-.521.9-1.248,2.85-.364-.265-1.992-.738-.279-.108-.334-.612-.295-.25-.277.818-.226-.058h-.486l-.937-.013h-.052l-.154.025-.521-.092-.536-.075-.452-.077-.5-.065-.1-.025-.156-.1-.519-.1h-.177l-.624-.032-.694-.025h0l-.053-.01-.363-.078-.034-.01-.051-.01h-.035l-.573-.048-.448.058-.017-.138-.086-.38-.017-.1v-.167l-.086-.018-.052-.012-.3-.032-.521-.078v-.027l-.017-.436-.018-.269-.035-.482-.018-.242-.294-.155-.208-.11-.122-.07-.138-.01-.192-.013-.188-.018-.244-.033h-.087l-.365.035-.167-.148-.122-.129-.086-.068-.347-.222-.208-.122-.209-.122-.138-.06-.192-.01-.1-.012-.21-.02-.224-.022-.189.02-.225-.027-.452-.032-.4-.04-.294-.023-.26-.03h-.123l-.38.028-.434.02h-.554l-.035.035-.054.1-.036.073-.087.132-.05.124-.088.183-.051.087-.381.319-.227.178-.052.077-.085.1-.12.208-.086.05-.138.022-.226.027-.138.02-.1.022-.088.032-.087.04-.1.04-.433.1-.242.045-.124.023-.051-.01-.07-.083-.225-.207-.07-.032-.052.015-.122.065-.119.068-.193.087-.573.289-.12.055-.452.242-.364.192-.295.15.033.08.068.22.07.262.167.5.157.5v.1l-.037.259-.035.334-.052.437-.053.324-1.106-.457-1.285-.569-.694-.18-1.029-.261-1.06-.457-.917-.108-1,.012-1.06.15-.539.4-.677.153v-.022l-.556-.03-.486-.015-.667-.008-.746.01-.747-.013.07-1.794.155-.357.087-.205.122-.422.225-.863.037-.122.167-.706v-.05l.037-.062.167-.636.035-.065.05-.053.208-.242.035-.052.017-.07v-1.293l.07-.367.1-.367.033-.1.035-.082.053-.3v-.094l-.088-.155-.167-.085-.1-.073v-.07l-.033-.818-.072-.49-.016-.118-.087-.285-.156-.5.192-.464.4-1.031,1.385.153-.1-.834-.016-.055v-.063l-.175-.993-.692-1.128-.209-.908h0l-.12-.8-.121-1.071-.694-.916-.208-.592-.122-.923-.054-.362-.05-.152-.314-.826-.277-1.078-.38-.834-.384-.974-.017-.078.347-1.1.244-.481.294-.639.086-.334-.051-.622-.209-.412-.02-.067-.015-.05-.052-.334-.018-.1-.016-.052-.054-.265-.033-.073V939.8l-.052-.222V939.5l-.018-.063-.033-.1-.037-.244-.035-.124-.031-.284v-.033h-.053l-.659.012h-.035l-.085.027-.192.07-.157-.569-.035-.22-.12-.5-.158-.274-.067-.391-.088-.427-.085-.148-.086-.144-.085-.667-.085-.736-.022-.085-.085-.657-.157-.37-.294-.682-.4-.554-.122-.167-.259-.711-.192-.542-.016-.033-.122-.562v-.739l.225-.247-.1-.385-.037-.294,1.37-.322.935-.6.677-.334.5-.427,1.977-1.712,1.213-.205.953-.018,1.026.189,1.248.377.834.292.813.19.8.135,1.353.375.936.566.194.514v1.1l-.194.924-.314,1.352-.26,1.371.071,1.233.468.686.9.257.847-.07.521.223,1.18,1.25,1.18.823.989.477.918.6,1.128.274h1l1.265-.207,1.043-.479,1-.976,1.717-1.645,1.857-.737,1.385-.309,1.544-.05,1.859.137,1.749.24,1.631-.052.588-.239.712-.531.642-.926.38-1.934-.293-1.815-.886-.769-.242-.19-.8-.6-.921-.634-.816-.752-.521-.924-.469-1.884.312-2.072,1.335-1.627,1.026-1.56.711-1.268.764-.871,1.14-1.1,1.475-1.2,1.944-1.335.729-.429.552-.239,1.39-.225,1.855-.222,1.318.052,1.75.12,1.874.342,1.732.017,1.632-.292,2.883.052,2.286.137.8.274.71.651.886.959.864.481.766.1.691-.018,1.3-.41,1.076-.959.556-.924.539-1.32.625-1.438.189-1.113.524-1.011,1.786-.959.747-.274,1.247-.068.554.018,1.128.651,1.146.667,1.715.617,1.267.052,1.386-.068,1.615-.07,2.581-2.226,2.289-1.884,1.6-2.893.365-2.431.364-.788.192-.566.312-.41.384.444.643.616.954-.052.811-.187.8-.41.921-.1.667-.307.8-.464.937-.6.656-.752,1.458-2.706.589-.943.574-.736.624-.531.991-.4,2.147-.649.782-.29.54-.5.57-.786.314-.892.587-1.437.384-.874.569-.479.487-.446.4-.582.5-.531.434-.617.539-.889,1.076-3.057.138-.377-.017-.3-.21-.257,2.618-.167,1.543.087.729-.149.711-.207.884-1.034.667-.964.449-.7.591-.776.9-.419,1.231.143.988.417,1.2.759,1.925,1.447,1.716,1.51.834.474,1.281.522.469.032" transform="translate(-10299.07 -15341.406)" fill="#4385ff" stroke="#fff" stroke-linecap="square" stroke-linejoin="bevel" stroke-width="1" fill-rule="evenodd"/>
    <path id="_271301_CHANDRAPUR" data-name="271301 CHANDRAPUR" d="M2323.57,829.081l-.556.552-.017.482.537.687.487.808.573.856.384,1.034.209.941-.089.656-.225.262-1.128.1-1.178-.142-.657-.127-.973-.253-.763-.087-1.542-.569-2.1-.127-.934.334-1.128.1-.886-.08-1.06-.235-.641.5.122.963.5,1.06.449.5.834-.015,1.268.078,1.193.679.624,1.6.279.979-.209.918-.781,1.216-.641.948-.763,1.138.347,1.437.848,1.425.4.521.5.537-.157,1.073-.4,1.013.365,2.324.3,1.091v1.011l-.018.712-1.471.222-1.076-.522-1.056.269-.365.743.834,1,1.44.442,1.527.222,1.682.394,2.806.3.816,1.218.279.5-.1.5,4.908,2.86,2.915-.789,1.82,1.233,4.525-.032.469,1.155-1.168,1.487-2.445-.315-.852,2.024-2.837,1.787-.1,3.382-2.083.048-.694-3.193-1.3-1.5-2.132-.869-1.962-.616-1.245-1.977,1.315-1.106.414-2.639-.986.442-1.145.222-1.058.315-1.023.569-.885.569-.711.4-.659.457-1.422,2.67-.644.884-2.186.237-1.23.46-.5,4.425.244,2.039.138,1.335.382,1.106.9,1.186.711.334,1.078.19.866.11.667-.175.589-.2.9.457.521.617-.521,1.377-.537,1.121-.539,1.2-.667.3-.657-.334-.919-.284-.871-.269-.587.142-.709.616-.99,1.455-.712.347-1.388.269-.849.167-1.281.487-1.076.476-.609.616-.658.015-.434-.442-.781-.222-.759-.032-.667.167-1.5,1.6-1.183,1.345-1.315,1.391.4,1.028.969.9.938.537,1.128.334,1.3.667.97.586,1.335.521,1.979.19,1.56-.078,1.265-.11,1.041-.4.851-.442.9-1.58-.436-.569-1.058-.539-.625-.617.262-.584,1.629-.349,1.23-.078,1.684.711,1.857,1.138.916.522.884.521-.746.758-.916,1.6-.728,1.058-.711.554-.886.823-.4.868-.5,1.85-.555.474-.742.269L2309.481,904l-4.058-.142-2.221.474-1.168.444-.918.6-1.8,2.876-1.388-.948-1.355-.4-1.629-.315-.886.032-4.159.112-2.67-.127-1.751-.158-1.233-.269-1.423-.41-1.49-.269-2.336-.949-5.43.316-1.906-.142-2.012-.457-.5.315.122.871.242.823-.069,1.295-.167.6-.175,1.582-1.145.222-.667.252-.4.6.135.791.716.425.259,1.914-.052,1.076-.4.616-.886.142-.794-.7-.761-.979-.472-.823-.469-.834-.744-.964-.9-.222-.915.032-.866.1-1.565.269.539,1.927-.208,1.3-.536.979-.348.743.167,1.059.5.884.417.681,1.835,3.4,1.073,2.766.851,4.663.262,1.393.087.726-.47.539-1.145-.032-.9.5-.59.9.417.667-.017,1.058-.07,1.485-.382,3.953-.973.4-.834.823-.3.9-.3,1.151-.1.382-1.3.362-1.021.317-1.181.315h-.691l-.939-.459-.885.869-.641,1.929-.713-.667-.886-.584-1.04-.047-1.026.062-1.47-.239-1.2-.11-3.882-.032-.123-.773.313-1.218.435-.364.569-.4.417-.5v-.334l-.555-.222-.569.033-.764.254-.45-.1-.434-.425-.626-.442-.624.188-.452.554-.451.834-.45.647-1.3-.285-.624-.49-.313-.5.018-.774.19-.647-.254-.676h-1.2l-1.041.047-.591-.205-.484-.821-2.335-2.861-1.093-1.06-.1-1.248.939-1.06.851-.774.167-.7.167-1.186-.07-.979-.729-1.929-1.7-2-2.2-3.287-2.274-4.158L2222.2,917.4l-1.835-.349-1.094.144-.886.205-.864.806-1.247,1.28-1.078,1.707-2.116.729-2.2.284-1.112-.1-1.388-.979-.985-.726-.348-.446-.052-1.99-1.489-.127-1.27.411-1.525.634-.883.377-.782.6-.379.884.416.634.052.6-.157.6-.469.093h-1.179l-1.477.411-.536.729-.137,3.1-.313,1.233.157,1.106,1.37,1.867-.347,1.645-.918.694-.333,1.011-.364,1.1-4.128-1.8-1.647-1.9-1.268-1.487-2.321-1.8-1.892-1.5-1.735-.482-2.217.094-2.291.11-2.775-.188-2.031.063-1.542.26-1.892.736-1.909.537-.761.048-.469-.031-1.285-.522-.834-.474-1.717-1.512-1.922-1.447-1.2-.759-.991-.419-1.233-.142-.9.419-.589.776-.45.7-.667.964-.886,1.035-.709.207-.731.148-1.54-.087-2.62.167-.642-.157-1.612-.232-1.5-.29-2.012-.524-1.267-.4-1.5-.647-1.143-.364-1.959-.467-1.388-.282-.886-.2-.242-.254-.627-.5-.918-1.208-.536-1.04-.884-1.151-.365-.284-.259-.129-.469-.035-.521.087-.587.364-.349.129-.277.008-.347-.035-.57-.441-.713-1.935-.364-1.607.07-2.963.417-2.423.07-.753-.037-1-.31-1.168.31-.848.347-.53.951-.659,2-1.25.574-.377.537-.367.467-.427,1-1.859.676-1.026.225-.746.019-.7-.333-.916-.764-.754-1.523-.8-1.285-.419-1.37-.35-1.282-.129.034-.531.035-.609.052-.531.466-.609,1.77-1.37.713-.471.641-.334.572-.083.869.033.552.188.851.317.606-.018.333-.214.279-.444.1-.394,1.528.2.537,1.06.667.1.972-.442.609-.237.8.1.9.284,1.094.5-.017.668.1,1.106.277,1.091.225,1.121.4.6.954.11,1.021-.142,1.5-.237,3.05-.728,1.806-.442,1.143.41.8.033.556-.713v-.823l-.275-.916-.667-2.67-.244-1.041-1.211-.886-2.413-2.086-.487-1.106-.883-.427-1.2-.427-1.041-.269-.434-.571.07-.616.192-.667.19-.742-.521-.854-1-1.375-2.528-1.944-.107-.522.851-.821.484-.647-.035-.821-.379-.587-.555-.667-.364-.349.539-.334.8.047,1.892.158,3.38-.047,1.233-.41.866-.364.469-.9,1.717-2.117.467-1.28.07-1.028.643-.334.986,2.039,1.146.667.936.681.9.41,1.13-.015,1.65-1.3.4-.239.868-.047,1.68.062,1.248-.078.8-.571.644-.677.311-.127.816.362.482,2.4.225,1.074.991.537,5.948.41,1.316-.167,1.529-.853.31-.933.1-.791.279-.586.45.222.988.3.192-.032.333-.41.087-.759.312-.821-.122-.789-.208-.4-.138-.7.9-.08.781-.1.693,1.028.122,1.153.017,1.266.207,1.138.766.806.9.347,1.4.522.938.3,1.35.569.574.5.137.869.156.537h.5l.643-.834.764-.774.933-.667.729-1.155.607-.552.1-.916-.018-1.075-.884-2.119.365-.554.434-.631-.1-.6-.728-.773.764-2.1.207-1.668-.12-.918-.711-.834-.988-.7-1.111-.933-1.37-.9-1.785-.774-.167-8.8,2.066-1.013,2.86-1.106,1.789-.823,3.38.127.678-.554,1.059-.948,1.5-.948,1.145-.789.167-1.186.5-.964.347-1.487.1-1.724,1.946-.3.954-.167.8-.065,1.3.19,1.06.285.851.062,1.3-.094.9-.554.848-1.091.869-1.028-.538-1.281.364-.726.521-.537.954-.649.019-1.6-.107-.584-.517-.315-1.492-.205-.524-.586.366-.427h1.423l.919-.127,1.025-.157.953-.792-.26-1.406-.726-1.392-.589-1.075-.626-.142-1.562-.632-.971-.554-1.315-.41-.334-.979.3-1.059.334-1.218.449-1.06.939-.8.667-.727.677-.791.642.017.257.679.246.711,1.093-.11,2.046-.808,1.023-.4,2-.252,3.312.759-.362,2.529-.469.727-.626.584-.624.711-.333.791-.227,1.026.176.854,1.039.758,1.111.679,1.168.522.939-.726.813-.142.556.347.347,1.582.539,2.214.5,1.2.5,2.071.469,2.67-.782,1.9-1.335.869-.052.9.346.823v.667l-.242,1.233.4.743,2.044,1.281,4.093,2.2,1.425.5,1.49-.093,1.595-.3,1.216-.834.573-.823,1.281-1.248,2.378-.667,3.258.018,1.77-.08.991-.964,1.261-1.168,1.356-1.817-.107-1.406-.365-3.02-.122-2.4,1.353-1.755.157-.569.434-.127.747.127.591.442.656.3.781.457.834-.365.486-.694.5-.981.155-1.28-.225-1.375.868-1.335,2.428-1.343.883-.616.14-1.059-.225-.964-.626-1.487-.667-1.265-.154-1.044.849-2.8.816-.948.436-.964-.035-.776-.364-.649-.382-.759.017-.7.31-.774.384-.743.812-.474,1.112-.015,1.668-.649,3.9-.032h2.845l1.8-.062-.709,1.106-.781,1.265-.764,1.138-.225,3,1.073,1.424,2.531,3.035,3.337,4.4,2.546,3.445.834,1.929,1.58,2.751,1.8,3.289,1.2,2.054.99-.979,1.129-1.36,1.228-2.026,1.648-.157,2.032.726,2.738,1.106,1.649.667,2.463-.062,2.446-.667L2308,826l1.578-.285,3.3.727,1.736.726,2.335.918,2.336.412,1.735-.949.8-.349.852.823.918,1.028" transform="translate(-10260.898 -15393.199)" fill="#4385ff" stroke="#fff" stroke-linecap="square" stroke-linejoin="bevel" stroke-width="1" fill-rule="evenodd"/>
    <path id="_271302_BHADRAWATI" data-name="271302 BHADRAWATI" d="M2287.32,824.536l-1.668.649-1.112.015-.811.475-.385.743-.311.776-.018.694.38.759.364.649.033.776-.43.964-.818.948-.849,2.8.157,1.043.667,1.265.623,1.487.227.964-.142,1.059-.883.616-2.428,1.345-.868,1.335.224,1.375-.155,1.28-.5.979-.486.7-.834.365-.783-.459-.667-.3-.587-.442-.746-.127-.435.127-.154.569-1.352,1.755.122,2.4.365,3.018.107,1.407-1.355,1.817-1.267,1.168-.991.963-1.765.08-3.262-.018-2.375.667-1.285,1.248-.573.823-1.213.834-1.6.3-1.49.094-1.423-.5-4.092-2.2-2.046-1.281-.4-.743.244-1.233V857.9l-.347-.823.053-.9,1.335-.869.781-1.9-.47-2.67-.5-2.071-.5-1.2-.537-2.212-.347-1.58-.555-.347-.816.142-.936.726-1.168-.521-1.11-.681-1.041-.757-.167-.856.225-1.026.334-.791.626-.711.624-.584.469-.729.361-2.528-3.31-.761-1.994.254-1.023.4-2.049.806-1.093.112-.243-.713-.259-.679-.639-.017-.679.791-.667.729-.939.8-.451,1.059-.334,1.216-.3,1.06.334.981,1.32.41.971.554,1.559.632.625.142.591,1.073.727,1.393.262,1.407-.954.791-1.026.157-.916.127h-1.423l-.365.427.524.584,1.488.207.519.316.1.584-.02,1.6-.949.649-.521.537-.364.728.536,1.28-.87,1.028-.851,1.091-.9.552-1.3.093-.848-.062-1.058-.284-1.3-.19-.8.063-.955.167-1.939.3-.1,1.724-.347,1.487-.5.964-.167,1.186-1.145.789-1.5.949-1.06.948-.676.552-3.38-.127-1.787.823-2.86,1.106-2.066,1.013.167,8.8,1.79.774,1.368.9,1.11.933.989.7.711.834.122.918-.207,1.668-.764,2.1.731.773.1.6-.432.631-.365.554.884,2.119.017,1.074-.1.914-.607.554-.728,1.155-.937.667-.764.772-.637.834h-.5l-.155-.537-.139-.869-.572-.5-1.355-.569-.936-.3-1.4-.522-.9-.347-.764-.806-.208-1.138-.017-1.266-.122-1.153-.694-1.029-.782.1-.9.08.14.7.207.4.12.789-.312.821-.087.761-.333.41-.19.032-.988-.3-.452-.222-.278.586-.1.789-.314.934-1.526.853-1.315.167-5.948-.41-.991-.537-.225-1.074-.486-2.4-.816-.362-.312.127-.643.677-.794.571-1.248.078-1.682-.063-.868.047-.4.237-1.646,1.295-1.129.017-.9-.41-.936-.681-1.143-.667-.99-2.041-.642.334-.07,1.028-.469,1.28-1.719,2.117-.464.9-.871.364-1.231.41-3.379.047-1.894-.159-.8-.047-.539.334.364.349.557.667.384.587.033.821-.486.647-.851.821.1.522,2.533,1.944,1,1.375.518.854-.192.743-.189.667-.068.616.432.57,1.04.269,1.2.427.886.427.484,1.106,2.411,2.087,1.214.886.244,1.041.659,2.67.275.916v.821l-.554.712-.8-.033-1.148-.411-1.8.444-3.055.726-1.487.239-1.025.142-.953-.112-.4-.6-.225-1.121-.279-1.091-.1-1.106.017-.667-1.092-.5-.9-.284-.8-.1-.609.239-.973.442-.667-.095-.539-1.059-1.523-.2.068-.267-.45-1.857-.556-1.216-.469-2.134-.122-.9-.155-.786-.452-.636-1.39-.848-1.2-.823-1.041-.514-1.231-.043-.818-.042-.728-.454-1.96-1.668-.484-.677-.574-.769-.192-.728.07-1.413.229-1.1-.089-1.146-.225-1.073-.781-2.217-.676-1.078-1.126-1.335L2140.4,889l-.087-.464v-.5l.068-.7.244-.941-.088-1.6-.434-.632-.484-.531-.694-.5-.694-.334-.764.058-.781.883-.589.247-1.229.319-2.464-.334-.8-.282-.554-.29-.641-.446-.277-.479-.086-1.1.362-1.181.5-.566.414-.883.227-.949-.052-.959-.087-.667-.607-.667-.642-.334-1.3-.411-.609-.205-.657-.385-.938-.719-.708-.813-1.372-1.783-1.684-2.029-.8-1.1-.539-.624-.621-.652-.436-.249-.988-.834-1.214-.7-.78-.787-1.6-1.2-.59-.727-.955-1.011-.991-.479-1.108-.539-1.734-.427-.659-.017-.731.153-.762.394-.729.464-.834.452-.936.215-1.11-.017-1.091-.274-.4-.42-.624-.429-.382-.6-.208-.524.087-.5.088-.624.135-.891.229-2.67.167-.744.623-.566.555-.085.677.033.626.027.521-.077.417-.223.377-.566.279-.727-.639-1.482-.746-1.455-.989-1.49-1.3-.933-.886-.531-.694-.259-.429-.015.052-1.011.049-.531.223-.516.382-.239.851-.035.933.207,1.009.068,1.457.377,2.478.167,1.023-.035.851.5.294.754-.017.787.228,1.181.374,1.131.334.566,1.111.257,1.041-.085,1.285-.068.292-.667.175-.769.242-1.148.865-.634.782-.167.624-.566.434-2.209.591-1.011.691-1.353.349-.834-.053-.991-.536-1.081-.781-.549-.017-2.209.167-1.266.817-3.03.242-1.15.434-1.061.708-.36,1.094-.394.918-.275,1.113.087.712.514,1.335.531,1.092-1.353,1,.155.4-.018.521-.344.6-.787.818-.649.639-.223.989.277.921-.139,1.076-.5.971-.462.416-.7-.015-1.028.035-.686,1.575-.135.537-.274.262-.737.1-.788.122-1.181.192-.582.834-.651.587-.7.576-1.4.658-4.71.4-.686.956-.8.953-.239,1.37-.274,2.151.257.641-.565.345-.96.19-.834-.167-1-.432-.41-.783-.187-.8.018-.415-.334.275-.754.521-1.42,1.855-.12.5-.4.589-.667.607-.787.416-.834.449-.721.973-1.473.259-.684.208-.719.624-.46,1.267.153,1-.274.552-.379.667-.257.816.018.9,1.011.382.769.866,1.078.888.379.918.152.729.5.572.889.834.834.624.41.781.5,1.178-.167.208-.7-.417-.721.487-.821,1-.292,1.56-.6.784-.7,1.315-1.046.589-.632.486-.651.574-.856.539-.686-.07-.8-.488-.566v-.6l.8-2.107.4-.53.744-1.335.711-.514.711-.24.956.359,1.093.205.729-.068,1.423.068,1.8-.187.018-1.97-1.023-1-.419-.462.053-.8.556-.667.712-1.181,1.285-2.775.382-.359.886-.394h1.07l1.427.205,1.108.12.921.052h.9l.243-.547-.1-.787-.678-.834-.258-.6-.087-.479-.085-.721-.333-.446-.279-.514.334-.667.554-.429,1.024-.035,1.647-.067,2.533-1.85,1.019.067.936.445.886.719,1.3.462,1.547-.427-.382,3.766,1.765-1.044.667-.309,1.493-.309,1.3-.153,2.67.167,1.855.207,1.283.05,1.593.12h1.548l1.295-.274,1.979-.738,3.727-1.078.8,1.153.677,1.9.487,1.118.052,1.682-.333,1.468-.382.959-.334,1,.054,1.076.487.834.642.384,1.074.149,1.732.075,1.076-.065,1.492-.012,2.513.022,2.795-.1,1,.01,2.688-.065h2.1l2.3.224,1.925.425,1.385.1.659-.364.971.075.677.821,1,.667,2.1.052,1.168-.255.971-.254,1,.158,1.2.1.868-.253,1.168-.522,1.648.01,3.539.167,6.257-.1,1.285-.384L2271,783.4l4.477-.033,2.653-.334,2.7-.02,1.126.01.087.659-.208.556-.537.7h-.729l-1.06.205-.742.182-1.06.244-.607.364-.763.641-.557.5-.414.451-1.39.45-1.021.6-.417.634-.537,1.034-.782.933-.919,1.5-.417.609-.122.766.26.53v.529l-.295.667-.9,1.413-1.37,1.383-.818.9-1.058,2.062-.589,1.764-.382,1.493-.033,1.937-.07,3.154.834.7.78-.205.589-.474.748-.12.936.1.813.254,1.944.284,2.566-.1,3.122.594.364.584-.017.869-.537.681-.279.806,1.355,1,1.885.7,1.685.364,1.632-.167,1.4-.457,1.5-.4,1.525-.285,3.14-1,1.23.632.225,1.66.667,2.085-1.46,2.908-1,.759-.781.667-.811.7-.677.647-.591.834" transform="translate(-10279.988 -15416.457)" fill="#4385ff" stroke="#fff" stroke-linecap="square" stroke-linejoin="bevel" stroke-width="1" fill-rule="evenodd"/>
    <path id="_271304_BALLARPUR" data-name="271304 BALLARPUR" d="M2250.96,925.1l-1.368,1.088-.641,1.168-.575.711-.466.886-.242.6-.192.774-.035.773.244.475.794.474.4.1.956-.365.9-.362.939.25.587.556.748.457,1.317-.522,1.058-.063,1.683.205,1.457-.032,1.37-.032-.07,3.192-.1,1.295-.344.983-1.493.157-1.127-.4-1.631-.269-.814.077-1.474-.347-.954-.252h-1.233l-1.25.187-.641.127-1.351.239L2246.3,935.9l-.866-.743-1.546-1.455-2.3-.7-1.058-.647-1.334-.948-1-1.3-1.039-.869-1.458-.948-2.635-.9-1.353-1.011-.781-1.06L2230,924.3l-.9-.948-1.367-.916-3.1-1.06-2.653-1.437-1.892-.869-1.35-.679-1.457-.856-1.113-.823-1.128-.774-1.437-.269-2.272.3-2.463.522-2.2.315-1.475-.315-2.823-.634-1.443-.347-4.993-2.222-4.074-1.722-2.7-2.071-1.3-1.739-.035-1.517.486-.854.816-.776.466-.537.313-.823.068-.791-.086-1.074-.709-1.2-1.022-.774-.853-.427-2.566-.667-1.734-1.138-1.168-.964-2.064-1.613-1.126-1.06-1.076-.711-1.18-.584-1.7-.6-1.074-.047-.92.127-.917.237-3.139.237-1.441-.244.364-1.1.333-1.011.918-.7.347-1.645-1.372-1.865-.156-1.106.313-1.233.138-3.1.538-.729,1.473-.411h1.18l.469-.093.155-.6-.053-.6-.414-.633.382-.884.781-.6.886-.379,1.525-.632,1.267-.412,1.493.127.052,1.99.347.444.989.727,1.384.979,1.111.1,2.206-.284,2.11-.729,1.078-1.707,1.248-1.28.868-.806.883-.207,1.094-.142,1.835.349,1.335,1.375,2.274,4.156,2.2,3.289,1.7,2,.729,1.929.068.979-.167,1.186-.167.7-.848.773-.938,1.059.1,1.248,1.091,1.059,2.336,2.861.486.823.591.205,1.036-.047h1.2l.277.679-.19.649-.016.773.312.5.624.491,1.3.284.452-.647.45-.834.45-.554.625-.188.623.442.435.427.451.1.762-.254.573-.033.555.222v.334l-.415.5-.572.4-.434.364-.312,1.218.122.774,3.881.032,1.2.11,1.475.237,1.023-.062,1.039.047.886.586.71.667.643-1.929.883-.869.934.457h.694l1.18-.315,1.024-.317,1.3-.362.1-.38.295-1.153.294-.9.834-.821.971-.4.382-3.953.068-1.487.016-1.058-.416-.667.589-.9.9-.5,1.143.032.47-.539-.088-.726-.26-1.393-.848-4.663-1.075-2.766-1.836-3.4-.416-.681-.5-.884-.167-1.06.347-.742.537-.981.207-1.3-.536-1.929,1.56-.27.87-.1.917-.032.9.222.748.964.467.834.469.823.762.979.8.7.885-.144.4-.616.052-1.074-.259-1.914-.711-.426-.138-.791.4-.6.659-.252,1.145-.22.167-1.583.167-.6.07-1.295-.243-.823-.118-.871.5-.315,2.014.457,1.905.142,5.429-.315,2.335.948,1.492.269,1.422.41,1.233.269,1.752.157,2.67.127,4.161-.11.884-.032,1.632.317,1.35.4,1.389.948-.417.834-.38.475-.452.552-.744.521-.918.521-.921.634-1.13.489-.538-.045-.677.379-.207.522.31.742.592.584.381.429-.015.711-.192.948-.487.489-.781.442-.69.571v.679l.432.667.278.964.209.981.658.379,1.076.3.366.789-.155.679-.365.4-.574-.22-.85-.3-1.023-.094-.952.017-1.424-.142-.242.22.1.4.676.38.7.41.834.491.279.379-.192,1.089-.167.856v1.215l.167,1.313-.017,1.138-.5,2.862-.243,3.606-.346,3.414-.452,2.972-.762,3.289.484,4.774-1.041,1.138-1.458.1.921,1.708,2.084,1.422.729,1.106-.158,1.106-1.3.632-1.266.667-1.612,1.138-1.424.918-.952,1.168-1.39,2.5-.277,1.2-1.56.41-.692.285L2251,925.11" transform="translate(-10231.754 -15349.629)" fill="#4385ff" stroke="#fff" stroke-linecap="square" stroke-linejoin="bevel" stroke-width="1" fill-rule="evenodd"/>
    <path id="_271313_SAOLI" data-name="271313 SAOLI" d="M2264.44,810.631l1.625-.078,1.056.267,1.11.821.484.19.591-.032.225-.459.242-1.183.848-.869.659-.41-.037-.646-.6-.632.017-.457,2.526-2.683,1.68-.5,1.243.127,1.906.584.731.774.486.711.484.254.591-.6.586-.617.571-.252-.207,1.642-.07,4.338.138,2.273-.432.284-.9-.349L2279,813l-1.056.142-.641.5v.789l.589,1.185.883,1.056,1.2,1,.467.015.743-.237.746-.5.953-.3,2.132,1.99.931.582,1.2.167,1.442-.821.657-.7.574-1.468.12-.978.278-.883.5-.586,2.061-1.735.556-1.989.4-.709.763-.252.951-.667.43-1.735.312-1.437-.759-.757-.834-1.011.137-1.293.417-.729.622.41.658.048.539-.678.624-.425.364-.586-.137-.914-.177-.694-.571-.916V797.5l.312-.6.018-.4-1.871-1.326.693-.853.487-.916,1-1.972.519-.711,1.112-.065,1.038.853.122.948-.333,1.073.225.5.744-.315.606-.586.225.379-.21,1.547.167.743.225.6.816-.142,1.248-.883.864.015,1.168-.317,1.09-.285,1.42.834,3.534,1.941,1.594.284,1.939-.157,1.315-.6,1.111.1,1.211.315.626-.347-.21-.978-.188-.459.292-.489.4-.552-.192-.9-.656-.633-.744-.25-.779-.167-.642-.567-.519-1.216-.417-1.168-.223-1.153-.122-1.231.382-1.31,1.108-.167,1.267.362,1.16-.11.708-.157.919-.584.517-.425.782-.112.918-.552.208-1,.294-.727,1.523-.347.744-.884.333-1.073.379-1.136,1.092.884.537,1.735.38.978,1.262.852.883.159,1.267-.127,1.714-.632,1.92-1.168,1.767-.886,2.27.19,2.184,1.325,2.541,1.13-.464,3.794.154,2.336.834,2.78,2.548,2.589,3.739,3.536,3.462,3.41,1.836,2.169,1.992,2.968,1.884,3.157.956,3.409.224,3.125-.486,1.835-1.35,1.547-2.836,1.1-1.835.315-3.494.632-3.325.883-4.642,2.273-3.34,2.214-2.251,2.836-2.613,4.135-2.269,6.155-.849,2.9.658,2.653,1.418,2.241,3.152,2.272,3.826,1.452,3.6.854,4.97,1.427.691.23,1.49,1.3,1.283,1.49.794,1.879,1.093,2.548.779,2.5.486,1.959.4,2.184.312,2.226.344,2.1.487,2.217-.087,1.6.244,1.452.381,1.612.448,1.411.571,1.422.293.474.434.741.365,1.253-.087,1.435-1.8,3.484-3.288,4.924-5.7,8.144-5.663,5.861-5.112,3.74-3.255,1.987-4.051,1.074-4-.4-3.651-1.208-4.228-2.68-1.433-1.238-.729-1.074-.986-3.242-.415-3.193-1.422-5.886-1.869-3.826-3.03-2.02-3.462-.155-5.317.02-3.15.529-2.926,1.265-.693-1.707.157-.773.416-1.278.883-2.209-1.211-2.287-2.046-2.683-2.062-1.625-1.52-.884-1.734-1.026-.364.379-1.038,2.169-5.006-2.132-2.335-2.129.26-1.406.834-1.627-.936-1.231-.8-.22-.934-.222-.209-.551v-1l-.26-1.013-.4-.614-.588-.789-1.019-.127-1.075-.032-.3-.789-.279-1.261-.988-2.147-.708-1.215-.676-1.026-1.123-1.358-.814-1.185-.694-.017-1.108.821-.918.821-.918,1.452-1.071.537-.487-.759.1-2.194.158-1.56-.1-.834-.467-.726-.692-.868-1.021-1-.072-1.468v-.5l-.035-1.135-.43-.806-.021-.886.677-.567.711-1.121.24-1.4-.517-1.547.034-.853,1.041-1.075.623-.946,4-1,1.143-.235,1.23-.459,2.092-.741.834.127.712.379.571-.157.676-.868.189-1-.167-1.058-.571-.933-1.68-.631-1.7-.284-1.78-.334-.7-.315-.761-1.138-.259-.931-.279-1.1.052-.979.279-.978-.45-.741-.846.063-.574.584-.294,1.231-.1.727-.667.851-.606.032-1.178-.38-.986-.472-1.216-.633-.794-.694-.017-1.058.156-1.532-.4-2.169.362-1.024.469-.709.552-.5.8-.284.222.552.452.425h.621l.4-1,.192-.314.537.269.693.519.656.015.537-.252.087-.821-.052-.727-.988-.3-.934-.222-.365-1.325-.484-.963-.14-.979.053-.9.432-.806.334-.442.45-.667.242-.711-.122-1.026-.347-.963-.449-1.53" transform="translate(-10163.119 -15409.021)" fill="#4385ff" stroke="#fff" stroke-linecap="square" stroke-linejoin="bevel" stroke-width="1" fill-rule="evenodd"/>
    <text id="CHIMUR" transform="translate(-8048.025 -14695.984)" fill="#fff" font-size="12" font-family="OpenSans-Bold, Open Sans" font-weight="700"><tspan x="0" y="0">CHIMUR</tspan></text>
    <text id="WARORA" transform="translate(-8196.025 -14635.984)" fill="#fff" font-size="12" font-family="OpenSans-Bold, Open Sans" font-weight="700"><tspan x="0" y="0">WARORA</tspan></text>
    <text id="BHADRAWATI" transform="translate(-8137.196 -14578.979)" fill="#fff" font-size="12" font-family="OpenSans-Bold, Open Sans" font-weight="700"><tspan x="0" y="0">BHADRAWATI</tspan></text>
    <text id="SINDEWAHI" transform="translate(-7980.565 -14608.984)" fill="#fff" font-size="12" font-family="OpenSans-Bold, Open Sans" font-weight="700"><tspan x="0" y="0">SINDEWAHI</tspan></text>
    <text id="CHANDRAPUR" transform="translate(-8071.377 -14500.835)" fill="#fff" font-size="12" font-family="OpenSans-Bold, Open Sans" font-weight="700"><tspan x="0" y="0">CHANDRAPUR</tspan></text>
    <text id="BALLARPUR" transform="translate(-8042.025 -14437.367)" fill="#fff" font-size="12" font-family="OpenSans-Bold, Open Sans" font-weight="700"><tspan x="0" y="0">BALLARPUR</tspan></text>
    <text id="KORPANA" transform="translate(-8170.025 -14404.984)" fill="#fff" font-size="12" font-family="OpenSans-Bold, Open Sans" font-weight="700"><tspan x="0" y="0">KORPANA</tspan></text>
    <text id="JIWATI" transform="translate(-8147.04 -14342.984)" fill="#fff" font-size="12" font-family="OpenSans-Bold, Open Sans" font-weight="700"><tspan x="0" y="0">JIWATI</tspan></text>
    <text id="RAJURA" transform="translate(-8060.354 -14387.984)" fill="#fff" font-size="12" font-family="OpenSans-Bold, Open Sans" font-weight="700"><tspan x="0" y="0">RAJURA</tspan></text>
    <text id="GONDPIPARI" transform="translate(-7973.871 -14373.873)" fill="#fff" font-size="12" font-family="OpenSans-Bold, Open Sans" font-weight="700"><tspan x="0" y="0">GONDPIPARI</tspan></text>
    <text id="POMBURNA" transform="translate(-7966.612 -14442.73)" fill="#fff" font-size="12" font-family="OpenSans-Bold, Open Sans" font-weight="700"><tspan x="0" y="0">POMBURNA</tspan></text>
    <text id="MUL" transform="translate(-7922.612 -14505.461)" fill="#fff" font-size="12" font-family="OpenSans-Bold, Open Sans" font-weight="700"><tspan x="0" y="0">MUL</tspan></text>
    <text id="SAOLI" transform="translate(-7871.586 -14550.958)" fill="#fff" font-size="12" font-family="OpenSans-Bold, Open Sans" font-weight="700"><tspan x="0" y="0">SAOLI</tspan></text>
    <text id="NAGBHID" transform="translate(-7953.939 -14712.984)" fill="#fff" font-size="12" font-family="OpenSans-Bold, Open Sans" font-weight="700"><tspan x="0" y="0">NAGBHID</tspan></text>
    <text id="BRAMHAPURI" transform="translate(-7895.612 -14654.845)" fill="#fff" font-size="12" font-family="OpenSans-Bold, Open Sans" font-weight="700"><tspan x="0" y="0">BRAMHAPURI</tspan></text>
  </g>
</svg>
