<svg xmlns="http://www.w3.org/2000/svg" width="32" height="32" viewBox="0 0 32 32">
  <g id="Instagram" transform="translate(-303 -2444)">
    <circle id="Ellipse_394" data-name="Ellipse 394" cx="16" cy="16" r="16" transform="translate(303 2444)" fill="#2a3037"/>
    <g id="instagram_7_" data-name="instagram (7)" transform="translate(310.901 2452.73)">
      <path id="Path_19392" data-name="Path 19392" d="M15.71,4.5a5.592,5.592,0,0,0-.356-1.857A3.92,3.92,0,0,0,13.115.4,5.606,5.606,0,0,0,11.259.048C10.439.009,10.179,0,8.1,0S5.764.009,4.948.045A5.593,5.593,0,0,0,3.091.4a3.734,3.734,0,0,0-1.357.885A3.768,3.768,0,0,0,.852,2.64,5.607,5.607,0,0,0,.5,4.5C.458,5.315.449,5.575.449,7.653s.009,2.338.045,3.154a5.592,5.592,0,0,0,.356,1.857A3.92,3.92,0,0,0,3.088,14.9a5.607,5.607,0,0,0,1.857.356c.816.036,1.076.045,3.154.045s2.338-.009,3.154-.045a5.59,5.59,0,0,0,1.856-.356,3.914,3.914,0,0,0,2.239-2.239,5.611,5.611,0,0,0,.356-1.857c.036-.816.045-1.076.045-3.154s0-2.338-.039-3.154Zm-1.378,6.248a4.2,4.2,0,0,1-.263,1.42,2.539,2.539,0,0,1-1.453,1.453,4.209,4.209,0,0,1-1.42.263c-.807.036-1.049.045-3.091.045s-2.287-.009-3.091-.045a4.192,4.192,0,0,1-1.42-.263,2.355,2.355,0,0,1-.879-.571,2.379,2.379,0,0,1-.571-.879,4.21,4.21,0,0,1-.263-1.42c-.036-.807-.045-1.049-.045-3.091s.009-2.287.045-3.091a4.192,4.192,0,0,1,.263-1.42,2.326,2.326,0,0,1,.574-.879A2.376,2.376,0,0,1,3.6,1.7a4.212,4.212,0,0,1,1.42-.263C5.824,1.4,6.066,1.39,8.108,1.39s2.287.009,3.091.045a4.2,4.2,0,0,1,1.42.263,2.353,2.353,0,0,1,.879.571,2.379,2.379,0,0,1,.571.879,4.212,4.212,0,0,1,.263,1.42c.036.807.045,1.049.045,3.091s-.009,2.281-.045,3.088Zm0,0" transform="translate(0 0)" fill="#fff"/>
      <path id="Path_19393" data-name="Path 19393" d="M128.88,124.5a3.931,3.931,0,1,0,3.931,3.931A3.932,3.932,0,0,0,128.88,124.5Zm0,6.481a2.55,2.55,0,1,1,2.55-2.55A2.55,2.55,0,0,1,128.88,130.981Zm0,0" transform="translate(-120.779 -120.778)" fill="#fff"/>
      <path id="Path_19394" data-name="Path 19394" d="M364.285,89.52a.918.918,0,1,1-.918-.918A.918.918,0,0,1,364.285,89.52Zm0,0" transform="translate(-351.179 -85.953)" fill="#fff"/>
    </g>
  </g>
</svg>
