<svg xmlns="http://www.w3.org/2000/svg" width="124.234" height="38.347" viewBox="0 0 124.234 38.347">
  <g id="Mulyankan_Logo" data-name="Mulyankan Logo" transform="translate(-3561.865 -602.653)">
    <g id="Group_1" data-name="Group 1" transform="translate(3561.865 602.654)">
      <g id="Ellipse_375" data-name="Ellipse 375" transform="translate(0 0)" fill="none" stroke="#4385ff" stroke-width="1" opacity="0.48">
        <circle cx="19.173" cy="19.173" r="19.173" stroke="none"/>
        <circle cx="19.173" cy="19.173" r="18.673" fill="none"/>
      </g>
      <path id="Path_19312" data-name="Path 19312" d="M4126.917,11391a15.909,15.909,0,1,1-15.917,15.909A15.906,15.906,0,0,1,4126.917,11391Zm-7.225,16.99,1.62.3c-1.267-6.423,5.79-10.007,10.063-5.333,1.283,1.4,1.475,3.136,1.147,5.31l1.708-.3c.722-9.166-9.1-10.85-12.942-6.168C4120.4,11402.884,4118.818,11405.875,4119.692,11407.99Zm6.263,6.367c.128.121-.12.1.353.233-.024-.554.024-.137-.153-.248-1.163-2.912-7.393-2.543-10.239-2.31a5.559,5.559,0,0,0,.8.721c.658.5,2.606.193,4.307.249A8.59,8.59,0,0,1,4125.955,11414.357Zm.2-10.647,1.516.031a6,6,0,0,0-.762-1.6Zm2.1,6.854c1.243-.8.97-1.853.954-2.766l-.946-.017Zm-2.687.009v-2.8l-.946.024c-.032,1.388-.2,1.563.385,2.276Zm8.6-11.658c-.136.072-1.059,1.033-1.243,1.21-.778.763-.3,1.412.385,1.043.121-.065,1.059-1.026,1.235-1.22C4135.272,11399.187,4134.694,11398.657,4134.166,11398.915Zm-14.963.007c-.8.426.3,1.227.473,1.4.249.241.883,1.156,1.4.883.738-.4-.281-1.187-.505-1.4C4120.309,11399.549,4119.7,11398.657,4119.2,11398.922Zm15.877,8.284a5.821,5.821,0,0,0,2.205.176c1.035-.056.962-1.05-.007-1.05C4135.424,11406.332,4134.959,11406.115,4135.08,11407.206Zm-8.684-10.279.056,1.715a1.24,1.24,0,0,0,.9,0,7.33,7.33,0,0,0-.024-2.774C4126.355,11395.586,4126.4,11396.011,4126.4,11396.927Zm-7.65,10.288.024-.716a6.413,6.413,0,0,0-2.222-.167c-.97,0-.994.953-.128,1.05A5.692,5.692,0,0,0,4118.746,11407.215Zm7.5,4.489h1.355l-.008-3.922-1.347.009Zm-1.507-4.731,4.169.016-1.187-2.734-1.82-.023Zm2.951,7.515c2.622-1.629,4.7-1.59,8.059-1.484.938.031,1.067.185,1.965-.682.249-.241.088-.023.264-.329-2.052.049-4.266-.127-6.287.088C4129.828,11412.282,4128.16,11413.133,4127.687,11414.487Zm-8.1-3.249a11.006,11.006,0,0,1,5.99,1.259,7.21,7.21,0,0,0-2.6-2.687,11.037,11.037,0,0,0-4.3-1.105Zm8.749,1.212a13.528,13.528,0,0,1,2.646-.97c3.344-.676,3.2.985,4.21-2.744C4132.594,11408.712,4129.33,11410.123,4128.336,11412.45Zm-13.207,1.387a16.151,16.151,0,0,0,2.061,1.387c.818.5,1.251,1.075,2.421,1.075,2.157,0,4.812.127,6.9-.032C4125.128,11413.011,4118.337,11414.013,4115.129,11413.837Zm12.188,2.43c2.029.176,4.779.032,6.9.032a1.676,1.676,0,0,0,1.412-.417c.817-.577,2.574-1.548,3.071-2.045C4135.433,11414.013,4128.721,11413.011,4127.317,11416.267Z" transform="translate(-4107.74 -11387.736)" fill="#4385ff" fill-rule="evenodd"/>
    </g>
    <g id="Group_2" data-name="Group 2" transform="translate(3602.474 602.654)">
      <path id="Path_19311" data-name="Path 19311" d="M8404.514,11728.09a1.52,1.52,0,0,1-.762.243,2.306,2.306,0,0,1-.838-.112c-.273-.141-.3-1.347-.291-1.677a2.054,2.054,0,0,1,.555-1.393,1.8,1.8,0,0,1,1.328-.519Zm17.131-1.387a2.542,2.542,0,0,1,2.543-3.286,2.031,2.031,0,0,0,.385.622c.152.209.273.357.434.556,1.422,1.837,3.41,4.042,5.887,4.218a7.438,7.438,0,0,0,1.912-.083c.252-.048.564-.1.828-.16a3.375,3.375,0,0,1,.771-.217c.047.019,1.875,2.165,2.43,2.222.16-1.375-.17-3.768.16-4.623a1.055,1.055,0,0,0-.141-1.112v-4.623c0-.226.008-.556-.012-.771-.037-.32-.1-.236-.215-.585h2.363c.029,3.438-.066,7.071-.008,10.435a2.551,2.551,0,0,0,.752,1.271,11.791,11.791,0,0,0,1.018,1.063c.254.208.838.821,1.158.829.086-1.12.01-5.377.01-6.855,0-2.146.121-4.718-.084-6.751.365-.03,8.369-.076,8.869.019l-.027,3.372a11.071,11.071,0,0,1-.988-.755,5.929,5.929,0,0,0-.953-.763,3.527,3.527,0,0,0-2.918-.2c-1.668.7-3.1,1.57-3.09,3.652,0,.771.924,1.771,1.3,2.137.162.17.246.321.406.48.5.472.744.735,1.326,1.206,3.137,2.506,4.635.668,5.039.838.189.18.387.528.613.771a3.1,3.1,0,0,1,.348.368c.293.358,1.449,1.525,1.826,1.537v-3.448s2.92,2.484,5.209,1.675a3.35,3.35,0,0,0,1.412-.838c2.42-2.288-.264-5.329-1.977-6.988a5.315,5.315,0,0,0-1.932-1.26c-.988-.329-2.156.2-2.713.244-.008-.4,0-.792,0-1.187,0-.716-.2-.509-.264-.885l19.588.027-.008,2.449c-.48.13-7.543-.01-8.9.048-.037.095,0,.14-.113.28a8.8,8.8,0,0,0-.818.895c-.32.406-.547.886-.83,1.31a4.2,4.2,0,0,0-.434,1.715,2.689,2.689,0,0,0,.453,1.628,12.6,12.6,0,0,0,1.863,2.375c.275.3,1.855,1.835,2.365,1.854.057.056.01.029.1.074a.325.325,0,0,0,.113.058c.066.019.178.038.227.046a1.535,1.535,0,0,0,1.318-.253,7.824,7.824,0,0,0,1.289-1.027,2.489,2.489,0,0,0,.934-1.374,3.992,3.992,0,0,0,.121-1.018,1.649,1.649,0,0,0-.227-.932c-.027-.641-1.609-2.289-1.713-2.609l4.219.01c.057.8.01,1.723.01,2.543,0,1.337-.15,1.459.367,2.138a13.424,13.424,0,0,0,1.535,1.667c.205.169.744.714,1.027.726l.008-7.083.029-.989c-.086-.234-.029-2.768-.029-3.229,0-1.508-.16-.764-.264-1.328h5.068c-.049-.5-.887-1.3-1.16-1.593-.17-.177-1.186-1.289-1.318-1.364-.217-.121-4.689-.058-5.34-.058h-70.428c-1.131,0-4.521-.046-5.379.019a.6.6,0,0,0,.188.425c.105.132.2.272.293.377a13.161,13.161,0,0,0,1.986,1.967c.377.312.49.228,1.092.228.857,0,3.447-.057,3.955.02v2.672c-1.432.218-3.605-.517-4.547,1.179a3.819,3.819,0,0,0-.133,2.429,8.168,8.168,0,0,0,2.186,3.477l1.092,1.054a6.8,6.8,0,0,0,2.129,1.431,2.122,2.122,0,0,0,2.184-.057l.02-6.459c.338-.027,2.73-.058,2.939,0,.057,1.15.008,2.815.008,4.061,0,.413-.074.9.188,1.1.086.226.086.112.123.329-.432.3-.537.226-.961.659a3.594,3.594,0,0,0-.715.875,7.734,7.734,0,0,0,1.262,1.668,6.138,6.138,0,0,0,1.611,1.26c.168-.159.387-.487.582-.685a3.274,3.274,0,0,1,2.834-.98,3.932,3.932,0,0,1-.131,2.365,2.781,2.781,0,0,1-1.279,1.363c-1.744,1.149-2.449,1.036-4.268.943-2.889-.426-5.885-3.025-8.041-4.709a12.19,12.19,0,0,0-2.4-1.819c.076.6,2.006,2.459,2.383,2.77a71.866,71.866,0,0,0,5.82,4.53,14.727,14.727,0,0,0,3.324,1.752l1.355.433a5.593,5.593,0,0,0,4.285-.631c1.451-.867,2.025-1.592,1.969-3.306a5.777,5.777,0,0,0-.066-.809,1.068,1.068,0,0,0-.227-.642c.049-1.083-2.344-3.484-3.2-4.247-.971-.866-.979-.6-1.545-.923-.111-1.743-.01-3.813-.01-5.595v-4.18a6.3,6.3,0,0,0-.082-1.328c2.531-.038,5.084,0,7.607,0,.725,0,7.438-.065,7.553.047a2.336,2.336,0,0,1-.18,1.327,3.622,3.622,0,0,1-2.881,1.78,6.678,6.678,0,0,0-1.121-1.12,2.093,2.093,0,0,0-1.555-.641c-2.025-.1-2.221.727-3.078,1.374-.4-.112-2.338-2.523-4.322-1.083a2.523,2.523,0,0,0-1.338,1.79,4.09,4.09,0,0,0,.555,2.459,10.8,10.8,0,0,0,1.387,1.808,15.408,15.408,0,0,0,1.543,1.591c1.141,1.055,2,1.4,2.723,2.015.188.15,1.092,1.047,1.395,1.065-.332-1.7-4.418-3.891-4.637-4.927a2.921,2.921,0,0,1,.049-1.533,3.135,3.135,0,0,1,1.836-1.611c.01.886-.01,1,.432,1.6.549.725,2.412,2.824,3.063,2.909A3.369,3.369,0,0,0,8421.645,11726.7Zm31.961-.1a2.124,2.124,0,0,1,.037-.849,21.572,21.572,0,0,1,2.008-1.347,4,4,0,0,1,2.523-.771,2.749,2.749,0,0,1-1.1,2.523,3.212,3.212,0,0,1-2.92.612Zm13.994-2.091a2.751,2.751,0,0,1-.752,2.673c-.379.368-1.451,1.377-2.129,1.4a3.65,3.65,0,0,1,.271-1.5c.434-.847,1.574-3,2.627-2.665Zm-33.826-14.155c.105.707,2.213,2.665,2.807,3.023,1.441.867,2.184-.02,2.938-.63.621-.52.2-.341,1.094-.294-.086-.6-2.213-2.712-2.807-2.992-1.111-.529-1.3,1.194-2.854,1.261C8434.34,11710.753,8434.254,11710.4,8433.773,11710.355Zm15.105,12.687a1.772,1.772,0,0,1,1.281.292c.971.875-1.32,2.636-1.912,2.91a2.994,2.994,0,0,1-2.91-.086,2.022,2.022,0,0,1,.188-1.159C8445.939,11724,8447.9,11723.324,8448.879,11723.042Zm-22.648,1.656a5.775,5.775,0,0,0,1.291.35,4.138,4.138,0,0,0,3.285-1.488,3.079,3.079,0,0,0,.4-2.572,4.783,4.783,0,0,0-.48-1.119c-.187-.348-.537-.735-.639-1.017l3.84.008c.01,1.338,0,2.664,0,3.992.01.6-.064.773-.641,1.367a6.212,6.212,0,0,1-4.217,1.609C8428.029,11725.848,8426.607,11725.819,8426.23,11724.7Zm-18.816-3.2c-.047-.414-.008-1.008-.008-1.448,0-1.311-.17-.688-.254-1.216.582-.011,2.8-.065,3.238.027l-.008,2.655c-.434-.009-1.008-.037-1.518-.045Z" transform="translate(-8397 -11709.362)" fill="#4385ff" fill-rule="evenodd"/>
      <g id="Layer_x0020_1" transform="translate(23.834 24.797)">
        <path id="Path_19313" data-name="Path 19313" d="M3809,6560.441v-.564h.733a.744.744,0,0,1-.285-.291.878.878,0,0,1-.1-.419,1.056,1.056,0,0,1,.408-.829,1.464,1.464,0,0,1,.98-.339,2.375,2.375,0,0,1,1.348.429,2.92,2.92,0,0,1,1.006,1.15l-.54.265a2.22,2.22,0,0,0-.751-.9,1.829,1.829,0,0,0-1.062-.337.846.846,0,0,0-.519.162.489.489,0,0,0-.214.4.613.613,0,0,0,.113.359.563.563,0,0,0,.312.2l-.119.149h.734v.564h-.694v3.194h-.654v-3.194Zm1.893,0v-.564h5.719v.564h-.694v3.194h-.654v-2.1h-.888a.649.649,0,0,1,.167.219.581.581,0,0,1,.062.271,1.1,1.1,0,0,1-.491.9,1.948,1.948,0,0,1-1.2.377,2.216,2.216,0,0,1-1.172-.377,1.106,1.106,0,0,1-.488-.9,1.093,1.093,0,0,1,.215-.638,1.749,1.749,0,0,1,.594-.526l.386.449a1.432,1.432,0,0,0-.421.347.569.569,0,0,0-.158.368.582.582,0,0,0,.312.482,1.316,1.316,0,0,0,.733.193,1.34,1.34,0,0,0,.734-.193.587.587,0,0,0,.307-.482.514.514,0,0,0-.123-.347.386.386,0,0,0-.3-.143h-.422v-.6h2.162v-.487Zm5.565,0v-.564h4.444v.564Zm.4,1.8a1.375,1.375,0,0,1,.531-1.091,1.925,1.925,0,0,1,1.282-.448,1.823,1.823,0,0,1,.571.089,1.4,1.4,0,0,1,.47.248,1.374,1.374,0,0,1,.457-.248,1.661,1.661,0,0,1,.545-.089,1.17,1.17,0,0,1,.272.038v.6a.841.841,0,0,0-.272-.038,1.153,1.153,0,0,0-.673.226,1.47,1.47,0,0,0-.482.6l-.5-.337a1.192,1.192,0,0,1,.228-.3.456.456,0,0,0-.237-.132,1.159,1.159,0,0,0-.378-.056,1.353,1.353,0,0,0-.852.277.828.828,0,0,0-.347.663.768.768,0,0,0,.294.606,1.035,1.035,0,0,0,.711.257,1.524,1.524,0,0,0,.769-.226l.234.563a2.016,2.016,0,0,1-1,.267,1.567,1.567,0,0,1-1.142-.428A1.344,1.344,0,0,1,3816.853,6562.246Zm3.9-1.8v-.564h4.028v.564h-.725v1a3.936,3.936,0,0,0-1.041-.149,2.488,2.488,0,0,0-.711.09c-.193.063-.29.142-.29.227a.161.161,0,0,0,.084.132.484.484,0,0,0,.224.091,2.359,2.359,0,0,1,.772-.149,1.522,1.522,0,0,1,.922.278.809.809,0,0,1,.387.671.793.793,0,0,1-.387.654,1.563,1.563,0,0,1-.922.268v-.61a1.058,1.058,0,0,0,.462-.091c.127-.063.193-.136.193-.221s-.066-.181-.193-.248a.968.968,0,0,0-.462-.1,1.594,1.594,0,0,0-.874.227.645.645,0,0,0-.364.548c0,.214.145.4.435.557a2.186,2.186,0,0,0,1.032.227h.852v.6h-.852a2.645,2.645,0,0,1-1.5-.406,1.109,1.109,0,0,1-.483-1.539.294.294,0,1,0,.1-.577.593.593,0,0,1-.092-.308.754.754,0,0,1,.487-.646,2.338,2.338,0,0,1,1.172-.273.5.5,0,0,1,.141.037,1.364,1.364,0,0,0,.246.077v-.363Zm3.875,0v-.564h2.046v.564h-.694v3.194h-.659v-3.194Zm3.513,0v-.564h4.493v.564h-.7v3.194h-.655v-1.051a.973.973,0,0,1-.43.247,2.1,2.1,0,0,1-1.784-.27,1.081,1.081,0,0,1-.487-.88v-1.241Zm1.094,0v1.241a.549.549,0,0,0,.294.452,1.3,1.3,0,0,0,.711.188,1.369,1.369,0,0,0,.733-.188.538.538,0,0,0,.308-.452v-1.241Zm3.246,0v-.564h.693a.524.524,0,0,1-.254-.248.8.8,0,0,1-.092-.389,1.082,1.082,0,0,1,.479-.881,1.825,1.825,0,0,1,1.142-.36,4.52,4.52,0,0,1,1.857.394,4.262,4.262,0,0,1,1.5,1.112l-.426.338a4.167,4.167,0,0,0-1.348-.919,4.048,4.048,0,0,0-1.582-.32,1.159,1.159,0,0,0-.681.188.537.537,0,0,0-.286.449.47.47,0,0,0,.115.308.617.617,0,0,0,.312.18l-.119.149h.733v.564h-.694v3.194h-.655v-3.194Zm1.889,0v-.564h4.2v.564h-1.173a.771.771,0,0,1,.308.317.831.831,0,0,1,.118.436,1.205,1.205,0,0,1-.466.953,1.652,1.652,0,0,1-1.12.4h-.347a1.005,1.005,0,0,0,.927.563,1.427,1.427,0,0,0,.623-.148,1.6,1.6,0,0,0,.536-.415l.387.453a2.186,2.186,0,0,1-.7.526,2.023,2.023,0,0,1-.848.188,2.323,2.323,0,0,1-.866-.206,1.721,1.721,0,0,1-.642-.547,2.352,2.352,0,0,0-.224-.3c-.061-.076-.114-.115-.158-.115a.172.172,0,0,0-.1.039.447.447,0,0,0-.093.111l-.153-.749h1.656a1.015,1.015,0,0,0,.659-.219.674.674,0,0,0,.268-.534.682.682,0,0,0-.263-.534.917.917,0,0,0-.624-.219Zm4.044,0v-.564h4.484v.564h-.694v3.194h-.659v-1.163a1.163,1.163,0,0,1-.483.329,1.8,1.8,0,0,1-.672.12,1.554,1.554,0,0,1-1.089-.406,1.272,1.272,0,0,1-.457-.984v-1.09Zm1.09,1.09a.727.727,0,0,0,.259.557.91.91,0,0,0,.628.235,1.968,1.968,0,0,0,.421-.039.624.624,0,0,0,.272-.114l-1.581-1.2Zm.074-1.09,1.854,1.356a.536.536,0,0,0,.083-.154.52.52,0,0,0,.031-.188v-1.014Zm3.167,0v-.564h4.731v.564h-.98v1.052a4.216,4.216,0,0,0-1.427-.149,1.843,1.843,0,0,0-.958.239.7.7,0,0,0-.4.587.535.535,0,0,0,.343.452,1.652,1.652,0,0,0,.816.189.964.964,0,0,1,.409-.775,1.543,1.543,0,0,1,.979-.316.97.97,0,0,1,.654.231.72.72,0,0,1,.272.56.775.775,0,0,1-.487.658,2.291,2.291,0,0,1-1.173.278,1.021,1.021,0,0,0,.172.335,1.35,1.35,0,0,0,.294.269l-.466.338a1.912,1.912,0,0,1-.46-.457.906.906,0,0,1-.194-.484,2.618,2.618,0,0,1-1.261-.375,1.094,1.094,0,0,1-.513-.9,1.212,1.212,0,0,1,.575-1.006,2.286,2.286,0,0,1,1.393-.419,4.423,4.423,0,0,1,.769.073v-.377Zm2.746,2.408a2.36,2.36,0,0,0,.733-.1c.206-.062.312-.145.312-.239a.168.168,0,0,0-.079-.136.358.358,0,0,0-.194-.052.97.97,0,0,0-.549.154A.445.445,0,0,0,3845.486,6562.85Zm3.452-2.408v-.564H3854v.564h-.694v3.194h-.659v-.824a1.363,1.363,0,0,1-.554.329,2.245,2.245,0,0,1-.76.119,1.552,1.552,0,0,1-1.062-.351,1.056,1.056,0,0,1-.439-.852.746.746,0,0,1,.1-.389.7.7,0,0,1,.286-.286h-1.081v-.6h3.163v.6h-1a1.058,1.058,0,0,0-.58.231.562.562,0,0,0-.233.443.523.523,0,0,0,.246.428,1.04,1.04,0,0,0,.6.176,1.621,1.621,0,0,0,.773-.184,1.276,1.276,0,0,0,.54-.492v-1.544Zm3.5-1.954a.437.437,0,0,1,.163-.343.524.524,0,0,1,.378-.146.531.531,0,0,1,.377.146.451.451,0,0,1,.163.343.488.488,0,0,1-.163.368.507.507,0,0,1-.377.158.5.5,0,0,1-.378-.158A.473.473,0,0,1,3852.443,6558.487Zm1.441,1.954v-.564h4.739v.564h-1.032v1.01a4.2,4.2,0,0,0-1.12-.115,2.446,2.446,0,0,0-1.142.247c-.321.167-.479.364-.479.595a.625.625,0,0,0,.338.519,1.534,1.534,0,0,0,.821.213v-.115a1.087,1.087,0,0,1,.409-.843,1.465,1.465,0,0,1,.979-.342.968.968,0,0,1,.654.229.752.752,0,0,1,.273.574.888.888,0,0,1-.457.735,1.9,1.9,0,0,1-1.09.3,1.04,1.04,0,0,0,.211.355,2.057,2.057,0,0,0,.408.347l-.5.373a2.8,2.8,0,0,1-.519-.462,1.171,1.171,0,0,1-.255-.463l-1.353,1.04-.461-.424,1.195-.835a1.7,1.7,0,0,1-.909-.436,1.02,1.02,0,0,1-.364-.766,1.21,1.21,0,0,1,.658-1.022,2.882,2.882,0,0,1,1.582-.419,2.379,2.379,0,0,1,.466.082v-.377Zm2.78,2.353v.115a1.605,1.605,0,0,0,.711-.145c.193-.1.29-.219.29-.352a.181.181,0,0,0-.075-.146.351.351,0,0,0-.193-.06.8.8,0,0,0-.519.177A.51.51,0,0,0,3856.664,6562.794Zm1.805-2.353v-.564h4.494v.564h-.694v3.194h-.659v-1.051a.98.98,0,0,1-.431.247,1.9,1.9,0,0,1-.61.09,1.924,1.924,0,0,1-1.173-.359,1.082,1.082,0,0,1-.488-.88v-1.241Zm1.1,0v1.241a.541.541,0,0,0,.294.452,1.28,1.28,0,0,0,.708.188,1.361,1.361,0,0,0,.733-.188.539.539,0,0,0,.308-.452v-1.241Zm1.172,3.947a.81.81,0,0,1,.348-.663,1.345,1.345,0,0,1,.847-.278,2.4,2.4,0,0,1,1.375.564,7.837,7.837,0,0,1,1.52,1.579l-.5.3a5.909,5.909,0,0,0-1.234-1.352,1.966,1.966,0,0,0-1.16-.487.781.781,0,0,0-.408.1.281.281,0,0,0-.171.239.381.381,0,0,0,.18.316.721.721,0,0,0,.439.133.758.758,0,0,0,.3-.067,1.232,1.232,0,0,0,.316-.194l.382.45a1.074,1.074,0,0,1-.431.307,1.446,1.446,0,0,1-.571.107,1.316,1.316,0,0,1-.875-.308A.945.945,0,0,1,3860.74,6564.389Zm2.108-3.947v-.564h4.2v.564h-1.177a.777.777,0,0,1,.312.317.86.86,0,0,1,.114.436,1.2,1.2,0,0,1-.461.953,1.67,1.67,0,0,1-1.12.4h-.348a1.066,1.066,0,0,0,.379.415,1.082,1.082,0,0,0,.548.148,1.442,1.442,0,0,0,.624-.148,1.581,1.581,0,0,0,.532-.415l.386.453a2.112,2.112,0,0,1-.693.526,2.038,2.038,0,0,1-.848.188,2.3,2.3,0,0,1-.865-.206,1.68,1.68,0,0,1-.642-.547,2.39,2.39,0,0,0-.224-.3c-.062-.076-.114-.115-.163-.115a.184.184,0,0,0-.1.039.435.435,0,0,0-.092.111l-.154-.749h1.66a1.011,1.011,0,0,0,.654-.219.666.666,0,0,0,.009-1.068.923.923,0,0,0-.624-.219Z" transform="translate(-3809 -6557.999)" fill="#5c5c5c"/>
      </g>
    </g>
  </g>
</svg>
