<svg xmlns="http://www.w3.org/2000/svg" width="13.115" height="13.116" viewBox="0 0 13.115 13.116">
  <g id="search" transform="translate(-0.006)">
    <g id="_x34__4_" transform="translate(0.006)">
      <g id="Group_16737" data-name="Group 16737">
        <path id="Path_19346" data-name="Path 19346" d="M13,12.4,9.611,9.07a5.356,5.356,0,0,0,1.432-3.64A5.475,5.475,0,0,0,5.524,0,5.475,5.475,0,0,0,.006,5.43a5.475,5.475,0,0,0,5.518,5.43A5.549,5.549,0,0,0,9,9.648l3.4,3.345a.429.429,0,0,0,.6,0A.413.413,0,0,0,13,12.4ZM5.524,10.025A4.632,4.632,0,0,1,.855,5.43,4.632,4.632,0,0,1,5.524.835,4.632,4.632,0,0,1,10.193,5.43,4.632,4.632,0,0,1,5.524,10.025Z" transform="translate(-0.006)"/>
      </g>
    </g>
  </g>
</svg>
