<svg xmlns="http://www.w3.org/2000/svg" width="32" height="32" viewBox="0 0 32 32">
  <g id="Twitter" transform="translate(-344 -2444)">
    <circle id="Ellipse_395" data-name="Ellipse 395" cx="16" cy="16" r="16" transform="translate(344 2444)" fill="#2a3037"/>
    <g id="twitter_6_" data-name="twitter (6)" transform="translate(352.921 2405.436)">
      <g id="Group_16776" data-name="Group 16776" transform="translate(0 48)">
        <path id="Path_19395" data-name="Path 19395" d="M16.159,49.554a6.907,6.907,0,0,1-1.909.523,3.294,3.294,0,0,0,1.457-1.831,6.62,6.62,0,0,1-2.1.8,3.313,3.313,0,0,0-5.73,2.265,3.411,3.411,0,0,0,.077.755A9.377,9.377,0,0,1,1.125,48.6a3.314,3.314,0,0,0,1.018,4.428,3.272,3.272,0,0,1-1.5-.408v.036A3.328,3.328,0,0,0,3.3,55.915a3.307,3.307,0,0,1-.869.109,2.929,2.929,0,0,1-.627-.057,3.344,3.344,0,0,0,3.1,2.308A6.656,6.656,0,0,1,.793,59.688,6.205,6.205,0,0,1,0,59.643a9.326,9.326,0,0,0,5.082,1.487A9.364,9.364,0,0,0,14.511,51.7c0-.146-.005-.288-.012-.428A6.609,6.609,0,0,0,16.159,49.554Z" transform="translate(0 -48)" fill="#fff"/>
      </g>
    </g>
  </g>
</svg>
